%TF.GenerationSoftware,KiCad,Pcbnew,10.0.1*%
%TF.CreationDate,2026-05-29T15:49:22+03:00*%
%TF.ProjectId,RC_Receiver_PCB_ESP32-WROOM,52435f52-6563-4656-9976-65725f504342,rev?*%
%TF.SameCoordinates,Original*%
%TF.FileFunction,Profile,NP*%
%FSLAX46Y46*%
G04 Gerber Fmt 4.6, Leading zero omitted, Abs format (unit mm)*
G04 Created by KiCad (PCBNEW 10.0.1) date 2026-05-29 15:49:22*
%MOMM*%
%LPD*%
G01*
G04 APERTURE LIST*
%TA.AperFunction,Profile*%
%ADD10C,0.050000*%
%TD*%
%ADD11C,0.150000*%
G04 APERTURE END LIST*
D10*
X75500000Y-61000000D02*
X105500000Y-61000000D01*
X75500000Y-123500000D02*
X75500000Y-61000000D01*
X105500000Y-61000000D02*
X105500000Y-123500000D01*
X105500000Y-123500000D02*
X75500000Y-123500000D01*
D11*
X85833334Y-124804819D02*
X86452381Y-124804819D01*
X86452381Y-124804819D02*
X86119048Y-125185771D01*
X86119048Y-125185771D02*
X86261905Y-125185771D01*
X86261905Y-125185771D02*
X86357143Y-125233390D01*
X86357143Y-125233390D02*
X86404762Y-125281009D01*
X86404762Y-125281009D02*
X86452381Y-125376247D01*
X86452381Y-125376247D02*
X86452381Y-125614342D01*
X86452381Y-125614342D02*
X86404762Y-125709580D01*
X86404762Y-125709580D02*
X86357143Y-125757200D01*
X86357143Y-125757200D02*
X86261905Y-125804819D01*
X86261905Y-125804819D02*
X85976191Y-125804819D01*
X85976191Y-125804819D02*
X85880953Y-125757200D01*
X85880953Y-125757200D02*
X85833334Y-125709580D01*
X87071429Y-124804819D02*
X87166667Y-124804819D01*
X87166667Y-124804819D02*
X87261905Y-124852438D01*
X87261905Y-124852438D02*
X87309524Y-124900057D01*
X87309524Y-124900057D02*
X87357143Y-124995295D01*
X87357143Y-124995295D02*
X87404762Y-125185771D01*
X87404762Y-125185771D02*
X87404762Y-125423866D01*
X87404762Y-125423866D02*
X87357143Y-125614342D01*
X87357143Y-125614342D02*
X87309524Y-125709580D01*
X87309524Y-125709580D02*
X87261905Y-125757200D01*
X87261905Y-125757200D02*
X87166667Y-125804819D01*
X87166667Y-125804819D02*
X87071429Y-125804819D01*
X87071429Y-125804819D02*
X86976191Y-125757200D01*
X86976191Y-125757200D02*
X86928572Y-125709580D01*
X86928572Y-125709580D02*
X86880953Y-125614342D01*
X86880953Y-125614342D02*
X86833334Y-125423866D01*
X86833334Y-125423866D02*
X86833334Y-125185771D01*
X86833334Y-125185771D02*
X86880953Y-124995295D01*
X86880953Y-124995295D02*
X86928572Y-124900057D01*
X86928572Y-124900057D02*
X86976191Y-124852438D01*
X86976191Y-124852438D02*
X87071429Y-124804819D01*
X87833334Y-125709580D02*
X87880953Y-125757200D01*
X87880953Y-125757200D02*
X87833334Y-125804819D01*
X87833334Y-125804819D02*
X87785715Y-125757200D01*
X87785715Y-125757200D02*
X87833334Y-125709580D01*
X87833334Y-125709580D02*
X87833334Y-125804819D01*
X88500000Y-124804819D02*
X88595238Y-124804819D01*
X88595238Y-124804819D02*
X88690476Y-124852438D01*
X88690476Y-124852438D02*
X88738095Y-124900057D01*
X88738095Y-124900057D02*
X88785714Y-124995295D01*
X88785714Y-124995295D02*
X88833333Y-125185771D01*
X88833333Y-125185771D02*
X88833333Y-125423866D01*
X88833333Y-125423866D02*
X88785714Y-125614342D01*
X88785714Y-125614342D02*
X88738095Y-125709580D01*
X88738095Y-125709580D02*
X88690476Y-125757200D01*
X88690476Y-125757200D02*
X88595238Y-125804819D01*
X88595238Y-125804819D02*
X88500000Y-125804819D01*
X88500000Y-125804819D02*
X88404762Y-125757200D01*
X88404762Y-125757200D02*
X88357143Y-125709580D01*
X88357143Y-125709580D02*
X88309524Y-125614342D01*
X88309524Y-125614342D02*
X88261905Y-125423866D01*
X88261905Y-125423866D02*
X88261905Y-125185771D01*
X88261905Y-125185771D02*
X88309524Y-124995295D01*
X88309524Y-124995295D02*
X88357143Y-124900057D01*
X88357143Y-124900057D02*
X88404762Y-124852438D01*
X88404762Y-124852438D02*
X88500000Y-124804819D01*
X89452381Y-124804819D02*
X89547619Y-124804819D01*
X89547619Y-124804819D02*
X89642857Y-124852438D01*
X89642857Y-124852438D02*
X89690476Y-124900057D01*
X89690476Y-124900057D02*
X89738095Y-124995295D01*
X89738095Y-124995295D02*
X89785714Y-125185771D01*
X89785714Y-125185771D02*
X89785714Y-125423866D01*
X89785714Y-125423866D02*
X89738095Y-125614342D01*
X89738095Y-125614342D02*
X89690476Y-125709580D01*
X89690476Y-125709580D02*
X89642857Y-125757200D01*
X89642857Y-125757200D02*
X89547619Y-125804819D01*
X89547619Y-125804819D02*
X89452381Y-125804819D01*
X89452381Y-125804819D02*
X89357143Y-125757200D01*
X89357143Y-125757200D02*
X89309524Y-125709580D01*
X89309524Y-125709580D02*
X89261905Y-125614342D01*
X89261905Y-125614342D02*
X89214286Y-125423866D01*
X89214286Y-125423866D02*
X89214286Y-125185771D01*
X89214286Y-125185771D02*
X89261905Y-124995295D01*
X89261905Y-124995295D02*
X89309524Y-124900057D01*
X89309524Y-124900057D02*
X89357143Y-124852438D01*
X89357143Y-124852438D02*
X89452381Y-124804819D01*
X90404762Y-124804819D02*
X90500000Y-124804819D01*
X90500000Y-124804819D02*
X90595238Y-124852438D01*
X90595238Y-124852438D02*
X90642857Y-124900057D01*
X90642857Y-124900057D02*
X90690476Y-124995295D01*
X90690476Y-124995295D02*
X90738095Y-125185771D01*
X90738095Y-125185771D02*
X90738095Y-125423866D01*
X90738095Y-125423866D02*
X90690476Y-125614342D01*
X90690476Y-125614342D02*
X90642857Y-125709580D01*
X90642857Y-125709580D02*
X90595238Y-125757200D01*
X90595238Y-125757200D02*
X90500000Y-125804819D01*
X90500000Y-125804819D02*
X90404762Y-125804819D01*
X90404762Y-125804819D02*
X90309524Y-125757200D01*
X90309524Y-125757200D02*
X90261905Y-125709580D01*
X90261905Y-125709580D02*
X90214286Y-125614342D01*
X90214286Y-125614342D02*
X90166667Y-125423866D01*
X90166667Y-125423866D02*
X90166667Y-125185771D01*
X90166667Y-125185771D02*
X90214286Y-124995295D01*
X90214286Y-124995295D02*
X90261905Y-124900057D01*
X90261905Y-124900057D02*
X90309524Y-124852438D01*
X90309524Y-124852438D02*
X90404762Y-124804819D01*
X91357143Y-124804819D02*
X91452381Y-124804819D01*
X91452381Y-124804819D02*
X91547619Y-124852438D01*
X91547619Y-124852438D02*
X91595238Y-124900057D01*
X91595238Y-124900057D02*
X91642857Y-124995295D01*
X91642857Y-124995295D02*
X91690476Y-125185771D01*
X91690476Y-125185771D02*
X91690476Y-125423866D01*
X91690476Y-125423866D02*
X91642857Y-125614342D01*
X91642857Y-125614342D02*
X91595238Y-125709580D01*
X91595238Y-125709580D02*
X91547619Y-125757200D01*
X91547619Y-125757200D02*
X91452381Y-125804819D01*
X91452381Y-125804819D02*
X91357143Y-125804819D01*
X91357143Y-125804819D02*
X91261905Y-125757200D01*
X91261905Y-125757200D02*
X91214286Y-125709580D01*
X91214286Y-125709580D02*
X91166667Y-125614342D01*
X91166667Y-125614342D02*
X91119048Y-125423866D01*
X91119048Y-125423866D02*
X91119048Y-125185771D01*
X91119048Y-125185771D02*
X91166667Y-124995295D01*
X91166667Y-124995295D02*
X91214286Y-124900057D01*
X91214286Y-124900057D02*
X91261905Y-124852438D01*
X91261905Y-124852438D02*
X91357143Y-124804819D01*
X92880953Y-125804819D02*
X92880953Y-125138152D01*
X92880953Y-125233390D02*
X92928572Y-125185771D01*
X92928572Y-125185771D02*
X93023810Y-125138152D01*
X93023810Y-125138152D02*
X93166667Y-125138152D01*
X93166667Y-125138152D02*
X93261905Y-125185771D01*
X93261905Y-125185771D02*
X93309524Y-125281009D01*
X93309524Y-125281009D02*
X93309524Y-125804819D01*
X93309524Y-125281009D02*
X93357143Y-125185771D01*
X93357143Y-125185771D02*
X93452381Y-125138152D01*
X93452381Y-125138152D02*
X93595238Y-125138152D01*
X93595238Y-125138152D02*
X93690477Y-125185771D01*
X93690477Y-125185771D02*
X93738096Y-125281009D01*
X93738096Y-125281009D02*
X93738096Y-125804819D01*
X94214286Y-125804819D02*
X94214286Y-125138152D01*
X94214286Y-125233390D02*
X94261905Y-125185771D01*
X94261905Y-125185771D02*
X94357143Y-125138152D01*
X94357143Y-125138152D02*
X94500000Y-125138152D01*
X94500000Y-125138152D02*
X94595238Y-125185771D01*
X94595238Y-125185771D02*
X94642857Y-125281009D01*
X94642857Y-125281009D02*
X94642857Y-125804819D01*
X94642857Y-125281009D02*
X94690476Y-125185771D01*
X94690476Y-125185771D02*
X94785714Y-125138152D01*
X94785714Y-125138152D02*
X94928571Y-125138152D01*
X94928571Y-125138152D02*
X95023810Y-125185771D01*
X95023810Y-125185771D02*
X95071429Y-125281009D01*
X95071429Y-125281009D02*
X95071429Y-125804819D01*
D10*
X75500000Y-124000000D02*
X75500000Y-127086420D01*
X105500000Y-127086420D02*
X105500000Y-124000000D01*
X75500000Y-126500000D02*
X105500000Y-126500000D01*
X75500000Y-126500000D02*
X76626504Y-125913579D01*
X75500000Y-126500000D02*
X76626504Y-127086421D01*
X105500000Y-126500000D02*
X104373496Y-127086421D01*
X105500000Y-126500000D02*
X104373496Y-125913579D01*
M02*
