M48
; DRILL file KiCad 10.0.1 date 2026-05-29T15:50:12
; FORMAT={-:-/ absolute / metric / decimal}
; #@! TF.CreationDate,2026-05-29T15:50:12+03:00
; #@! TF.GenerationSoftware,Kicad,Pcbnew,10.0.1
; #@! TF.FileFunction,Plated,1,2,PTH
FMAT,2
METRIC
; #@! TA.AperFunction,Plated,PTH,ComponentDrill
T1C0.700
; #@! TA.AperFunction,Plated,PTH,ViaDrill
T2C0.800
; #@! TA.AperFunction,Plated,PTH,ComponentDrill
T3C0.800
; #@! TA.AperFunction,Plated,PTH,ComponentDrill
T4C1.000
; #@! TA.AperFunction,Plated,PTH,ComponentDrill
T5C1.020
%
G90
G05
T1
X92.63Y-75.25
X92.63Y-78.25
X100.25Y-75.25
X100.25Y-78.25
T2
X100.25Y-92.5
T3
X81.38Y-63.0
X81.38Y-65.54
X81.38Y-68.08
X81.38Y-70.62
X81.969Y-119.56
X84.509Y-119.56
X87.049Y-119.56
X89.0Y-63.0
X89.0Y-65.54
X89.0Y-68.08
X89.0Y-70.62
X89.589Y-119.56
X92.129Y-119.56
X94.0Y-68.5
X94.669Y-119.56
X97.209Y-119.56
X99.0Y-68.5
X99.749Y-119.56
T4
X77.5Y-63.46
X77.5Y-66.0
X84.46Y-83.0
X84.46Y-101.55
X87.0Y-83.0
X87.0Y-101.55
X95.14Y-83.0
X95.14Y-101.55
X95.21Y-63.0
X97.68Y-83.0
X97.68Y-101.55
X97.75Y-63.0
X103.75Y-62.685
X103.75Y-65.225
X103.75Y-67.765
T5
X78.08Y-82.01
X78.08Y-84.55
X78.08Y-87.09
X78.08Y-89.63
X78.08Y-92.17
X78.08Y-94.71
X78.08Y-97.25
X78.08Y-99.79
X78.08Y-102.33
X78.08Y-104.87
X78.08Y-107.41
X78.08Y-109.95
X78.08Y-112.49
X78.08Y-115.03
X78.08Y-117.57
X103.48Y-82.01
X103.48Y-84.55
X103.48Y-87.09
X103.48Y-89.63
X103.48Y-92.17
X103.48Y-94.71
X103.48Y-97.25
X103.48Y-99.79
X103.48Y-102.33
X103.48Y-104.87
X103.48Y-107.41
X103.48Y-109.95
X103.48Y-112.49
X103.48Y-115.03
X103.48Y-117.57
M30
