%TF.GenerationSoftware,KiCad,Pcbnew,10.0.1*%
%TF.CreationDate,2026-05-29T15:49:22+03:00*%
%TF.ProjectId,RC_Receiver_PCB_ESP32-WROOM,52435f52-6563-4656-9976-65725f504342,rev?*%
%TF.SameCoordinates,Original*%
%TF.FileFunction,Soldermask,Bot*%
%TF.FilePolarity,Negative*%
%FSLAX46Y46*%
G04 Gerber Fmt 4.6, Leading zero omitted, Abs format (unit mm)*
G04 Created by KiCad (PCBNEW 10.0.1) date 2026-05-29 15:49:22*
%MOMM*%
%LPD*%
G01*
G04 APERTURE LIST*
G04 Aperture macros list*
%AMRoundRect*
0 Rectangle with rounded corners*
0 $1 Rounding radius*
0 $2 $3 $4 $5 $6 $7 $8 $9 X,Y pos of 4 corners*
0 Add a 4 corners polygon primitive as box body*
4,1,4,$2,$3,$4,$5,$6,$7,$8,$9,$2,$3,0*
0 Add four circle primitives for the rounded corners*
1,1,$1+$1,$2,$3*
1,1,$1+$1,$4,$5*
1,1,$1+$1,$6,$7*
1,1,$1+$1,$8,$9*
0 Add four rect primitives between the rounded corners*
20,1,$1+$1,$2,$3,$4,$5,0*
20,1,$1+$1,$4,$5,$6,$7,0*
20,1,$1+$1,$6,$7,$8,$9,0*
20,1,$1+$1,$8,$9,$2,$3,0*%
G04 Aperture macros list end*
%ADD10C,3.000000*%
%ADD11RoundRect,0.102000X-1.000000X-1.000000X1.000000X-1.000000X1.000000X1.000000X-1.000000X1.000000X0*%
%ADD12C,2.204000*%
%ADD13R,1.700000X1.700000*%
%ADD14C,1.700000*%
%ADD15C,1.400000*%
%ADD16R,1.800000X1.800000*%
%ADD17O,1.800000X1.800000*%
%ADD18C,1.650000*%
%ADD19C,1.600000*%
%ADD20RoundRect,0.250000X0.950000X0.550000X-0.950000X0.550000X-0.950000X-0.550000X0.950000X-0.550000X0*%
%ADD21O,2.400000X1.600000*%
G04 APERTURE END LIST*
D10*
%TO.C,U6*%
X78500000Y-121000000D03*
X103010000Y-121000000D03*
D11*
X78080000Y-82010000D03*
D12*
X78080000Y-84550000D03*
X78080000Y-87090000D03*
X78080000Y-89630000D03*
X78080000Y-92170000D03*
X78080000Y-94710000D03*
X78080000Y-97250000D03*
X78080000Y-99790000D03*
X78080000Y-102330000D03*
X78080000Y-104870000D03*
X78080000Y-107410000D03*
X78080000Y-109950000D03*
X78080000Y-112490000D03*
X78080000Y-115030000D03*
X78080000Y-117570000D03*
X103480000Y-117570000D03*
X103480000Y-115030000D03*
X103480000Y-112490000D03*
X103480000Y-109950000D03*
X103480000Y-107410000D03*
X103480000Y-104870000D03*
X103480000Y-102330000D03*
X103480000Y-99790000D03*
X103480000Y-97250000D03*
X103480000Y-94710000D03*
X103480000Y-92170000D03*
X103480000Y-89630000D03*
X103480000Y-87090000D03*
X103480000Y-84550000D03*
X103480000Y-82010000D03*
%TD*%
D13*
%TO.C,J4*%
X97750000Y-63000000D03*
D14*
X95210000Y-63000000D03*
%TD*%
D15*
%TO.C,R1*%
X92630000Y-75250000D03*
X100250000Y-75250000D03*
%TD*%
D13*
%TO.C,J3*%
X103750000Y-67765000D03*
D14*
X103750000Y-65225000D03*
X103750000Y-62685000D03*
%TD*%
D16*
%TO.C,U2*%
X95140000Y-83000000D03*
X97680000Y-83000000D03*
D17*
X84460000Y-83000000D03*
X87000000Y-83000000D03*
D16*
X95140000Y-101550000D03*
X97680000Y-101550000D03*
D17*
X84460000Y-101550000D03*
X87000000Y-101550000D03*
%TD*%
D15*
%TO.C,R2*%
X100250000Y-78250000D03*
X92630000Y-78250000D03*
%TD*%
D13*
%TO.C,J2*%
X77500000Y-66000000D03*
D14*
X77500000Y-63460000D03*
%TD*%
D18*
%TO.C,U4*%
X81969000Y-119560500D03*
X84509000Y-119560500D03*
X87049000Y-119560500D03*
X89589000Y-119560500D03*
X92129000Y-119560500D03*
X94669000Y-119560500D03*
X97209000Y-119560500D03*
X99749000Y-119560500D03*
%TD*%
D19*
%TO.C,C1*%
X99000000Y-68500000D03*
X94000000Y-68500000D03*
%TD*%
D20*
%TO.C,U1*%
X89000000Y-63000000D03*
D21*
X89000000Y-65540000D03*
X89000000Y-68080000D03*
X89000000Y-70620000D03*
X81380000Y-70620000D03*
X81380000Y-68080000D03*
X81380000Y-65540000D03*
X81380000Y-63000000D03*
%TD*%
M02*
