%TF.GenerationSoftware,KiCad,Pcbnew,10.0.1*%
%TF.CreationDate,2026-05-29T15:49:22+03:00*%
%TF.ProjectId,RC_Receiver_PCB_ESP32-WROOM,52435f52-6563-4656-9976-65725f504342,rev?*%
%TF.SameCoordinates,Original*%
%TF.FileFunction,Legend,Top*%
%TF.FilePolarity,Positive*%
%FSLAX46Y46*%
G04 Gerber Fmt 4.6, Leading zero omitted, Abs format (unit mm)*
G04 Created by KiCad (PCBNEW 10.0.1) date 2026-05-29 15:49:22*
%MOMM*%
%LPD*%
G01*
G04 APERTURE LIST*
%ADD10C,0.100000*%
%ADD11C,0.300000*%
%ADD12C,0.150000*%
%ADD13C,0.000000*%
%ADD14C,0.127000*%
%ADD15C,0.200000*%
%ADD16C,0.120000*%
G04 APERTURE END LIST*
D10*
X80122419Y-66946115D02*
X79122419Y-66946115D01*
X79122419Y-66946115D02*
X79836704Y-66612782D01*
X79836704Y-66612782D02*
X79122419Y-66279449D01*
X79122419Y-66279449D02*
X80122419Y-66279449D01*
X79122419Y-65612782D02*
X79122419Y-65422306D01*
X79122419Y-65422306D02*
X79170038Y-65327068D01*
X79170038Y-65327068D02*
X79265276Y-65231830D01*
X79265276Y-65231830D02*
X79455752Y-65184211D01*
X79455752Y-65184211D02*
X79789085Y-65184211D01*
X79789085Y-65184211D02*
X79979561Y-65231830D01*
X79979561Y-65231830D02*
X80074800Y-65327068D01*
X80074800Y-65327068D02*
X80122419Y-65422306D01*
X80122419Y-65422306D02*
X80122419Y-65612782D01*
X80122419Y-65612782D02*
X80074800Y-65708020D01*
X80074800Y-65708020D02*
X79979561Y-65803258D01*
X79979561Y-65803258D02*
X79789085Y-65850877D01*
X79789085Y-65850877D02*
X79455752Y-65850877D01*
X79455752Y-65850877D02*
X79265276Y-65803258D01*
X79265276Y-65803258D02*
X79170038Y-65708020D01*
X79170038Y-65708020D02*
X79122419Y-65612782D01*
X79122419Y-64898496D02*
X79122419Y-64327068D01*
X80122419Y-64612782D02*
X79122419Y-64612782D01*
X79122419Y-63803258D02*
X79122419Y-63612782D01*
X79122419Y-63612782D02*
X79170038Y-63517544D01*
X79170038Y-63517544D02*
X79265276Y-63422306D01*
X79265276Y-63422306D02*
X79455752Y-63374687D01*
X79455752Y-63374687D02*
X79789085Y-63374687D01*
X79789085Y-63374687D02*
X79979561Y-63422306D01*
X79979561Y-63422306D02*
X80074800Y-63517544D01*
X80074800Y-63517544D02*
X80122419Y-63612782D01*
X80122419Y-63612782D02*
X80122419Y-63803258D01*
X80122419Y-63803258D02*
X80074800Y-63898496D01*
X80074800Y-63898496D02*
X79979561Y-63993734D01*
X79979561Y-63993734D02*
X79789085Y-64041353D01*
X79789085Y-64041353D02*
X79455752Y-64041353D01*
X79455752Y-64041353D02*
X79265276Y-63993734D01*
X79265276Y-63993734D02*
X79170038Y-63898496D01*
X79170038Y-63898496D02*
X79122419Y-63803258D01*
X80122419Y-62374687D02*
X79646228Y-62708020D01*
X80122419Y-62946115D02*
X79122419Y-62946115D01*
X79122419Y-62946115D02*
X79122419Y-62565163D01*
X79122419Y-62565163D02*
X79170038Y-62469925D01*
X79170038Y-62469925D02*
X79217657Y-62422306D01*
X79217657Y-62422306D02*
X79312895Y-62374687D01*
X79312895Y-62374687D02*
X79455752Y-62374687D01*
X79455752Y-62374687D02*
X79550990Y-62422306D01*
X79550990Y-62422306D02*
X79598609Y-62469925D01*
X79598609Y-62469925D02*
X79646228Y-62565163D01*
X79646228Y-62565163D02*
X79646228Y-62946115D01*
X102006265Y-68074800D02*
X102149122Y-68122419D01*
X102149122Y-68122419D02*
X102387217Y-68122419D01*
X102387217Y-68122419D02*
X102482455Y-68074800D01*
X102482455Y-68074800D02*
X102530074Y-68027180D01*
X102530074Y-68027180D02*
X102577693Y-67931942D01*
X102577693Y-67931942D02*
X102577693Y-67836704D01*
X102577693Y-67836704D02*
X102530074Y-67741466D01*
X102530074Y-67741466D02*
X102482455Y-67693847D01*
X102482455Y-67693847D02*
X102387217Y-67646228D01*
X102387217Y-67646228D02*
X102196741Y-67598609D01*
X102196741Y-67598609D02*
X102101503Y-67550990D01*
X102101503Y-67550990D02*
X102053884Y-67503371D01*
X102053884Y-67503371D02*
X102006265Y-67408133D01*
X102006265Y-67408133D02*
X102006265Y-67312895D01*
X102006265Y-67312895D02*
X102053884Y-67217657D01*
X102053884Y-67217657D02*
X102101503Y-67170038D01*
X102101503Y-67170038D02*
X102196741Y-67122419D01*
X102196741Y-67122419D02*
X102434836Y-67122419D01*
X102434836Y-67122419D02*
X102577693Y-67170038D01*
D11*
X101229400Y-68266917D02*
X101300828Y-68052632D01*
X101300828Y-68052632D02*
X101300828Y-67695489D01*
X101300828Y-67695489D02*
X101229400Y-67552632D01*
X101229400Y-67552632D02*
X101157971Y-67481203D01*
X101157971Y-67481203D02*
X101015114Y-67409774D01*
X101015114Y-67409774D02*
X100872257Y-67409774D01*
X100872257Y-67409774D02*
X100729400Y-67481203D01*
X100729400Y-67481203D02*
X100657971Y-67552632D01*
X100657971Y-67552632D02*
X100586542Y-67695489D01*
X100586542Y-67695489D02*
X100515114Y-67981203D01*
X100515114Y-67981203D02*
X100443685Y-68124060D01*
X100443685Y-68124060D02*
X100372257Y-68195489D01*
X100372257Y-68195489D02*
X100229400Y-68266917D01*
X100229400Y-68266917D02*
X100086542Y-68266917D01*
X100086542Y-68266917D02*
X99943685Y-68195489D01*
X99943685Y-68195489D02*
X99872257Y-68124060D01*
X99872257Y-68124060D02*
X99800828Y-67981203D01*
X99800828Y-67981203D02*
X99800828Y-67624060D01*
X99800828Y-67624060D02*
X99872257Y-67409774D01*
X100515114Y-66766918D02*
X100515114Y-66266918D01*
X101300828Y-66052632D02*
X101300828Y-66766918D01*
X101300828Y-66766918D02*
X99800828Y-66766918D01*
X99800828Y-66766918D02*
X99800828Y-66052632D01*
X101300828Y-64552632D02*
X100586542Y-65052632D01*
X101300828Y-65409775D02*
X99800828Y-65409775D01*
X99800828Y-65409775D02*
X99800828Y-64838346D01*
X99800828Y-64838346D02*
X99872257Y-64695489D01*
X99872257Y-64695489D02*
X99943685Y-64624060D01*
X99943685Y-64624060D02*
X100086542Y-64552632D01*
X100086542Y-64552632D02*
X100300828Y-64552632D01*
X100300828Y-64552632D02*
X100443685Y-64624060D01*
X100443685Y-64624060D02*
X100515114Y-64695489D01*
X100515114Y-64695489D02*
X100586542Y-64838346D01*
X100586542Y-64838346D02*
X100586542Y-65409775D01*
X99800828Y-64124060D02*
X101300828Y-63624060D01*
X101300828Y-63624060D02*
X99800828Y-63124060D01*
X99800828Y-62338346D02*
X99800828Y-62052632D01*
X99800828Y-62052632D02*
X99872257Y-61909775D01*
X99872257Y-61909775D02*
X100015114Y-61766918D01*
X100015114Y-61766918D02*
X100300828Y-61695489D01*
X100300828Y-61695489D02*
X100800828Y-61695489D01*
X100800828Y-61695489D02*
X101086542Y-61766918D01*
X101086542Y-61766918D02*
X101229400Y-61909775D01*
X101229400Y-61909775D02*
X101300828Y-62052632D01*
X101300828Y-62052632D02*
X101300828Y-62338346D01*
X101300828Y-62338346D02*
X101229400Y-62481204D01*
X101229400Y-62481204D02*
X101086542Y-62624061D01*
X101086542Y-62624061D02*
X100800828Y-62695489D01*
X100800828Y-62695489D02*
X100300828Y-62695489D01*
X100300828Y-62695489D02*
X100015114Y-62624061D01*
X100015114Y-62624061D02*
X99872257Y-62481204D01*
X99872257Y-62481204D02*
X99800828Y-62338346D01*
X92015114Y-69945489D02*
X92086542Y-69731203D01*
X92086542Y-69731203D02*
X92157971Y-69659774D01*
X92157971Y-69659774D02*
X92300828Y-69588346D01*
X92300828Y-69588346D02*
X92515114Y-69588346D01*
X92515114Y-69588346D02*
X92657971Y-69659774D01*
X92657971Y-69659774D02*
X92729400Y-69731203D01*
X92729400Y-69731203D02*
X92800828Y-69874060D01*
X92800828Y-69874060D02*
X92800828Y-70445489D01*
X92800828Y-70445489D02*
X91300828Y-70445489D01*
X91300828Y-70445489D02*
X91300828Y-69945489D01*
X91300828Y-69945489D02*
X91372257Y-69802632D01*
X91372257Y-69802632D02*
X91443685Y-69731203D01*
X91443685Y-69731203D02*
X91586542Y-69659774D01*
X91586542Y-69659774D02*
X91729400Y-69659774D01*
X91729400Y-69659774D02*
X91872257Y-69731203D01*
X91872257Y-69731203D02*
X91943685Y-69802632D01*
X91943685Y-69802632D02*
X92015114Y-69945489D01*
X92015114Y-69945489D02*
X92015114Y-70445489D01*
X92372257Y-69016917D02*
X92372257Y-68302632D01*
X92800828Y-69159774D02*
X91300828Y-68659774D01*
X91300828Y-68659774D02*
X92800828Y-68159774D01*
X91300828Y-67874060D02*
X91300828Y-67016918D01*
X92800828Y-67445489D02*
X91300828Y-67445489D01*
X92372257Y-66588346D02*
X92372257Y-65874061D01*
X92800828Y-66731203D02*
X91300828Y-66231203D01*
X91300828Y-66231203D02*
X92800828Y-65731203D01*
X92800828Y-64374061D02*
X92086542Y-64874061D01*
X92800828Y-65231204D02*
X91300828Y-65231204D01*
X91300828Y-65231204D02*
X91300828Y-64659775D01*
X91300828Y-64659775D02*
X91372257Y-64516918D01*
X91372257Y-64516918D02*
X91443685Y-64445489D01*
X91443685Y-64445489D02*
X91586542Y-64374061D01*
X91586542Y-64374061D02*
X91800828Y-64374061D01*
X91800828Y-64374061D02*
X91943685Y-64445489D01*
X91943685Y-64445489D02*
X92015114Y-64516918D01*
X92015114Y-64516918D02*
X92086542Y-64659775D01*
X92086542Y-64659775D02*
X92086542Y-65231204D01*
X92086542Y-63445489D02*
X92800828Y-63445489D01*
X91300828Y-63945489D02*
X92086542Y-63445489D01*
X92086542Y-63445489D02*
X91300828Y-62945489D01*
X92372257Y-62516918D02*
X92372257Y-61802633D01*
X92800828Y-62659775D02*
X91300828Y-62159775D01*
X91300828Y-62159775D02*
X92800828Y-61659775D01*
X94483082Y-66872257D02*
X94411653Y-66800828D01*
X94411653Y-66800828D02*
X94268796Y-66586542D01*
X94268796Y-66586542D02*
X94197368Y-66443685D01*
X94197368Y-66443685D02*
X94125939Y-66229400D01*
X94125939Y-66229400D02*
X94054510Y-65872257D01*
X94054510Y-65872257D02*
X94054510Y-65586542D01*
X94054510Y-65586542D02*
X94125939Y-65229400D01*
X94125939Y-65229400D02*
X94197368Y-65015114D01*
X94197368Y-65015114D02*
X94268796Y-64872257D01*
X94268796Y-64872257D02*
X94411653Y-64657971D01*
X94411653Y-64657971D02*
X94483082Y-64586542D01*
X95054510Y-65729400D02*
X96197368Y-65729400D01*
X96911653Y-65729400D02*
X98054511Y-65729400D01*
X97483082Y-66300828D02*
X97483082Y-65157971D01*
X98625939Y-66872257D02*
X98697368Y-66800828D01*
X98697368Y-66800828D02*
X98840225Y-66586542D01*
X98840225Y-66586542D02*
X98911654Y-66443685D01*
X98911654Y-66443685D02*
X98983082Y-66229400D01*
X98983082Y-66229400D02*
X99054511Y-65872257D01*
X99054511Y-65872257D02*
X99054511Y-65586542D01*
X99054511Y-65586542D02*
X98983082Y-65229400D01*
X98983082Y-65229400D02*
X98911654Y-65015114D01*
X98911654Y-65015114D02*
X98840225Y-64872257D01*
X98840225Y-64872257D02*
X98697368Y-64657971D01*
X98697368Y-64657971D02*
X98625939Y-64586542D01*
D12*
X78663095Y-69619819D02*
X78663095Y-70429342D01*
X78663095Y-70429342D02*
X78710714Y-70524580D01*
X78710714Y-70524580D02*
X78758333Y-70572200D01*
X78758333Y-70572200D02*
X78853571Y-70619819D01*
X78853571Y-70619819D02*
X79044047Y-70619819D01*
X79044047Y-70619819D02*
X79139285Y-70572200D01*
X79139285Y-70572200D02*
X79186904Y-70524580D01*
X79186904Y-70524580D02*
X79234523Y-70429342D01*
X79234523Y-70429342D02*
X79234523Y-69619819D01*
X80139285Y-69619819D02*
X79948809Y-69619819D01*
X79948809Y-69619819D02*
X79853571Y-69667438D01*
X79853571Y-69667438D02*
X79805952Y-69715057D01*
X79805952Y-69715057D02*
X79710714Y-69857914D01*
X79710714Y-69857914D02*
X79663095Y-70048390D01*
X79663095Y-70048390D02*
X79663095Y-70429342D01*
X79663095Y-70429342D02*
X79710714Y-70524580D01*
X79710714Y-70524580D02*
X79758333Y-70572200D01*
X79758333Y-70572200D02*
X79853571Y-70619819D01*
X79853571Y-70619819D02*
X80044047Y-70619819D01*
X80044047Y-70619819D02*
X80139285Y-70572200D01*
X80139285Y-70572200D02*
X80186904Y-70524580D01*
X80186904Y-70524580D02*
X80234523Y-70429342D01*
X80234523Y-70429342D02*
X80234523Y-70191247D01*
X80234523Y-70191247D02*
X80186904Y-70096009D01*
X80186904Y-70096009D02*
X80139285Y-70048390D01*
X80139285Y-70048390D02*
X80044047Y-70000771D01*
X80044047Y-70000771D02*
X79853571Y-70000771D01*
X79853571Y-70000771D02*
X79758333Y-70048390D01*
X79758333Y-70048390D02*
X79710714Y-70096009D01*
X79710714Y-70096009D02*
X79663095Y-70191247D01*
X96273333Y-73784819D02*
X95940000Y-73308628D01*
X95701905Y-73784819D02*
X95701905Y-72784819D01*
X95701905Y-72784819D02*
X96082857Y-72784819D01*
X96082857Y-72784819D02*
X96178095Y-72832438D01*
X96178095Y-72832438D02*
X96225714Y-72880057D01*
X96225714Y-72880057D02*
X96273333Y-72975295D01*
X96273333Y-72975295D02*
X96273333Y-73118152D01*
X96273333Y-73118152D02*
X96225714Y-73213390D01*
X96225714Y-73213390D02*
X96178095Y-73261009D01*
X96178095Y-73261009D02*
X96082857Y-73308628D01*
X96082857Y-73308628D02*
X95701905Y-73308628D01*
X97225714Y-73784819D02*
X96654286Y-73784819D01*
X96940000Y-73784819D02*
X96940000Y-72784819D01*
X96940000Y-72784819D02*
X96844762Y-72927676D01*
X96844762Y-72927676D02*
X96749524Y-73022914D01*
X96749524Y-73022914D02*
X96654286Y-73070533D01*
X96273333Y-80624819D02*
X95940000Y-80148628D01*
X95701905Y-80624819D02*
X95701905Y-79624819D01*
X95701905Y-79624819D02*
X96082857Y-79624819D01*
X96082857Y-79624819D02*
X96178095Y-79672438D01*
X96178095Y-79672438D02*
X96225714Y-79720057D01*
X96225714Y-79720057D02*
X96273333Y-79815295D01*
X96273333Y-79815295D02*
X96273333Y-79958152D01*
X96273333Y-79958152D02*
X96225714Y-80053390D01*
X96225714Y-80053390D02*
X96178095Y-80101009D01*
X96178095Y-80101009D02*
X96082857Y-80148628D01*
X96082857Y-80148628D02*
X95701905Y-80148628D01*
X96654286Y-79720057D02*
X96701905Y-79672438D01*
X96701905Y-79672438D02*
X96797143Y-79624819D01*
X96797143Y-79624819D02*
X97035238Y-79624819D01*
X97035238Y-79624819D02*
X97130476Y-79672438D01*
X97130476Y-79672438D02*
X97178095Y-79720057D01*
X97178095Y-79720057D02*
X97225714Y-79815295D01*
X97225714Y-79815295D02*
X97225714Y-79910533D01*
X97225714Y-79910533D02*
X97178095Y-80053390D01*
X97178095Y-80053390D02*
X96606667Y-80624819D01*
X96606667Y-80624819D02*
X97225714Y-80624819D01*
X89899819Y-108711404D02*
X90709342Y-108711404D01*
X90709342Y-108711404D02*
X90804580Y-108663785D01*
X90804580Y-108663785D02*
X90852200Y-108616166D01*
X90852200Y-108616166D02*
X90899819Y-108520928D01*
X90899819Y-108520928D02*
X90899819Y-108330452D01*
X90899819Y-108330452D02*
X90852200Y-108235214D01*
X90852200Y-108235214D02*
X90804580Y-108187595D01*
X90804580Y-108187595D02*
X90709342Y-108139976D01*
X90709342Y-108139976D02*
X89899819Y-108139976D01*
X90233152Y-107235214D02*
X90899819Y-107235214D01*
X89852200Y-107473309D02*
X90566485Y-107711404D01*
X90566485Y-107711404D02*
X90566485Y-107092357D01*
X81423819Y-117083832D02*
X82423819Y-116750499D01*
X82423819Y-116750499D02*
X81423819Y-116417166D01*
X82328580Y-115512404D02*
X82376200Y-115560023D01*
X82376200Y-115560023D02*
X82423819Y-115702880D01*
X82423819Y-115702880D02*
X82423819Y-115798118D01*
X82423819Y-115798118D02*
X82376200Y-115940975D01*
X82376200Y-115940975D02*
X82280961Y-116036213D01*
X82280961Y-116036213D02*
X82185723Y-116083832D01*
X82185723Y-116083832D02*
X81995247Y-116131451D01*
X81995247Y-116131451D02*
X81852390Y-116131451D01*
X81852390Y-116131451D02*
X81661914Y-116083832D01*
X81661914Y-116083832D02*
X81566676Y-116036213D01*
X81566676Y-116036213D02*
X81471438Y-115940975D01*
X81471438Y-115940975D02*
X81423819Y-115798118D01*
X81423819Y-115798118D02*
X81423819Y-115702880D01*
X81423819Y-115702880D02*
X81471438Y-115560023D01*
X81471438Y-115560023D02*
X81519057Y-115512404D01*
X82328580Y-114512404D02*
X82376200Y-114560023D01*
X82376200Y-114560023D02*
X82423819Y-114702880D01*
X82423819Y-114702880D02*
X82423819Y-114798118D01*
X82423819Y-114798118D02*
X82376200Y-114940975D01*
X82376200Y-114940975D02*
X82280961Y-115036213D01*
X82280961Y-115036213D02*
X82185723Y-115083832D01*
X82185723Y-115083832D02*
X81995247Y-115131451D01*
X81995247Y-115131451D02*
X81852390Y-115131451D01*
X81852390Y-115131451D02*
X81661914Y-115083832D01*
X81661914Y-115083832D02*
X81566676Y-115036213D01*
X81566676Y-115036213D02*
X81471438Y-114940975D01*
X81471438Y-114940975D02*
X81423819Y-114798118D01*
X81423819Y-114798118D02*
X81423819Y-114702880D01*
X81423819Y-114702880D02*
X81471438Y-114560023D01*
X81471438Y-114560023D02*
X81519057Y-114512404D01*
X84011438Y-116512404D02*
X83963819Y-116607642D01*
X83963819Y-116607642D02*
X83963819Y-116750499D01*
X83963819Y-116750499D02*
X84011438Y-116893356D01*
X84011438Y-116893356D02*
X84106676Y-116988594D01*
X84106676Y-116988594D02*
X84201914Y-117036213D01*
X84201914Y-117036213D02*
X84392390Y-117083832D01*
X84392390Y-117083832D02*
X84535247Y-117083832D01*
X84535247Y-117083832D02*
X84725723Y-117036213D01*
X84725723Y-117036213D02*
X84820961Y-116988594D01*
X84820961Y-116988594D02*
X84916200Y-116893356D01*
X84916200Y-116893356D02*
X84963819Y-116750499D01*
X84963819Y-116750499D02*
X84963819Y-116655261D01*
X84963819Y-116655261D02*
X84916200Y-116512404D01*
X84916200Y-116512404D02*
X84868580Y-116464785D01*
X84868580Y-116464785D02*
X84535247Y-116464785D01*
X84535247Y-116464785D02*
X84535247Y-116655261D01*
X84963819Y-116036213D02*
X83963819Y-116036213D01*
X83963819Y-116036213D02*
X84963819Y-115464785D01*
X84963819Y-115464785D02*
X83963819Y-115464785D01*
X84963819Y-114988594D02*
X83963819Y-114988594D01*
X83963819Y-114988594D02*
X83963819Y-114750499D01*
X83963819Y-114750499D02*
X84011438Y-114607642D01*
X84011438Y-114607642D02*
X84106676Y-114512404D01*
X84106676Y-114512404D02*
X84201914Y-114464785D01*
X84201914Y-114464785D02*
X84392390Y-114417166D01*
X84392390Y-114417166D02*
X84535247Y-114417166D01*
X84535247Y-114417166D02*
X84725723Y-114464785D01*
X84725723Y-114464785D02*
X84820961Y-114512404D01*
X84820961Y-114512404D02*
X84916200Y-114607642D01*
X84916200Y-114607642D02*
X84963819Y-114750499D01*
X84963819Y-114750499D02*
X84963819Y-114988594D01*
X87456200Y-116940975D02*
X87503819Y-116798118D01*
X87503819Y-116798118D02*
X87503819Y-116560023D01*
X87503819Y-116560023D02*
X87456200Y-116464785D01*
X87456200Y-116464785D02*
X87408580Y-116417166D01*
X87408580Y-116417166D02*
X87313342Y-116369547D01*
X87313342Y-116369547D02*
X87218104Y-116369547D01*
X87218104Y-116369547D02*
X87122866Y-116417166D01*
X87122866Y-116417166D02*
X87075247Y-116464785D01*
X87075247Y-116464785D02*
X87027628Y-116560023D01*
X87027628Y-116560023D02*
X86980009Y-116750499D01*
X86980009Y-116750499D02*
X86932390Y-116845737D01*
X86932390Y-116845737D02*
X86884771Y-116893356D01*
X86884771Y-116893356D02*
X86789533Y-116940975D01*
X86789533Y-116940975D02*
X86694295Y-116940975D01*
X86694295Y-116940975D02*
X86599057Y-116893356D01*
X86599057Y-116893356D02*
X86551438Y-116845737D01*
X86551438Y-116845737D02*
X86503819Y-116750499D01*
X86503819Y-116750499D02*
X86503819Y-116512404D01*
X86503819Y-116512404D02*
X86551438Y-116369547D01*
X87408580Y-115369547D02*
X87456200Y-115417166D01*
X87456200Y-115417166D02*
X87503819Y-115560023D01*
X87503819Y-115560023D02*
X87503819Y-115655261D01*
X87503819Y-115655261D02*
X87456200Y-115798118D01*
X87456200Y-115798118D02*
X87360961Y-115893356D01*
X87360961Y-115893356D02*
X87265723Y-115940975D01*
X87265723Y-115940975D02*
X87075247Y-115988594D01*
X87075247Y-115988594D02*
X86932390Y-115988594D01*
X86932390Y-115988594D02*
X86741914Y-115940975D01*
X86741914Y-115940975D02*
X86646676Y-115893356D01*
X86646676Y-115893356D02*
X86551438Y-115798118D01*
X86551438Y-115798118D02*
X86503819Y-115655261D01*
X86503819Y-115655261D02*
X86503819Y-115560023D01*
X86503819Y-115560023D02*
X86551438Y-115417166D01*
X86551438Y-115417166D02*
X86599057Y-115369547D01*
X87503819Y-114464785D02*
X87503819Y-114940975D01*
X87503819Y-114940975D02*
X86503819Y-114940975D01*
X89996200Y-116964785D02*
X90043819Y-116821928D01*
X90043819Y-116821928D02*
X90043819Y-116583833D01*
X90043819Y-116583833D02*
X89996200Y-116488595D01*
X89996200Y-116488595D02*
X89948580Y-116440976D01*
X89948580Y-116440976D02*
X89853342Y-116393357D01*
X89853342Y-116393357D02*
X89758104Y-116393357D01*
X89758104Y-116393357D02*
X89662866Y-116440976D01*
X89662866Y-116440976D02*
X89615247Y-116488595D01*
X89615247Y-116488595D02*
X89567628Y-116583833D01*
X89567628Y-116583833D02*
X89520009Y-116774309D01*
X89520009Y-116774309D02*
X89472390Y-116869547D01*
X89472390Y-116869547D02*
X89424771Y-116917166D01*
X89424771Y-116917166D02*
X89329533Y-116964785D01*
X89329533Y-116964785D02*
X89234295Y-116964785D01*
X89234295Y-116964785D02*
X89139057Y-116917166D01*
X89139057Y-116917166D02*
X89091438Y-116869547D01*
X89091438Y-116869547D02*
X89043819Y-116774309D01*
X89043819Y-116774309D02*
X89043819Y-116536214D01*
X89043819Y-116536214D02*
X89091438Y-116393357D01*
X90043819Y-115964785D02*
X89043819Y-115964785D01*
X89043819Y-115964785D02*
X89043819Y-115726690D01*
X89043819Y-115726690D02*
X89091438Y-115583833D01*
X89091438Y-115583833D02*
X89186676Y-115488595D01*
X89186676Y-115488595D02*
X89281914Y-115440976D01*
X89281914Y-115440976D02*
X89472390Y-115393357D01*
X89472390Y-115393357D02*
X89615247Y-115393357D01*
X89615247Y-115393357D02*
X89805723Y-115440976D01*
X89805723Y-115440976D02*
X89900961Y-115488595D01*
X89900961Y-115488595D02*
X89996200Y-115583833D01*
X89996200Y-115583833D02*
X90043819Y-115726690D01*
X90043819Y-115726690D02*
X90043819Y-115964785D01*
X89758104Y-115012404D02*
X89758104Y-114536214D01*
X90043819Y-115107642D02*
X89043819Y-114774309D01*
X89043819Y-114774309D02*
X90043819Y-114440976D01*
X91583819Y-117012404D02*
X92583819Y-116345738D01*
X91583819Y-116345738D02*
X92583819Y-117012404D01*
X92583819Y-115964785D02*
X91583819Y-115964785D01*
X91583819Y-115964785D02*
X91583819Y-115726690D01*
X91583819Y-115726690D02*
X91631438Y-115583833D01*
X91631438Y-115583833D02*
X91726676Y-115488595D01*
X91726676Y-115488595D02*
X91821914Y-115440976D01*
X91821914Y-115440976D02*
X92012390Y-115393357D01*
X92012390Y-115393357D02*
X92155247Y-115393357D01*
X92155247Y-115393357D02*
X92345723Y-115440976D01*
X92345723Y-115440976D02*
X92440961Y-115488595D01*
X92440961Y-115488595D02*
X92536200Y-115583833D01*
X92536200Y-115583833D02*
X92583819Y-115726690D01*
X92583819Y-115726690D02*
X92583819Y-115964785D01*
X92298104Y-115012404D02*
X92298104Y-114536214D01*
X92583819Y-115107642D02*
X91583819Y-114774309D01*
X91583819Y-114774309D02*
X92583819Y-114440976D01*
X94123819Y-116988594D02*
X95123819Y-116321928D01*
X94123819Y-116321928D02*
X95123819Y-116988594D01*
X95028580Y-115369547D02*
X95076200Y-115417166D01*
X95076200Y-115417166D02*
X95123819Y-115560023D01*
X95123819Y-115560023D02*
X95123819Y-115655261D01*
X95123819Y-115655261D02*
X95076200Y-115798118D01*
X95076200Y-115798118D02*
X94980961Y-115893356D01*
X94980961Y-115893356D02*
X94885723Y-115940975D01*
X94885723Y-115940975D02*
X94695247Y-115988594D01*
X94695247Y-115988594D02*
X94552390Y-115988594D01*
X94552390Y-115988594D02*
X94361914Y-115940975D01*
X94361914Y-115940975D02*
X94266676Y-115893356D01*
X94266676Y-115893356D02*
X94171438Y-115798118D01*
X94171438Y-115798118D02*
X94123819Y-115655261D01*
X94123819Y-115655261D02*
X94123819Y-115560023D01*
X94123819Y-115560023D02*
X94171438Y-115417166D01*
X94171438Y-115417166D02*
X94219057Y-115369547D01*
X95123819Y-114464785D02*
X95123819Y-114940975D01*
X95123819Y-114940975D02*
X94123819Y-114940975D01*
X97378104Y-116988594D02*
X97378104Y-116512404D01*
X97663819Y-117083832D02*
X96663819Y-116750499D01*
X96663819Y-116750499D02*
X97663819Y-116417166D01*
X97663819Y-116083832D02*
X96663819Y-116083832D01*
X96663819Y-116083832D02*
X96663819Y-115845737D01*
X96663819Y-115845737D02*
X96711438Y-115702880D01*
X96711438Y-115702880D02*
X96806676Y-115607642D01*
X96806676Y-115607642D02*
X96901914Y-115560023D01*
X96901914Y-115560023D02*
X97092390Y-115512404D01*
X97092390Y-115512404D02*
X97235247Y-115512404D01*
X97235247Y-115512404D02*
X97425723Y-115560023D01*
X97425723Y-115560023D02*
X97520961Y-115607642D01*
X97520961Y-115607642D02*
X97616200Y-115702880D01*
X97616200Y-115702880D02*
X97663819Y-115845737D01*
X97663819Y-115845737D02*
X97663819Y-116083832D01*
X97663819Y-115083832D02*
X96663819Y-115083832D01*
X96663819Y-115083832D02*
X96663819Y-114845737D01*
X96663819Y-114845737D02*
X96711438Y-114702880D01*
X96711438Y-114702880D02*
X96806676Y-114607642D01*
X96806676Y-114607642D02*
X96901914Y-114560023D01*
X96901914Y-114560023D02*
X97092390Y-114512404D01*
X97092390Y-114512404D02*
X97235247Y-114512404D01*
X97235247Y-114512404D02*
X97425723Y-114560023D01*
X97425723Y-114560023D02*
X97520961Y-114607642D01*
X97520961Y-114607642D02*
X97616200Y-114702880D01*
X97616200Y-114702880D02*
X97663819Y-114845737D01*
X97663819Y-114845737D02*
X97663819Y-115083832D01*
X100203819Y-116655261D02*
X99203819Y-116655261D01*
X100203819Y-116179071D02*
X99203819Y-116179071D01*
X99203819Y-116179071D02*
X100203819Y-115607643D01*
X100203819Y-115607643D02*
X99203819Y-115607643D01*
X99203819Y-115274309D02*
X99203819Y-114702881D01*
X100203819Y-114988595D02*
X99203819Y-114988595D01*
X96333333Y-71359580D02*
X96285714Y-71407200D01*
X96285714Y-71407200D02*
X96142857Y-71454819D01*
X96142857Y-71454819D02*
X96047619Y-71454819D01*
X96047619Y-71454819D02*
X95904762Y-71407200D01*
X95904762Y-71407200D02*
X95809524Y-71311961D01*
X95809524Y-71311961D02*
X95761905Y-71216723D01*
X95761905Y-71216723D02*
X95714286Y-71026247D01*
X95714286Y-71026247D02*
X95714286Y-70883390D01*
X95714286Y-70883390D02*
X95761905Y-70692914D01*
X95761905Y-70692914D02*
X95809524Y-70597676D01*
X95809524Y-70597676D02*
X95904762Y-70502438D01*
X95904762Y-70502438D02*
X96047619Y-70454819D01*
X96047619Y-70454819D02*
X96142857Y-70454819D01*
X96142857Y-70454819D02*
X96285714Y-70502438D01*
X96285714Y-70502438D02*
X96333333Y-70550057D01*
X97285714Y-71454819D02*
X96714286Y-71454819D01*
X97000000Y-71454819D02*
X97000000Y-70454819D01*
X97000000Y-70454819D02*
X96904762Y-70597676D01*
X96904762Y-70597676D02*
X96809524Y-70692914D01*
X96809524Y-70692914D02*
X96714286Y-70740533D01*
D13*
%TO.C,G\u002A\u002A\u002A*%
G36*
X92433164Y-86501940D02*
G01*
X92711227Y-86502029D01*
X92974882Y-86502187D01*
X93223533Y-86502414D01*
X93456582Y-86502709D01*
X93673435Y-86503071D01*
X93873494Y-86503498D01*
X94056163Y-86503990D01*
X94220846Y-86504545D01*
X94366946Y-86505163D01*
X94493868Y-86505841D01*
X94601014Y-86506580D01*
X94687788Y-86507378D01*
X94753595Y-86508234D01*
X94797837Y-86509147D01*
X94815644Y-86509818D01*
X95041177Y-86533412D01*
X95260460Y-86578558D01*
X95472719Y-86644907D01*
X95677183Y-86732109D01*
X95873079Y-86839812D01*
X96059633Y-86967668D01*
X96236074Y-87115325D01*
X96311915Y-87188085D01*
X96466358Y-87356847D01*
X96600798Y-87534593D01*
X96715789Y-87722397D01*
X96811882Y-87921335D01*
X96889629Y-88132482D01*
X96949582Y-88356911D01*
X96973249Y-88475511D01*
X96975159Y-88486760D01*
X96976951Y-88498900D01*
X96978628Y-88512654D01*
X96980194Y-88528743D01*
X96981653Y-88547887D01*
X96983008Y-88570808D01*
X96984264Y-88598227D01*
X96985425Y-88630866D01*
X96986493Y-88669445D01*
X96987474Y-88714686D01*
X96988370Y-88767311D01*
X96989185Y-88828039D01*
X96989924Y-88897593D01*
X96990589Y-88976694D01*
X96991186Y-89066062D01*
X96991716Y-89166420D01*
X96992186Y-89278488D01*
X96992597Y-89402988D01*
X96992954Y-89540641D01*
X96993261Y-89692168D01*
X96993522Y-89858290D01*
X96993739Y-90039728D01*
X96993918Y-90237205D01*
X96994062Y-90451440D01*
X96994174Y-90683155D01*
X96994258Y-90933072D01*
X96994319Y-91201912D01*
X96994360Y-91490395D01*
X96994384Y-91799243D01*
X96994397Y-92129178D01*
X96994400Y-92480920D01*
X96994400Y-92505644D01*
X96994400Y-96417244D01*
X96969177Y-96548372D01*
X96915328Y-96777210D01*
X96844338Y-96993881D01*
X96756704Y-97197178D01*
X96652923Y-97385895D01*
X96575454Y-97502393D01*
X96430402Y-97686245D01*
X96270931Y-97853211D01*
X96097897Y-98002658D01*
X95912155Y-98133950D01*
X95714559Y-98246455D01*
X95505965Y-98339537D01*
X95392118Y-98380489D01*
X95272894Y-98417465D01*
X95163790Y-98445320D01*
X95057160Y-98465434D01*
X94945356Y-98479184D01*
X94820730Y-98487950D01*
X94787422Y-98489492D01*
X94756725Y-98490312D01*
X94705012Y-98491088D01*
X94633308Y-98491821D01*
X94542634Y-98492509D01*
X94434013Y-98493154D01*
X94308470Y-98493756D01*
X94167025Y-98494315D01*
X94010703Y-98494831D01*
X93840526Y-98495305D01*
X93657517Y-98495737D01*
X93462700Y-98496127D01*
X93257096Y-98496476D01*
X93041729Y-98496783D01*
X92817623Y-98497049D01*
X92585798Y-98497274D01*
X92347280Y-98497459D01*
X92103090Y-98497603D01*
X91854252Y-98497708D01*
X91601788Y-98497772D01*
X91346721Y-98497797D01*
X91090075Y-98497783D01*
X90832872Y-98497730D01*
X90576135Y-98497638D01*
X90320887Y-98497508D01*
X90068150Y-98497339D01*
X89818949Y-98497132D01*
X89574305Y-98496888D01*
X89335242Y-98496606D01*
X89102783Y-98496287D01*
X88877950Y-98495931D01*
X88661767Y-98495539D01*
X88455256Y-98495110D01*
X88259440Y-98494645D01*
X88075342Y-98494144D01*
X87903985Y-98493607D01*
X87746393Y-98493035D01*
X87603587Y-98492428D01*
X87476591Y-98491786D01*
X87366428Y-98491110D01*
X87274120Y-98490399D01*
X87200691Y-98489654D01*
X87147164Y-98488875D01*
X87114561Y-98488063D01*
X87105333Y-98487546D01*
X86879087Y-98452680D01*
X86659923Y-98396925D01*
X86449017Y-98321178D01*
X86247543Y-98226342D01*
X86056674Y-98113315D01*
X85877587Y-97982998D01*
X85711454Y-97836291D01*
X85559450Y-97674095D01*
X85422750Y-97497309D01*
X85302528Y-97306834D01*
X85199959Y-97103570D01*
X85153261Y-96991236D01*
X85123622Y-96906874D01*
X85093462Y-96807355D01*
X85064770Y-96699957D01*
X85039531Y-96591962D01*
X85025843Y-96524489D01*
X85024015Y-96514050D01*
X85022300Y-96502241D01*
X85020694Y-96488346D01*
X85019194Y-96471646D01*
X85017797Y-96451426D01*
X85016499Y-96426966D01*
X85015295Y-96397551D01*
X85014184Y-96362463D01*
X85013160Y-96320984D01*
X85012221Y-96272397D01*
X85011363Y-96215985D01*
X85010581Y-96151031D01*
X85009874Y-96076817D01*
X85009236Y-95992626D01*
X85008664Y-95897741D01*
X85008156Y-95791444D01*
X85007706Y-95673019D01*
X85007312Y-95541747D01*
X85006970Y-95396911D01*
X85006676Y-95237795D01*
X85006427Y-95063681D01*
X85006219Y-94873852D01*
X85006049Y-94667590D01*
X85005912Y-94444178D01*
X85005805Y-94202899D01*
X85005726Y-93943035D01*
X85005669Y-93663869D01*
X85005632Y-93364684D01*
X85005610Y-93044763D01*
X85005601Y-92703388D01*
X85005601Y-92620893D01*
X85225395Y-92620893D01*
X85225445Y-92876862D01*
X85225545Y-93131288D01*
X85225696Y-93383122D01*
X85225898Y-93631315D01*
X85226150Y-93874820D01*
X85226454Y-94112586D01*
X85226808Y-94343565D01*
X85227213Y-94566710D01*
X85227669Y-94780969D01*
X85228176Y-94985296D01*
X85228733Y-95178642D01*
X85229342Y-95359957D01*
X85230001Y-95528193D01*
X85230711Y-95682301D01*
X85231472Y-95821232D01*
X85232284Y-95943938D01*
X85233146Y-96049370D01*
X85234059Y-96136480D01*
X85235024Y-96204218D01*
X85236039Y-96251535D01*
X85237104Y-96277384D01*
X85237167Y-96278192D01*
X85262401Y-96465796D01*
X85307931Y-96654086D01*
X85374245Y-96844680D01*
X85461832Y-97039196D01*
X85475575Y-97066356D01*
X85586493Y-97258432D01*
X85715270Y-97437510D01*
X85860669Y-97602342D01*
X86021451Y-97751684D01*
X86196377Y-97884290D01*
X86384209Y-97998913D01*
X86423065Y-98019493D01*
X86551081Y-98082030D01*
X86672098Y-98132885D01*
X86795677Y-98175723D01*
X86930356Y-98213943D01*
X86984146Y-98227530D01*
X87029758Y-98237829D01*
X87072247Y-98245467D01*
X87116664Y-98251069D01*
X87168063Y-98255262D01*
X87231498Y-98258673D01*
X87312021Y-98261927D01*
X87319822Y-98262217D01*
X87349842Y-98262904D01*
X87401524Y-98263567D01*
X87473950Y-98264206D01*
X87566206Y-98264817D01*
X87677375Y-98265399D01*
X87806541Y-98265951D01*
X87952787Y-98266471D01*
X88115197Y-98266956D01*
X88292855Y-98267407D01*
X88484845Y-98267820D01*
X88690251Y-98268193D01*
X88908156Y-98268527D01*
X89137645Y-98268817D01*
X89377800Y-98269064D01*
X89627706Y-98269265D01*
X89886447Y-98269418D01*
X90153106Y-98269522D01*
X90426767Y-98269575D01*
X90706514Y-98269575D01*
X90991431Y-98269521D01*
X91197556Y-98269448D01*
X94838222Y-98267910D01*
X94968044Y-98238806D01*
X95189835Y-98179976D01*
X95395769Y-98106107D01*
X95587651Y-98016227D01*
X95767286Y-97909363D01*
X95936477Y-97784540D01*
X96097030Y-97640788D01*
X96120684Y-97617326D01*
X96268743Y-97455324D01*
X96396784Y-97286302D01*
X96506099Y-97107977D01*
X96597980Y-96918064D01*
X96673721Y-96714279D01*
X96717928Y-96561768D01*
X96731423Y-96506353D01*
X96741669Y-96454644D01*
X96749443Y-96400764D01*
X96755523Y-96338835D01*
X96760686Y-96262977D01*
X96763024Y-96220721D01*
X96764084Y-96189117D01*
X96765093Y-96136329D01*
X96766049Y-96063407D01*
X96766953Y-95971405D01*
X96767806Y-95861375D01*
X96768606Y-95734368D01*
X96769355Y-95591437D01*
X96770052Y-95433634D01*
X96770697Y-95262011D01*
X96771290Y-95077621D01*
X96771832Y-94881514D01*
X96772322Y-94674744D01*
X96772761Y-94458362D01*
X96773148Y-94233421D01*
X96773484Y-94000972D01*
X96773768Y-93762068D01*
X96774001Y-93517762D01*
X96774183Y-93269104D01*
X96774313Y-93017147D01*
X96774392Y-92762944D01*
X96774421Y-92507546D01*
X96774398Y-92252006D01*
X96774324Y-91997375D01*
X96774199Y-91744706D01*
X96774023Y-91495051D01*
X96773796Y-91249462D01*
X96773519Y-91008991D01*
X96773190Y-90774690D01*
X96772811Y-90547612D01*
X96772382Y-90328807D01*
X96771901Y-90119330D01*
X96771371Y-89920231D01*
X96770789Y-89732563D01*
X96770157Y-89557378D01*
X96769475Y-89395728D01*
X96768743Y-89248665D01*
X96767960Y-89117241D01*
X96767127Y-89002509D01*
X96766243Y-88905520D01*
X96765310Y-88827326D01*
X96764326Y-88768981D01*
X96763293Y-88731535D01*
X96762654Y-88719607D01*
X96736514Y-88528976D01*
X96689602Y-88336488D01*
X96623211Y-88145081D01*
X96538634Y-87957692D01*
X96437160Y-87777260D01*
X96320083Y-87606723D01*
X96218685Y-87482375D01*
X96062046Y-87321113D01*
X95891799Y-87177797D01*
X95708300Y-87052637D01*
X95511905Y-86945837D01*
X95302973Y-86857607D01*
X95081859Y-86788151D01*
X94979333Y-86763267D01*
X94838222Y-86731983D01*
X91112889Y-86728371D01*
X90715439Y-86728022D01*
X90338913Y-86727766D01*
X89983409Y-86727603D01*
X89649022Y-86727533D01*
X89335850Y-86727556D01*
X89043991Y-86727671D01*
X88773540Y-86727878D01*
X88524596Y-86728177D01*
X88297255Y-86728568D01*
X88091614Y-86729050D01*
X87907770Y-86729624D01*
X87745820Y-86730288D01*
X87605862Y-86731044D01*
X87487992Y-86731891D01*
X87392308Y-86732828D01*
X87318905Y-86733856D01*
X87267882Y-86734974D01*
X87239336Y-86736182D01*
X87238615Y-86736235D01*
X87036006Y-86762961D01*
X86835069Y-86811133D01*
X86637818Y-86879625D01*
X86446266Y-86967309D01*
X86262426Y-87073056D01*
X86088311Y-87195740D01*
X85925935Y-87334231D01*
X85777310Y-87487403D01*
X85675567Y-87611911D01*
X85560146Y-87780461D01*
X85459938Y-87959769D01*
X85376255Y-88146517D01*
X85310408Y-88337386D01*
X85263707Y-88529057D01*
X85237463Y-88718211D01*
X85237167Y-88721808D01*
X85236098Y-88746396D01*
X85235080Y-88792512D01*
X85234113Y-88859110D01*
X85233197Y-88945138D01*
X85232332Y-89049550D01*
X85231517Y-89171295D01*
X85230753Y-89309326D01*
X85230040Y-89462593D01*
X85229378Y-89630049D01*
X85228767Y-89810643D01*
X85228206Y-90003328D01*
X85227697Y-90207055D01*
X85227238Y-90420774D01*
X85226830Y-90643438D01*
X85226473Y-90873997D01*
X85226166Y-91111403D01*
X85225911Y-91354607D01*
X85225706Y-91602561D01*
X85225552Y-91854215D01*
X85225449Y-92108521D01*
X85225397Y-92364430D01*
X85225395Y-92620893D01*
X85005601Y-92620893D01*
X85005600Y-92500000D01*
X85005604Y-92146141D01*
X85005618Y-91814142D01*
X85005646Y-91503286D01*
X85005691Y-91212856D01*
X85005757Y-90942135D01*
X85005848Y-90690405D01*
X85005967Y-90456949D01*
X85006118Y-90241050D01*
X85006304Y-90041990D01*
X85006530Y-89859052D01*
X85006798Y-89691519D01*
X85007112Y-89538674D01*
X85007476Y-89399799D01*
X85007894Y-89274176D01*
X85008369Y-89161090D01*
X85008904Y-89059822D01*
X85009504Y-88969654D01*
X85010171Y-88889871D01*
X85010910Y-88819754D01*
X85011725Y-88758586D01*
X85012618Y-88705650D01*
X85013593Y-88660228D01*
X85014654Y-88621604D01*
X85015805Y-88589060D01*
X85017049Y-88561878D01*
X85018390Y-88539342D01*
X85019831Y-88520734D01*
X85021376Y-88505336D01*
X85023029Y-88492432D01*
X85024792Y-88481305D01*
X85025843Y-88475511D01*
X85078170Y-88245138D01*
X85145508Y-88030720D01*
X85228669Y-87830658D01*
X85328467Y-87643351D01*
X85445714Y-87467202D01*
X85581223Y-87300610D01*
X85671644Y-87204565D01*
X85831524Y-87055138D01*
X85996223Y-86925301D01*
X86168172Y-86813773D01*
X86349802Y-86719268D01*
X86543542Y-86640504D01*
X86751822Y-86576198D01*
X86947289Y-86530904D01*
X87071467Y-86506024D01*
X90847600Y-86502586D01*
X91188758Y-86502308D01*
X91518490Y-86502106D01*
X91836199Y-86501978D01*
X92141289Y-86501923D01*
X92433164Y-86501940D01*
G37*
G36*
X88634978Y-95492195D02*
G01*
X88748693Y-95492705D01*
X88842584Y-95494017D01*
X88919399Y-95496479D01*
X88981887Y-95500434D01*
X89032795Y-95506230D01*
X89074874Y-95514211D01*
X89110871Y-95524724D01*
X89143535Y-95538114D01*
X89175615Y-95554727D01*
X89187855Y-95561741D01*
X89255491Y-95611538D01*
X89319280Y-95677719D01*
X89373709Y-95754149D01*
X89394198Y-95791285D01*
X89436305Y-95875378D01*
X89438011Y-96626089D01*
X89438251Y-96792005D01*
X89438156Y-96936187D01*
X89437716Y-97059480D01*
X89436917Y-97162724D01*
X89435749Y-97246764D01*
X89434200Y-97312440D01*
X89432257Y-97360597D01*
X89429909Y-97392076D01*
X89427144Y-97407720D01*
X89427017Y-97408047D01*
X89412038Y-97431849D01*
X89387498Y-97447811D01*
X89349686Y-97457158D01*
X89294892Y-97461116D01*
X89265292Y-97461467D01*
X89219662Y-97460989D01*
X89189945Y-97458236D01*
X89169478Y-97451226D01*
X89151598Y-97437978D01*
X89136204Y-97423084D01*
X89097822Y-97384702D01*
X89097822Y-96639275D01*
X89097822Y-95893848D01*
X89065035Y-95870502D01*
X89031887Y-95853856D01*
X88998170Y-95847635D01*
X88970889Y-95852199D01*
X88957919Y-95865012D01*
X88956474Y-95879770D01*
X88955133Y-95914695D01*
X88953929Y-95967375D01*
X88952893Y-96035399D01*
X88952059Y-96116357D01*
X88951458Y-96207836D01*
X88951125Y-96307427D01*
X88951067Y-96371262D01*
X88951029Y-96489166D01*
X88950857Y-96586554D01*
X88950463Y-96665486D01*
X88949757Y-96728024D01*
X88948653Y-96776229D01*
X88947061Y-96812162D01*
X88944893Y-96837885D01*
X88942062Y-96855458D01*
X88938478Y-96866943D01*
X88934053Y-96874401D01*
X88929297Y-96879358D01*
X88890764Y-96901222D01*
X88839862Y-96912891D01*
X88784336Y-96914298D01*
X88731929Y-96905377D01*
X88690385Y-96886060D01*
X88684658Y-96881473D01*
X88657400Y-96857511D01*
X88649999Y-96352333D01*
X88642597Y-95847156D01*
X88601434Y-95847156D01*
X88558456Y-95853420D01*
X88530254Y-95874252D01*
X88513326Y-95912710D01*
X88510170Y-95926847D01*
X88508073Y-95948806D01*
X88506107Y-95990672D01*
X88504325Y-96049770D01*
X88502778Y-96123429D01*
X88501519Y-96208976D01*
X88500599Y-96303740D01*
X88500070Y-96405048D01*
X88499975Y-96451111D01*
X88499665Y-96564670D01*
X88499007Y-96681565D01*
X88498049Y-96797535D01*
X88496837Y-96908320D01*
X88495420Y-97009657D01*
X88493843Y-97097287D01*
X88492154Y-97166948D01*
X88492013Y-97171714D01*
X88489499Y-97252385D01*
X88487228Y-97313472D01*
X88484825Y-97357957D01*
X88481913Y-97388826D01*
X88478115Y-97409063D01*
X88473056Y-97421651D01*
X88466359Y-97429576D01*
X88458799Y-97435069D01*
X88425298Y-97448906D01*
X88377574Y-97458682D01*
X88323780Y-97463328D01*
X88272073Y-97461771D01*
X88263446Y-97460726D01*
X88219786Y-97448393D01*
X88184915Y-97421502D01*
X88180074Y-97416244D01*
X88146499Y-97378668D01*
X88151757Y-96472741D01*
X88152707Y-96303716D01*
X88153549Y-96155835D01*
X88154410Y-96027663D01*
X88155415Y-95917769D01*
X88156689Y-95824717D01*
X88158359Y-95747076D01*
X88160549Y-95683411D01*
X88163386Y-95632290D01*
X88166995Y-95592280D01*
X88171501Y-95561946D01*
X88177031Y-95539855D01*
X88183710Y-95524576D01*
X88191663Y-95514673D01*
X88201016Y-95508713D01*
X88211895Y-95505264D01*
X88224425Y-95502893D01*
X88236959Y-95500550D01*
X88258602Y-95498340D01*
X88299685Y-95496369D01*
X88357069Y-95494701D01*
X88427617Y-95493403D01*
X88508190Y-95492540D01*
X88595650Y-95492179D01*
X88634978Y-95492195D01*
G37*
G36*
X90891774Y-95494418D02*
G01*
X90940483Y-95503536D01*
X90972113Y-95519708D01*
X90989075Y-95543732D01*
X90990051Y-95546576D01*
X90991734Y-95562422D01*
X90993592Y-95598438D01*
X90995561Y-95652220D01*
X90997574Y-95721360D01*
X90999565Y-95803454D01*
X91001471Y-95896095D01*
X91003225Y-95996877D01*
X91004349Y-96072524D01*
X91011289Y-96575289D01*
X91090311Y-96578829D01*
X91163914Y-96579658D01*
X91219692Y-96574088D01*
X91261696Y-96561307D01*
X91293977Y-96540501D01*
X91297617Y-96537215D01*
X91311911Y-96522346D01*
X91322760Y-96505758D01*
X91330909Y-96483906D01*
X91337102Y-96453240D01*
X91342081Y-96410214D01*
X91346592Y-96351279D01*
X91350737Y-96283912D01*
X91354604Y-96227660D01*
X91359148Y-96188917D01*
X91365475Y-96162618D01*
X91374688Y-96143698D01*
X91383978Y-96131512D01*
X91397015Y-96117704D01*
X91410860Y-96108877D01*
X91430626Y-96103919D01*
X91461429Y-96101720D01*
X91508383Y-96101167D01*
X91523642Y-96101156D01*
X91576340Y-96101608D01*
X91611612Y-96103599D01*
X91634602Y-96108080D01*
X91650454Y-96116002D01*
X91662909Y-96126898D01*
X91672613Y-96137663D01*
X91679477Y-96149904D01*
X91683958Y-96167411D01*
X91686513Y-96193974D01*
X91687600Y-96233381D01*
X91687676Y-96289422D01*
X91687444Y-96330098D01*
X91686077Y-96413684D01*
X91682556Y-96479562D01*
X91675877Y-96532570D01*
X91665038Y-96577548D01*
X91649034Y-96619337D01*
X91626864Y-96662774D01*
X91613746Y-96685616D01*
X91568771Y-96762077D01*
X91607911Y-96826727D01*
X91636699Y-96879109D01*
X91657862Y-96930678D01*
X91672463Y-96986378D01*
X91681568Y-97051151D01*
X91686240Y-97129942D01*
X91687443Y-97196178D01*
X91687297Y-97258267D01*
X91686098Y-97314507D01*
X91684030Y-97359990D01*
X91681273Y-97389809D01*
X91679992Y-97396350D01*
X91663061Y-97427226D01*
X91631280Y-97447639D01*
X91582649Y-97458326D01*
X91515168Y-97460022D01*
X91507621Y-97459739D01*
X91454831Y-97455527D01*
X91414691Y-97446084D01*
X91385508Y-97428677D01*
X91365588Y-97400573D01*
X91353239Y-97359039D01*
X91346767Y-97301342D01*
X91344481Y-97224749D01*
X91344356Y-97196178D01*
X91342714Y-97121366D01*
X91337018Y-97065270D01*
X91325963Y-97024194D01*
X91308247Y-96994444D01*
X91282563Y-96972326D01*
X91261091Y-96960347D01*
X91230073Y-96950417D01*
X91186511Y-96942869D01*
X91137156Y-96938111D01*
X91088760Y-96936549D01*
X91048071Y-96938589D01*
X91021841Y-96944639D01*
X91019756Y-96945798D01*
X91013090Y-96958507D01*
X91008638Y-96987987D01*
X91006205Y-97036264D01*
X91005577Y-97092422D01*
X91004890Y-97157776D01*
X91003089Y-97226072D01*
X91000469Y-97287985D01*
X90998191Y-97324058D01*
X90993704Y-97371799D01*
X90988226Y-97402314D01*
X90980160Y-97420947D01*
X90967909Y-97433041D01*
X90965017Y-97435014D01*
X90931442Y-97448891D01*
X90883649Y-97458689D01*
X90829794Y-97463334D01*
X90778036Y-97461754D01*
X90769580Y-97460726D01*
X90725133Y-97448009D01*
X90690117Y-97420569D01*
X90687553Y-97417750D01*
X90655324Y-97381679D01*
X90662486Y-96464840D01*
X90669649Y-95548000D01*
X90696792Y-95519778D01*
X90711818Y-95506109D01*
X90728517Y-95497732D01*
X90752622Y-95493369D01*
X90789863Y-95491746D01*
X90823570Y-95491556D01*
X90891774Y-95494418D01*
G37*
G36*
X90024641Y-96092991D02*
G01*
X90111348Y-96102952D01*
X90183535Y-96118477D01*
X90213885Y-96128667D01*
X90309626Y-96178457D01*
X90393874Y-96246462D01*
X90463833Y-96330060D01*
X90505536Y-96402022D01*
X90540198Y-96473689D01*
X90547773Y-96937822D01*
X90555349Y-97401955D01*
X90519986Y-97431711D01*
X90484623Y-97461467D01*
X90211734Y-97460569D01*
X90095576Y-97459379D01*
X90001451Y-97456648D01*
X89929509Y-97452384D01*
X89879900Y-97446594D01*
X89870003Y-97444694D01*
X89771152Y-97413978D01*
X89689121Y-97368806D01*
X89624428Y-97309745D01*
X89577591Y-97237363D01*
X89549126Y-97152228D01*
X89540264Y-97082724D01*
X89540049Y-97041820D01*
X89853825Y-97041820D01*
X89863103Y-97086978D01*
X89884853Y-97124030D01*
X89914652Y-97145473D01*
X89935055Y-97149332D01*
X89972650Y-97152597D01*
X90022054Y-97154920D01*
X90077133Y-97155951D01*
X90215422Y-97156667D01*
X90215422Y-97038133D01*
X90215422Y-96919600D01*
X90058146Y-96919600D01*
X89900871Y-96919600D01*
X89877524Y-96952387D01*
X89858228Y-96994857D01*
X89853825Y-97041820D01*
X89540049Y-97041820D01*
X89539847Y-97003466D01*
X89549444Y-96939155D01*
X89571341Y-96883528D01*
X89607824Y-96830317D01*
X89648634Y-96785695D01*
X89705087Y-96734520D01*
X89763318Y-96694779D01*
X89827478Y-96664905D01*
X89901718Y-96643332D01*
X89990192Y-96628492D01*
X90089624Y-96619311D01*
X90206537Y-96611407D01*
X90200230Y-96572543D01*
X90184158Y-96526572D01*
X90154717Y-96484969D01*
X90117821Y-96455110D01*
X90099836Y-96447309D01*
X90075786Y-96442883D01*
X90034157Y-96438230D01*
X89979939Y-96433792D01*
X89918121Y-96430010D01*
X89888044Y-96428592D01*
X89825324Y-96425167D01*
X89768785Y-96420670D01*
X89723116Y-96415580D01*
X89693009Y-96410376D01*
X89685319Y-96407911D01*
X89661172Y-96384495D01*
X89646559Y-96341602D01*
X89641384Y-96278818D01*
X89643116Y-96225909D01*
X89648020Y-96178683D01*
X89657802Y-96144771D01*
X89675880Y-96121684D01*
X89705673Y-96106932D01*
X89750600Y-96098023D01*
X89814080Y-96092468D01*
X89827441Y-96091650D01*
X89928357Y-96089065D01*
X90024641Y-96092991D01*
G37*
G36*
X92540595Y-96092461D02*
G01*
X92581788Y-96095356D01*
X92599995Y-96098497D01*
X92631370Y-96118045D01*
X92654309Y-96153142D01*
X92668396Y-96198230D01*
X92673214Y-96247753D01*
X92668345Y-96296151D01*
X92653373Y-96337870D01*
X92627881Y-96367350D01*
X92620502Y-96371806D01*
X92590956Y-96380757D01*
X92539909Y-96388059D01*
X92466943Y-96393764D01*
X92426184Y-96395854D01*
X92341217Y-96401093D01*
X92275977Y-96409329D01*
X92227654Y-96422204D01*
X92193438Y-96441359D01*
X92170519Y-96468435D01*
X92156087Y-96505075D01*
X92147332Y-96552921D01*
X92146562Y-96559221D01*
X92138899Y-96624207D01*
X92260015Y-96627970D01*
X92314983Y-96630134D01*
X92352396Y-96633240D01*
X92377274Y-96638310D01*
X92394641Y-96646367D01*
X92409448Y-96658364D01*
X92433834Y-96695210D01*
X92446590Y-96744027D01*
X92447690Y-96797421D01*
X92437106Y-96847992D01*
X92414811Y-96888346D01*
X92410326Y-96893189D01*
X92387942Y-96910026D01*
X92359351Y-96917958D01*
X92324135Y-96919698D01*
X92274399Y-96921293D01*
X92221384Y-96925173D01*
X92205089Y-96926915D01*
X92170636Y-96931898D01*
X92153031Y-96938674D01*
X92146643Y-96951111D01*
X92145822Y-96967613D01*
X92154941Y-97011222D01*
X92178916Y-97057130D01*
X92212675Y-97097026D01*
X92235516Y-97114618D01*
X92252621Y-97123887D01*
X92272145Y-97130790D01*
X92298000Y-97135857D01*
X92334097Y-97139621D01*
X92384349Y-97142614D01*
X92452667Y-97145366D01*
X92464926Y-97145799D01*
X92535061Y-97148432D01*
X92586246Y-97151055D01*
X92622105Y-97154201D01*
X92646259Y-97158403D01*
X92662330Y-97164196D01*
X92673942Y-97172112D01*
X92679603Y-97177427D01*
X92693104Y-97194402D01*
X92700739Y-97215809D01*
X92704050Y-97248213D01*
X92704622Y-97283978D01*
X92703651Y-97340082D01*
X92698960Y-97382946D01*
X92687883Y-97414332D01*
X92667752Y-97436001D01*
X92635902Y-97449716D01*
X92589665Y-97457238D01*
X92526375Y-97460328D01*
X92443366Y-97460747D01*
X92437072Y-97460724D01*
X92338157Y-97458898D01*
X92261377Y-97454298D01*
X92206455Y-97446904D01*
X92192159Y-97443602D01*
X92093593Y-97406311D01*
X92004932Y-97351388D01*
X91929002Y-97281501D01*
X91868629Y-97199321D01*
X91826643Y-97107517D01*
X91822551Y-97094578D01*
X91815756Y-97068625D01*
X91810639Y-97039842D01*
X91806991Y-97004734D01*
X91804599Y-96959805D01*
X91803251Y-96901561D01*
X91802738Y-96826507D01*
X91802751Y-96767200D01*
X91803042Y-96683063D01*
X91803735Y-96618006D01*
X91805113Y-96568530D01*
X91807463Y-96531136D01*
X91811069Y-96502326D01*
X91816214Y-96478603D01*
X91823184Y-96456467D01*
X91829387Y-96439822D01*
X91879125Y-96338839D01*
X91943720Y-96253825D01*
X92021942Y-96185864D01*
X92112562Y-96136041D01*
X92207436Y-96106819D01*
X92245930Y-96101226D01*
X92298509Y-96096759D01*
X92359719Y-96093534D01*
X92424106Y-96091665D01*
X92486216Y-96091269D01*
X92540595Y-96092461D01*
G37*
G36*
X93783173Y-96112936D02*
G01*
X93796815Y-96130034D01*
X93804977Y-96149590D01*
X93809056Y-96177803D01*
X93810450Y-96220869D01*
X93810541Y-96234291D01*
X93810236Y-96288055D01*
X93807216Y-96330503D01*
X93799087Y-96363054D01*
X93783453Y-96387131D01*
X93757918Y-96404153D01*
X93720088Y-96415542D01*
X93667565Y-96422719D01*
X93597957Y-96427104D01*
X93508865Y-96430118D01*
X93479007Y-96430940D01*
X93385352Y-96434115D01*
X93313071Y-96438027D01*
X93260969Y-96442772D01*
X93227850Y-96448448D01*
X93216534Y-96452371D01*
X93183299Y-96479354D01*
X93156056Y-96519283D01*
X93140721Y-96562526D01*
X93139244Y-96578228D01*
X93139244Y-96612370D01*
X93435578Y-96617182D01*
X93534832Y-96619110D01*
X93613893Y-96621536D01*
X93675145Y-96624784D01*
X93720971Y-96629177D01*
X93753756Y-96635042D01*
X93775883Y-96642703D01*
X93789736Y-96652484D01*
X93797699Y-96664711D01*
X93798471Y-96666613D01*
X93804147Y-96693367D01*
X93808471Y-96736955D01*
X93811306Y-96791663D01*
X93812517Y-96851779D01*
X93811965Y-96911590D01*
X93809515Y-96965386D01*
X93806397Y-96997981D01*
X93783752Y-97103223D01*
X93743770Y-97195882D01*
X93684680Y-97279732D01*
X93662605Y-97304108D01*
X93584771Y-97370935D01*
X93496869Y-97420227D01*
X93403335Y-97449515D01*
X93400170Y-97450118D01*
X93370064Y-97453614D01*
X93321970Y-97456672D01*
X93260474Y-97459118D01*
X93190164Y-97460772D01*
X93115628Y-97461458D01*
X93106349Y-97461467D01*
X93025631Y-97461227D01*
X92964389Y-97460360D01*
X92919521Y-97458646D01*
X92887930Y-97455866D01*
X92866514Y-97451798D01*
X92852176Y-97446224D01*
X92847053Y-97443058D01*
X92816319Y-97410827D01*
X92798796Y-97365172D01*
X92793809Y-97303723D01*
X92796026Y-97263835D01*
X92801629Y-97216805D01*
X92809435Y-97185913D01*
X92821508Y-97164723D01*
X92831025Y-97154576D01*
X92840865Y-97146169D01*
X92852206Y-97139723D01*
X92868132Y-97134887D01*
X92891725Y-97131308D01*
X92926067Y-97128635D01*
X92974242Y-97126518D01*
X93039332Y-97124605D01*
X93108918Y-97122908D01*
X93208804Y-97119901D01*
X93286599Y-97116105D01*
X93342170Y-97111531D01*
X93375378Y-97106188D01*
X93383560Y-97103228D01*
X93420491Y-97073895D01*
X93449477Y-97035651D01*
X93465216Y-96996191D01*
X93466622Y-96982612D01*
X93466622Y-96945756D01*
X93173005Y-96938032D01*
X93086708Y-96935321D01*
X93009637Y-96932037D01*
X92944663Y-96928362D01*
X92894657Y-96924472D01*
X92862492Y-96920547D01*
X92852517Y-96918065D01*
X92830786Y-96903495D01*
X92815378Y-96880163D01*
X92804638Y-96843857D01*
X92796909Y-96790366D01*
X92795085Y-96772015D01*
X92791784Y-96642985D01*
X92806294Y-96523868D01*
X92837993Y-96416005D01*
X92886262Y-96320737D01*
X92950481Y-96239403D01*
X93030028Y-96173344D01*
X93087367Y-96140355D01*
X93124751Y-96123782D01*
X93163998Y-96110759D01*
X93208370Y-96100884D01*
X93261126Y-96093758D01*
X93325528Y-96088981D01*
X93404837Y-96086153D01*
X93502312Y-96084873D01*
X93540854Y-96084718D01*
X93756198Y-96084222D01*
X93783173Y-96112936D01*
G37*
G36*
X93308946Y-93425968D02*
G01*
X93349627Y-93427645D01*
X93380620Y-93431980D01*
X93408372Y-93440233D01*
X93439326Y-93453664D01*
X93468841Y-93468051D01*
X93557399Y-93523978D01*
X93634135Y-93596973D01*
X93694906Y-93682877D01*
X93708381Y-93708441D01*
X93725993Y-93749544D01*
X93738301Y-93792699D01*
X93747107Y-93845490D01*
X93752192Y-93892641D01*
X93756762Y-93963372D01*
X93754640Y-94015482D01*
X93744749Y-94052217D01*
X93726009Y-94076823D01*
X93697343Y-94092547D01*
X93684435Y-94096646D01*
X93631632Y-94105842D01*
X93574644Y-94106983D01*
X93520119Y-94100792D01*
X93474710Y-94087993D01*
X93446429Y-94070734D01*
X93436742Y-94051339D01*
X93426644Y-94014729D01*
X93417513Y-93966195D01*
X93415313Y-93951161D01*
X93407128Y-93902268D01*
X93397327Y-93859377D01*
X93387568Y-93829315D01*
X93383962Y-93822278D01*
X93350203Y-93789689D01*
X93303532Y-93768843D01*
X93250796Y-93760551D01*
X93198839Y-93765623D01*
X93154504Y-93784872D01*
X93143448Y-93793778D01*
X93106682Y-93837105D01*
X93087895Y-93884604D01*
X93084523Y-93943171D01*
X93085014Y-93951008D01*
X93087499Y-93971820D01*
X93092692Y-93994758D01*
X93101671Y-94022339D01*
X93115510Y-94057078D01*
X93135286Y-94101495D01*
X93162074Y-94158104D01*
X93196951Y-94229423D01*
X93240991Y-94317969D01*
X93247106Y-94330198D01*
X93404533Y-94644889D01*
X93412741Y-94532000D01*
X93418926Y-94455365D01*
X93426359Y-94398375D01*
X93437420Y-94358122D01*
X93454492Y-94331703D01*
X93479956Y-94316211D01*
X93516196Y-94308741D01*
X93565592Y-94306388D01*
X93597842Y-94306222D01*
X93647992Y-94306740D01*
X93681293Y-94309093D01*
X93703466Y-94314483D01*
X93720230Y-94324110D01*
X93732276Y-94334444D01*
X93762713Y-94362667D01*
X93757317Y-94684400D01*
X93755689Y-94778248D01*
X93754122Y-94852691D01*
X93752331Y-94910898D01*
X93750031Y-94956041D01*
X93746934Y-94991289D01*
X93742755Y-95019813D01*
X93737209Y-95044782D01*
X93730009Y-95069366D01*
X93720868Y-95096736D01*
X93719856Y-95099690D01*
X93687792Y-95193247D01*
X93736379Y-95289909D01*
X93760264Y-95339982D01*
X93772979Y-95373530D01*
X93775383Y-95393138D01*
X93772578Y-95398960D01*
X93755608Y-95404719D01*
X93721638Y-95408742D01*
X93676175Y-95411048D01*
X93624728Y-95411655D01*
X93572806Y-95410580D01*
X93525917Y-95407843D01*
X93489570Y-95403460D01*
X93470132Y-95397966D01*
X93450875Y-95391178D01*
X93425158Y-95391202D01*
X93386332Y-95398252D01*
X93374176Y-95401048D01*
X93289024Y-95414245D01*
X93203490Y-95415234D01*
X93134929Y-95405621D01*
X93050454Y-95375070D01*
X92968946Y-95325446D01*
X92894536Y-95260225D01*
X92831357Y-95182882D01*
X92793556Y-95118460D01*
X92772130Y-95072761D01*
X92758847Y-95035762D01*
X92751410Y-94998195D01*
X92747521Y-94950792D01*
X92746511Y-94928638D01*
X92749082Y-94832800D01*
X92766439Y-94748751D01*
X92800360Y-94669828D01*
X92808627Y-94656178D01*
X93082723Y-94656178D01*
X93085647Y-94814222D01*
X93087845Y-94887325D01*
X93092182Y-94941606D01*
X93099919Y-94980803D01*
X93112319Y-95008654D01*
X93130643Y-95028897D01*
X93156153Y-95045271D01*
X93165193Y-95049887D01*
X93192970Y-95059631D01*
X93225857Y-95065910D01*
X93256839Y-95068148D01*
X93278900Y-95065771D01*
X93285402Y-95059756D01*
X93280299Y-95047533D01*
X93266427Y-95018447D01*
X93245367Y-94975699D01*
X93218699Y-94922493D01*
X93188003Y-94862030D01*
X93183763Y-94853733D01*
X93082723Y-94656178D01*
X92808627Y-94656178D01*
X92827521Y-94624983D01*
X92869145Y-94562274D01*
X92823655Y-94491892D01*
X92798997Y-94451914D01*
X92780741Y-94416191D01*
X92767683Y-94379857D01*
X92758615Y-94338046D01*
X92752330Y-94285891D01*
X92747621Y-94218527D01*
X92745422Y-94176400D01*
X92741442Y-94053649D01*
X92742716Y-93950576D01*
X92749458Y-93864852D01*
X92761877Y-93794147D01*
X92780186Y-93736131D01*
X92786801Y-93720975D01*
X92838048Y-93635881D01*
X92906468Y-93559035D01*
X92986850Y-93495740D01*
X93035426Y-93468051D01*
X93073094Y-93449861D01*
X93102679Y-93437802D01*
X93130625Y-93430616D01*
X93163378Y-93427042D01*
X93207381Y-93425820D01*
X93252133Y-93425689D01*
X93308946Y-93425968D01*
G37*
G36*
X89025155Y-93465958D02*
G01*
X89042072Y-93485205D01*
X89051772Y-93503417D01*
X89056004Y-93527429D01*
X89056519Y-93564079D01*
X89056004Y-93586484D01*
X89053940Y-93632616D01*
X89048497Y-93666433D01*
X89036531Y-93690117D01*
X89014898Y-93705849D01*
X88980453Y-93715813D01*
X88930051Y-93722190D01*
X88860547Y-93727161D01*
X88852548Y-93727657D01*
X88771030Y-93732822D01*
X88708803Y-93737371D01*
X88662616Y-93741976D01*
X88629219Y-93747312D01*
X88605362Y-93754052D01*
X88587794Y-93762868D01*
X88573264Y-93774433D01*
X88559542Y-93788340D01*
X88533983Y-93822045D01*
X88514773Y-93858904D01*
X88511299Y-93869119D01*
X88507109Y-93895356D01*
X88503816Y-93938101D01*
X88501405Y-93993575D01*
X88499862Y-94057997D01*
X88499171Y-94127589D01*
X88499317Y-94198572D01*
X88500284Y-94267166D01*
X88502057Y-94329593D01*
X88504622Y-94382072D01*
X88507962Y-94420826D01*
X88512062Y-94442073D01*
X88513622Y-94444634D01*
X88529952Y-94449479D01*
X88563839Y-94454188D01*
X88610270Y-94458211D01*
X88662035Y-94460917D01*
X88719238Y-94463254D01*
X88758438Y-94465970D01*
X88784201Y-94470083D01*
X88801092Y-94476608D01*
X88813678Y-94486562D01*
X88822901Y-94496730D01*
X88837135Y-94516614D01*
X88845225Y-94539414D01*
X88848788Y-94572087D01*
X88849467Y-94611022D01*
X88848375Y-94657108D01*
X88844078Y-94687441D01*
X88835045Y-94708781D01*
X88824067Y-94723150D01*
X88812043Y-94735211D01*
X88798132Y-94743662D01*
X88777934Y-94749459D01*
X88747051Y-94753557D01*
X88701086Y-94756911D01*
X88657556Y-94759331D01*
X88599332Y-94763339D01*
X88552419Y-94768401D01*
X88520670Y-94774005D01*
X88508151Y-94779218D01*
X88505824Y-94793577D01*
X88503734Y-94827242D01*
X88501981Y-94876941D01*
X88500659Y-94939402D01*
X88499869Y-95011355D01*
X88499684Y-95063288D01*
X88499511Y-95334931D01*
X88467309Y-95365783D01*
X88445786Y-95383135D01*
X88421470Y-95393420D01*
X88386787Y-95399082D01*
X88357242Y-95401314D01*
X88311082Y-95402323D01*
X88268311Y-95400295D01*
X88241328Y-95396300D01*
X88208374Y-95383310D01*
X88182275Y-95365603D01*
X88182132Y-95365460D01*
X88177868Y-95360383D01*
X88174216Y-95353210D01*
X88171130Y-95342264D01*
X88168560Y-95325871D01*
X88166458Y-95302355D01*
X88164776Y-95270042D01*
X88163466Y-95227255D01*
X88162478Y-95172320D01*
X88161765Y-95103560D01*
X88161278Y-95019302D01*
X88160970Y-94917870D01*
X88160791Y-94797588D01*
X88160693Y-94656780D01*
X88160677Y-94622042D01*
X88160802Y-94464276D01*
X88161306Y-94321646D01*
X88162176Y-94195183D01*
X88163396Y-94085917D01*
X88164951Y-93994878D01*
X88166826Y-93923095D01*
X88169007Y-93871599D01*
X88171477Y-93841420D01*
X88172066Y-93837707D01*
X88200095Y-93747142D01*
X88247488Y-93661578D01*
X88311048Y-93585121D01*
X88387578Y-93521875D01*
X88443099Y-93489630D01*
X88494846Y-93468360D01*
X88554288Y-93452407D01*
X88624817Y-93441288D01*
X88709820Y-93434518D01*
X88812689Y-93431612D01*
X88850177Y-93431419D01*
X88991998Y-93431333D01*
X89025155Y-93465958D01*
G37*
G36*
X89443044Y-94027438D02*
G01*
X89502152Y-94028540D01*
X89546794Y-94030770D01*
X89581023Y-94034464D01*
X89608894Y-94039954D01*
X89634458Y-94047574D01*
X89640887Y-94049824D01*
X89737763Y-94094798D01*
X89823425Y-94155185D01*
X89895121Y-94228192D01*
X89950099Y-94311029D01*
X89985038Y-94398819D01*
X89989947Y-94420773D01*
X89994090Y-94449313D01*
X89997577Y-94486696D01*
X90000518Y-94535175D01*
X90003021Y-94597007D01*
X90005195Y-94674446D01*
X90007150Y-94769747D01*
X90008995Y-94885166D01*
X90009161Y-94896753D01*
X90015321Y-95329239D01*
X89977690Y-95368064D01*
X89940060Y-95406889D01*
X89832208Y-95404857D01*
X89783599Y-95403736D01*
X89719004Y-95401951D01*
X89644999Y-95399700D01*
X89568158Y-95397180D01*
X89521156Y-95395539D01*
X89420491Y-95390418D01*
X89338701Y-95382229D01*
X89272156Y-95369760D01*
X89217229Y-95351800D01*
X89170292Y-95327137D01*
X89127718Y-95294560D01*
X89085878Y-95252857D01*
X89082376Y-95249004D01*
X89040865Y-95196782D01*
X89013414Y-95144877D01*
X88997691Y-95086658D01*
X88991362Y-95015494D01*
X88990941Y-94989200D01*
X88991093Y-94968533D01*
X89302369Y-94968533D01*
X89307720Y-95012292D01*
X89313632Y-95026631D01*
X89328103Y-95050964D01*
X89345226Y-95068232D01*
X89368931Y-95079630D01*
X89403146Y-95086351D01*
X89451800Y-95089589D01*
X89518821Y-95090538D01*
X89523978Y-95090549D01*
X89673556Y-95090800D01*
X89673556Y-94972267D01*
X89673556Y-94853733D01*
X89533179Y-94853733D01*
X89476490Y-94854584D01*
X89425790Y-94856901D01*
X89386599Y-94860330D01*
X89364437Y-94864518D01*
X89364387Y-94864537D01*
X89332935Y-94887525D01*
X89311518Y-94924567D01*
X89302369Y-94968533D01*
X88991093Y-94968533D01*
X88991321Y-94937481D01*
X88993943Y-94900871D01*
X89000399Y-94871907D01*
X89012282Y-94843129D01*
X89028950Y-94811193D01*
X89078802Y-94736640D01*
X89140842Y-94675851D01*
X89216720Y-94627998D01*
X89308085Y-94592254D01*
X89416589Y-94567791D01*
X89542180Y-94553896D01*
X89598211Y-94549813D01*
X89634660Y-94544897D01*
X89654468Y-94536727D01*
X89660575Y-94522882D01*
X89655920Y-94500940D01*
X89644049Y-94469994D01*
X89630038Y-94439347D01*
X89613610Y-94416002D01*
X89591538Y-94398781D01*
X89560594Y-94386511D01*
X89517548Y-94378015D01*
X89459174Y-94372117D01*
X89382241Y-94367643D01*
X89360170Y-94366629D01*
X89294597Y-94363409D01*
X89235948Y-94359967D01*
X89188339Y-94356588D01*
X89155890Y-94353559D01*
X89143627Y-94351584D01*
X89120929Y-94333419D01*
X89104244Y-94298717D01*
X89093790Y-94252765D01*
X89089784Y-94200846D01*
X89092443Y-94148246D01*
X89101983Y-94100250D01*
X89118622Y-94062142D01*
X89131124Y-94047089D01*
X89141218Y-94039995D01*
X89155727Y-94034785D01*
X89177945Y-94031177D01*
X89211160Y-94028893D01*
X89258666Y-94027652D01*
X89323752Y-94027173D01*
X89365416Y-94027131D01*
X89443044Y-94027438D01*
G37*
G36*
X90353829Y-94030385D02*
G01*
X90383925Y-94033788D01*
X90405249Y-94041628D01*
X90424695Y-94055678D01*
X90431106Y-94061291D01*
X90444946Y-94074203D01*
X90454867Y-94086847D01*
X90461843Y-94103308D01*
X90466846Y-94127666D01*
X90470849Y-94164004D01*
X90474826Y-94216405D01*
X90477522Y-94256024D01*
X90479943Y-94305929D01*
X90481888Y-94374546D01*
X90483318Y-94458012D01*
X90484195Y-94552467D01*
X90484481Y-94654048D01*
X90484140Y-94758893D01*
X90483322Y-94848089D01*
X90481755Y-94967003D01*
X90480009Y-95065446D01*
X90477795Y-95145522D01*
X90474825Y-95209338D01*
X90470812Y-95258999D01*
X90465466Y-95296612D01*
X90458501Y-95324281D01*
X90449629Y-95344113D01*
X90438560Y-95358213D01*
X90425007Y-95368687D01*
X90411045Y-95376451D01*
X90364887Y-95392053D01*
X90309287Y-95399982D01*
X90256493Y-95398829D01*
X90240892Y-95396007D01*
X90209268Y-95385101D01*
X90185521Y-95371640D01*
X90174930Y-95362124D01*
X90165978Y-95351331D01*
X90158521Y-95337387D01*
X90152416Y-95318416D01*
X90147520Y-95292544D01*
X90143689Y-95257895D01*
X90140781Y-95212594D01*
X90138651Y-95154768D01*
X90137156Y-95082540D01*
X90136154Y-94994035D01*
X90135500Y-94887380D01*
X90135051Y-94760699D01*
X90134912Y-94709690D01*
X90134633Y-94579521D01*
X90134572Y-94470016D01*
X90134780Y-94379265D01*
X90135313Y-94305356D01*
X90136221Y-94246377D01*
X90137558Y-94200416D01*
X90139377Y-94165562D01*
X90141731Y-94139903D01*
X90144672Y-94121526D01*
X90148254Y-94108521D01*
X90151773Y-94100395D01*
X90173106Y-94067133D01*
X90199170Y-94045875D01*
X90235199Y-94034252D01*
X90286430Y-94029893D01*
X90308067Y-94029644D01*
X90353829Y-94030385D01*
G37*
G36*
X92556224Y-94015117D02*
G01*
X92588090Y-94050781D01*
X92603409Y-94069480D01*
X92612833Y-94087687D01*
X92617783Y-94111488D01*
X92619680Y-94146970D01*
X92619956Y-94187237D01*
X92619279Y-94237356D01*
X92616485Y-94270776D01*
X92610421Y-94293357D01*
X92599937Y-94310958D01*
X92594315Y-94317839D01*
X92568674Y-94347649D01*
X92314915Y-94355768D01*
X92228471Y-94358812D01*
X92161614Y-94361911D01*
X92111355Y-94365348D01*
X92074705Y-94369405D01*
X92048674Y-94374367D01*
X92030272Y-94380516D01*
X92024577Y-94383265D01*
X91992423Y-94410030D01*
X91964469Y-94449781D01*
X91946390Y-94493140D01*
X91942622Y-94518706D01*
X91942622Y-94545822D01*
X92253819Y-94551266D01*
X92351509Y-94552964D01*
X92429089Y-94554808D01*
X92489020Y-94557617D01*
X92533760Y-94562210D01*
X92565767Y-94569409D01*
X92587501Y-94580032D01*
X92601420Y-94594900D01*
X92609983Y-94614833D01*
X92615650Y-94640650D01*
X92620878Y-94673172D01*
X92620962Y-94673691D01*
X92626530Y-94735050D01*
X92626727Y-94809526D01*
X92621944Y-94888410D01*
X92612571Y-94962987D01*
X92606526Y-94994844D01*
X92574626Y-95090828D01*
X92523825Y-95178963D01*
X92457079Y-95256011D01*
X92377345Y-95318736D01*
X92287576Y-95363898D01*
X92261512Y-95372812D01*
X92217457Y-95382370D01*
X92155766Y-95390186D01*
X92081331Y-95396023D01*
X91999045Y-95399647D01*
X91913798Y-95400820D01*
X91830483Y-95399308D01*
X91773289Y-95396345D01*
X91724576Y-95392235D01*
X91683152Y-95387385D01*
X91655084Y-95382569D01*
X91647818Y-95380352D01*
X91626795Y-95359406D01*
X91610303Y-95322127D01*
X91599396Y-95274490D01*
X91595126Y-95222472D01*
X91598546Y-95172048D01*
X91605789Y-95141752D01*
X91614674Y-95119097D01*
X91626143Y-95101371D01*
X91642942Y-95087871D01*
X91667816Y-95077889D01*
X91703510Y-95070720D01*
X91752770Y-95065659D01*
X91818341Y-95061999D01*
X91902968Y-95059035D01*
X91930708Y-95058226D01*
X92011244Y-95055828D01*
X92072418Y-95053572D01*
X92117442Y-95051071D01*
X92149526Y-95047943D01*
X92171879Y-95043802D01*
X92187712Y-95038263D01*
X92200236Y-95030942D01*
X92208202Y-95024984D01*
X92241379Y-94991154D01*
X92267049Y-94950552D01*
X92280118Y-94911693D01*
X92280816Y-94903522D01*
X92280323Y-94896420D01*
X92276840Y-94890828D01*
X92267839Y-94886480D01*
X92250792Y-94883116D01*
X92223172Y-94880470D01*
X92182451Y-94878280D01*
X92126101Y-94876283D01*
X92051593Y-94874214D01*
X91982643Y-94872468D01*
X91888242Y-94869641D01*
X91806838Y-94866259D01*
X91740591Y-94862456D01*
X91691661Y-94858365D01*
X91662210Y-94854119D01*
X91656028Y-94852259D01*
X91634307Y-94837871D01*
X91618565Y-94815366D01*
X91608034Y-94781612D01*
X91601949Y-94733476D01*
X91599544Y-94667825D01*
X91599528Y-94621153D01*
X91603512Y-94520888D01*
X91614534Y-94437244D01*
X91633924Y-94364995D01*
X91663011Y-94298918D01*
X91695094Y-94245579D01*
X91758273Y-94167061D01*
X91832479Y-94105839D01*
X91920737Y-94059817D01*
X92001905Y-94032956D01*
X92032354Y-94026198D01*
X92068200Y-94021208D01*
X92113039Y-94017774D01*
X92170469Y-94015686D01*
X92244087Y-94014733D01*
X92314334Y-94014641D01*
X92556224Y-94015117D01*
G37*
G36*
X90803101Y-94014326D02*
G01*
X90855568Y-94022636D01*
X90899530Y-94037722D01*
X90928917Y-94058973D01*
X90932657Y-94064143D01*
X90934487Y-94077761D01*
X90936527Y-94111454D01*
X90938697Y-94162723D01*
X90940915Y-94229068D01*
X90943099Y-94307989D01*
X90945168Y-94396985D01*
X90947041Y-94493558D01*
X90947484Y-94519491D01*
X90954844Y-94962758D01*
X90986104Y-95003730D01*
X91008234Y-95027971D01*
X91034587Y-95045496D01*
X91069071Y-95057348D01*
X91115594Y-95064568D01*
X91178065Y-95068199D01*
X91231422Y-95069148D01*
X91311779Y-95070376D01*
X91372759Y-95073007D01*
X91417550Y-95077683D01*
X91449341Y-95085042D01*
X91471319Y-95095724D01*
X91486672Y-95110368D01*
X91494357Y-95121880D01*
X91508695Y-95161199D01*
X91516433Y-95212951D01*
X91517133Y-95267847D01*
X91510357Y-95316600D01*
X91504415Y-95334869D01*
X91485715Y-95363462D01*
X91461604Y-95382822D01*
X91461550Y-95382847D01*
X91442448Y-95386456D01*
X91405277Y-95389445D01*
X91354542Y-95391767D01*
X91294744Y-95393377D01*
X91230387Y-95394228D01*
X91165972Y-95394274D01*
X91106003Y-95393468D01*
X91054983Y-95391765D01*
X91017414Y-95389118D01*
X91005644Y-95387528D01*
X90952206Y-95371157D01*
X90891261Y-95341558D01*
X90829768Y-95302840D01*
X90774683Y-95259111D01*
X90753677Y-95238723D01*
X90696140Y-95170092D01*
X90655117Y-95099967D01*
X90628078Y-95022421D01*
X90612499Y-94931525D01*
X90609698Y-94900971D01*
X90606363Y-94841732D01*
X90603887Y-94764885D01*
X90602273Y-94675386D01*
X90601527Y-94578188D01*
X90601653Y-94478246D01*
X90602653Y-94380514D01*
X90604533Y-94289947D01*
X90607297Y-94211499D01*
X90609094Y-94176980D01*
X90616178Y-94059026D01*
X90655383Y-94036182D01*
X90696937Y-94020487D01*
X90748200Y-94013406D01*
X90803101Y-94014326D01*
G37*
G36*
X90493743Y-87536455D02*
G01*
X90532003Y-87538986D01*
X90560415Y-87544729D01*
X90585329Y-87554725D01*
X90599792Y-87562385D01*
X90633697Y-87584862D01*
X90661985Y-87609567D01*
X90669343Y-87618153D01*
X90686207Y-87654470D01*
X90698215Y-87707980D01*
X90705359Y-87773822D01*
X90707630Y-87847138D01*
X90705022Y-87923068D01*
X90697527Y-87996753D01*
X90685137Y-88063335D01*
X90670117Y-88112348D01*
X90642128Y-88183807D01*
X90671486Y-88249226D01*
X90700844Y-88314645D01*
X90700844Y-88664160D01*
X90701048Y-88758148D01*
X90701629Y-88869435D01*
X90702538Y-88992744D01*
X90703727Y-89122801D01*
X90705149Y-89254330D01*
X90706757Y-89382055D01*
X90708322Y-89489389D01*
X90715800Y-89965103D01*
X90751616Y-89976924D01*
X90798606Y-90003380D01*
X90838756Y-90046497D01*
X90868314Y-90100569D01*
X90883526Y-90159891D01*
X90884754Y-90179332D01*
X90877142Y-90237004D01*
X90851647Y-90292615D01*
X90806433Y-90350011D01*
X90800234Y-90356540D01*
X90755324Y-90403124D01*
X90795246Y-90458692D01*
X90837903Y-90527529D01*
X90870376Y-90599046D01*
X90887770Y-90659453D01*
X90895268Y-90699422D01*
X91085923Y-90699422D01*
X91276578Y-90699422D01*
X91276035Y-90380511D01*
X91275493Y-90061600D01*
X91212633Y-90022089D01*
X91135860Y-89963161D01*
X91065143Y-89888681D01*
X91004309Y-89804033D01*
X90957185Y-89714598D01*
X90927599Y-89625760D01*
X90926180Y-89619203D01*
X90915052Y-89513676D01*
X90916658Y-89491511D01*
X91084667Y-89491511D01*
X91095008Y-89594621D01*
X91125581Y-89688222D01*
X91175711Y-89771327D01*
X91244723Y-89842948D01*
X91331941Y-89902100D01*
X91382607Y-89926883D01*
X91457200Y-89959380D01*
X91457200Y-90611623D01*
X91457200Y-91263867D01*
X91553156Y-91263867D01*
X91649111Y-91263867D01*
X91829733Y-91263867D01*
X92021644Y-91263867D01*
X92213556Y-91263867D01*
X92382889Y-91263867D01*
X92670756Y-91263867D01*
X92958622Y-91263867D01*
X92958622Y-91064430D01*
X93127956Y-91064430D01*
X93128395Y-91126790D01*
X93129609Y-91181071D01*
X93131444Y-91223328D01*
X93133745Y-91249615D01*
X93135481Y-91256341D01*
X93148397Y-91258410D01*
X93180749Y-91260262D01*
X93229393Y-91261814D01*
X93291187Y-91262985D01*
X93362990Y-91263691D01*
X93423348Y-91263867D01*
X93703689Y-91263867D01*
X93703689Y-91098083D01*
X93704012Y-91033742D01*
X93703345Y-90983427D01*
X93699229Y-90945423D01*
X93689206Y-90918014D01*
X93670819Y-90899486D01*
X93641610Y-90888122D01*
X93599122Y-90882209D01*
X93540897Y-90880030D01*
X93464478Y-90879870D01*
X93391277Y-90880044D01*
X93127956Y-90880044D01*
X93127956Y-91064430D01*
X92958622Y-91064430D01*
X92958622Y-90880044D01*
X92958622Y-90542900D01*
X92958609Y-90397596D01*
X92958533Y-90273170D01*
X92958343Y-90167923D01*
X92957985Y-90080156D01*
X92957406Y-90008170D01*
X92956553Y-89950265D01*
X92955373Y-89904741D01*
X92953813Y-89869900D01*
X92951821Y-89844041D01*
X92949343Y-89825467D01*
X92946326Y-89812477D01*
X92942718Y-89803372D01*
X92938465Y-89796453D01*
X92935225Y-89792189D01*
X92911828Y-89762444D01*
X92677738Y-89762444D01*
X92591951Y-89762845D01*
X92526408Y-89764138D01*
X92478785Y-89766458D01*
X92446763Y-89769939D01*
X92428020Y-89774717D01*
X92423436Y-89777225D01*
X92408928Y-89797019D01*
X92396627Y-89829068D01*
X92393547Y-89842136D01*
X92391803Y-89862278D01*
X92390143Y-89902865D01*
X92388598Y-89961765D01*
X92387196Y-90036845D01*
X92385968Y-90125973D01*
X92384943Y-90227015D01*
X92384150Y-90337840D01*
X92383619Y-90456314D01*
X92383380Y-90578067D01*
X92382889Y-91263867D01*
X92213556Y-91263867D01*
X92213556Y-91071956D01*
X92213556Y-90880044D01*
X92021644Y-90880044D01*
X91829733Y-90880044D01*
X91829733Y-91071956D01*
X91829733Y-91263867D01*
X91649111Y-91263867D01*
X91649128Y-91071956D01*
X91649157Y-90753044D01*
X91649331Y-90641573D01*
X91649811Y-90531923D01*
X91650560Y-90427255D01*
X91651544Y-90330726D01*
X91652728Y-90245495D01*
X91654076Y-90174722D01*
X91655553Y-90121564D01*
X91656440Y-90100333D01*
X91663677Y-89958443D01*
X91742982Y-89920371D01*
X91822339Y-89872514D01*
X91894235Y-89810534D01*
X91953045Y-89739851D01*
X91982944Y-89689067D01*
X91997122Y-89658502D01*
X92006546Y-89632019D01*
X92012179Y-89603698D01*
X92014985Y-89567617D01*
X92015927Y-89517854D01*
X92016000Y-89485867D01*
X92015633Y-89427034D01*
X92013890Y-89384858D01*
X92009804Y-89353421D01*
X92002412Y-89326807D01*
X91990747Y-89299097D01*
X91982856Y-89282667D01*
X91940080Y-89214447D01*
X91882059Y-89148705D01*
X91815643Y-89092294D01*
X91756356Y-89056132D01*
X91725050Y-89041633D01*
X91697927Y-89032113D01*
X91668804Y-89026534D01*
X91631495Y-89023860D01*
X91579816Y-89023054D01*
X91558800Y-89023022D01*
X91500509Y-89023498D01*
X91458547Y-89025588D01*
X91426674Y-89030287D01*
X91398651Y-89038589D01*
X91368238Y-89051489D01*
X91362033Y-89054373D01*
X91271458Y-89108433D01*
X91197451Y-89177200D01*
X91141121Y-89258925D01*
X91103580Y-89351858D01*
X91085936Y-89454250D01*
X91084667Y-89491511D01*
X90916658Y-89491511D01*
X90923012Y-89403791D01*
X90948863Y-89295101D01*
X90991408Y-89193163D01*
X91032457Y-89126008D01*
X91113172Y-89030252D01*
X91204275Y-88954227D01*
X91305039Y-88898320D01*
X91414734Y-88862918D01*
X91532633Y-88848408D01*
X91555235Y-88848044D01*
X91673255Y-88858215D01*
X91782282Y-88888933D01*
X91883022Y-88940507D01*
X91976182Y-89013245D01*
X92009832Y-89046594D01*
X92086693Y-89140404D01*
X92141852Y-89237886D01*
X92176119Y-89340977D01*
X92190305Y-89451616D01*
X92190811Y-89479772D01*
X92180044Y-89601689D01*
X92148505Y-89715029D01*
X92096597Y-89819050D01*
X92024723Y-89913011D01*
X91933285Y-89996169D01*
X91895683Y-90023300D01*
X91829733Y-90068086D01*
X91829733Y-90383754D01*
X91829733Y-90699422D01*
X92021644Y-90699422D01*
X92213556Y-90699422D01*
X92214104Y-90341000D01*
X92214556Y-90210902D01*
X92215588Y-90101316D01*
X92217363Y-90010180D01*
X92220041Y-89935431D01*
X92223786Y-89875007D01*
X92228758Y-89826846D01*
X92235119Y-89788885D01*
X92243031Y-89759063D01*
X92252657Y-89735318D01*
X92263032Y-89717263D01*
X92291583Y-89682274D01*
X92328096Y-89647699D01*
X92343966Y-89635446D01*
X92394178Y-89600054D01*
X92394178Y-89581822D01*
X92574800Y-89581822D01*
X92670756Y-89581822D01*
X92766711Y-89581822D01*
X92766711Y-89389911D01*
X92766711Y-89198000D01*
X92670756Y-89198000D01*
X92574800Y-89198000D01*
X92574800Y-89389911D01*
X92574800Y-89581822D01*
X92394178Y-89581822D01*
X92394178Y-89389911D01*
X92394178Y-89188940D01*
X92394178Y-88777827D01*
X92357723Y-88709431D01*
X92299622Y-88622453D01*
X92227094Y-88550877D01*
X92142787Y-88497286D01*
X92137641Y-88494807D01*
X92098598Y-88477347D01*
X92066203Y-88466590D01*
X92032389Y-88460945D01*
X91989089Y-88458823D01*
X91953911Y-88458578D01*
X91901108Y-88459266D01*
X91863040Y-88462381D01*
X91831884Y-88469495D01*
X91799813Y-88482181D01*
X91773289Y-88494893D01*
X91723153Y-88522233D01*
X91669381Y-88555384D01*
X91634211Y-88579560D01*
X91597803Y-88605156D01*
X91570131Y-88619671D01*
X91542374Y-88626211D01*
X91505708Y-88627886D01*
X91496970Y-88627911D01*
X91454596Y-88626506D01*
X91425447Y-88620411D01*
X91400245Y-88606806D01*
X91382048Y-88592971D01*
X91331221Y-88540359D01*
X91299782Y-88481558D01*
X91290206Y-88428696D01*
X91459385Y-88428696D01*
X91469959Y-88454639D01*
X91493102Y-88462364D01*
X91528126Y-88451930D01*
X91574343Y-88423394D01*
X91581135Y-88418360D01*
X91671897Y-88358796D01*
X91761952Y-88319012D01*
X91856880Y-88297103D01*
X91953911Y-88291097D01*
X92065991Y-88300420D01*
X92168017Y-88328341D01*
X92247025Y-88365817D01*
X92295926Y-88399246D01*
X92350799Y-88445669D01*
X92405384Y-88499106D01*
X92453416Y-88553576D01*
X92477830Y-88586224D01*
X92506422Y-88639959D01*
X92531796Y-88710382D01*
X92552340Y-88791659D01*
X92566443Y-88877958D01*
X92570640Y-88922072D01*
X92578132Y-89028667D01*
X92677169Y-89028667D01*
X92776206Y-89028667D01*
X92784138Y-88991978D01*
X92807560Y-88925505D01*
X92847215Y-88857061D01*
X92898310Y-88792906D01*
X92956054Y-88739295D01*
X92999845Y-88710309D01*
X93059160Y-88685588D01*
X93130463Y-88667073D01*
X93203487Y-88657158D01*
X93232142Y-88656133D01*
X93273926Y-88648972D01*
X93303446Y-88628424D01*
X93331156Y-88600715D01*
X93331156Y-88368267D01*
X93331156Y-88352300D01*
X93331156Y-88103884D01*
X93288822Y-88091317D01*
X93269144Y-88088250D01*
X93232296Y-88085785D01*
X93177486Y-88083912D01*
X93103922Y-88082620D01*
X93010809Y-88081899D01*
X92897357Y-88081739D01*
X92762772Y-88082129D01*
X92636889Y-88082847D01*
X92027289Y-88086944D01*
X91928078Y-88117615D01*
X91847569Y-88145993D01*
X91767950Y-88180435D01*
X91691932Y-88219141D01*
X91622224Y-88260312D01*
X91561538Y-88302150D01*
X91512582Y-88342856D01*
X91478067Y-88380631D01*
X91460703Y-88413677D01*
X91459385Y-88428696D01*
X91290206Y-88428696D01*
X91288548Y-88419543D01*
X91298335Y-88357290D01*
X91309882Y-88329857D01*
X91343243Y-88281667D01*
X91394674Y-88229340D01*
X91460609Y-88175185D01*
X91537481Y-88121512D01*
X91621722Y-88070631D01*
X91709766Y-88024854D01*
X91798047Y-87986488D01*
X91882997Y-87957846D01*
X91885266Y-87957214D01*
X91926596Y-87946660D01*
X91969770Y-87937687D01*
X92016882Y-87930180D01*
X92070028Y-87924027D01*
X92131304Y-87919113D01*
X92202807Y-87915324D01*
X92286632Y-87912547D01*
X92384875Y-87910669D01*
X92499632Y-87909574D01*
X92632999Y-87909150D01*
X92769193Y-87909245D01*
X93330474Y-87910365D01*
X93342142Y-87867034D01*
X93368970Y-87806790D01*
X93412164Y-87760462D01*
X93436574Y-87744862D01*
X93469937Y-87734339D01*
X93519153Y-87727558D01*
X93577812Y-87724488D01*
X93639507Y-87725099D01*
X93697830Y-87729362D01*
X93746372Y-87737246D01*
X93774467Y-87746433D01*
X93823331Y-87781339D01*
X93856317Y-87828979D01*
X93865479Y-87855581D01*
X93867899Y-87877036D01*
X93869910Y-87917683D01*
X93871520Y-87974640D01*
X93872741Y-88045026D01*
X93873581Y-88125959D01*
X93874051Y-88214557D01*
X93874160Y-88307938D01*
X93873919Y-88403221D01*
X93873337Y-88497525D01*
X93872424Y-88587967D01*
X93871190Y-88671665D01*
X93869645Y-88745739D01*
X93867798Y-88807306D01*
X93865660Y-88853484D01*
X93863241Y-88881393D01*
X93861944Y-88887556D01*
X93830811Y-88939596D01*
X93783746Y-88981533D01*
X93766886Y-88991404D01*
X93738773Y-88999466D01*
X93694396Y-89004957D01*
X93639932Y-89007800D01*
X93581556Y-89007918D01*
X93525444Y-89005234D01*
X93477771Y-88999669D01*
X93457135Y-88995285D01*
X93407536Y-88970672D01*
X93368501Y-88927902D01*
X93342641Y-88869949D01*
X93340657Y-88862555D01*
X93334161Y-88836756D01*
X93511778Y-88836756D01*
X93607733Y-88836756D01*
X93703689Y-88836756D01*
X93703689Y-88368267D01*
X93703689Y-87899778D01*
X93607733Y-87899778D01*
X93511778Y-87899778D01*
X93511778Y-88368267D01*
X93511778Y-88836756D01*
X93334161Y-88836756D01*
X93327739Y-88811253D01*
X93247603Y-88818693D01*
X93167855Y-88828978D01*
X93106057Y-88844434D01*
X93057800Y-88867083D01*
X93018678Y-88898946D01*
X92986844Y-88938309D01*
X92952978Y-88987167D01*
X92949496Y-89295152D01*
X92946015Y-89603138D01*
X92978567Y-89619972D01*
X93011316Y-89643164D01*
X93047778Y-89678141D01*
X93081015Y-89717341D01*
X93104088Y-89753203D01*
X93107240Y-89760212D01*
X93110635Y-89779966D01*
X93113866Y-89821004D01*
X93116885Y-89882032D01*
X93119643Y-89961757D01*
X93122093Y-90058886D01*
X93124187Y-90172125D01*
X93125207Y-90243714D01*
X93131031Y-90696761D01*
X93386316Y-90704590D01*
X93462751Y-90707364D01*
X93534021Y-90710752D01*
X93596187Y-90714503D01*
X93645311Y-90718369D01*
X93677457Y-90722098D01*
X93684956Y-90723565D01*
X93724815Y-90741577D01*
X93768706Y-90773288D01*
X93809759Y-90812628D01*
X93841102Y-90853525D01*
X93849289Y-90868756D01*
X93852438Y-90877463D01*
X93855221Y-90889923D01*
X93857666Y-90907535D01*
X93859803Y-90931700D01*
X93861659Y-90963820D01*
X93863263Y-91005295D01*
X93864643Y-91057525D01*
X93865828Y-91121913D01*
X93866847Y-91199859D01*
X93867727Y-91292763D01*
X93868498Y-91402026D01*
X93869188Y-91529050D01*
X93869825Y-91675234D01*
X93870438Y-91841981D01*
X93870707Y-91922029D01*
X93874036Y-92935791D01*
X93834695Y-93017583D01*
X93778535Y-93109243D01*
X93705973Y-93185642D01*
X93618172Y-93245613D01*
X93595792Y-93257033D01*
X93515053Y-93295867D01*
X91010104Y-93295260D01*
X90729325Y-93295185D01*
X90470229Y-93295098D01*
X90231922Y-93294992D01*
X90013508Y-93294858D01*
X89814093Y-93294691D01*
X89632782Y-93294482D01*
X89468681Y-93294224D01*
X89320895Y-93293911D01*
X89188529Y-93293535D01*
X89070688Y-93293088D01*
X88966479Y-93292563D01*
X88875005Y-93291954D01*
X88795372Y-93291253D01*
X88726686Y-93290452D01*
X88668052Y-93289545D01*
X88618576Y-93288524D01*
X88577362Y-93287382D01*
X88543515Y-93286111D01*
X88516142Y-93284705D01*
X88494347Y-93283156D01*
X88477236Y-93281457D01*
X88463914Y-93279601D01*
X88453486Y-93277580D01*
X88445058Y-93275388D01*
X88442039Y-93274459D01*
X88352049Y-93234044D01*
X88272393Y-93174509D01*
X88205155Y-93097751D01*
X88156760Y-93015037D01*
X88121333Y-92940267D01*
X88121333Y-92363888D01*
X88121333Y-91929911D01*
X88121376Y-91805733D01*
X88285022Y-91805733D01*
X88285022Y-92363888D01*
X88285042Y-92490492D01*
X88285154Y-92596518D01*
X88285441Y-92683963D01*
X88285984Y-92754827D01*
X88286863Y-92811109D01*
X88288161Y-92854808D01*
X88289959Y-92887922D01*
X88292337Y-92912451D01*
X88295378Y-92930393D01*
X88299163Y-92943748D01*
X88303772Y-92954513D01*
X88309288Y-92964689D01*
X88309477Y-92965021D01*
X88353291Y-93029509D01*
X88401821Y-93074302D01*
X88459220Y-93102275D01*
X88527733Y-93116106D01*
X88545387Y-93116789D01*
X88584556Y-93117443D01*
X88644177Y-93118066D01*
X88723187Y-93118655D01*
X88820524Y-93119209D01*
X88935124Y-93119723D01*
X89065926Y-93120197D01*
X89211865Y-93120626D01*
X89371879Y-93121010D01*
X89544905Y-93121345D01*
X89729881Y-93121628D01*
X89925744Y-93121858D01*
X90131430Y-93122031D01*
X90345877Y-93122145D01*
X90568023Y-93122198D01*
X90796804Y-93122188D01*
X91031157Y-93122110D01*
X91050800Y-93122101D01*
X93506133Y-93120889D01*
X93551289Y-93096478D01*
X93601616Y-93062025D01*
X93646374Y-93018345D01*
X93678408Y-92972689D01*
X93683149Y-92962844D01*
X93686730Y-92949339D01*
X93689814Y-92925481D01*
X93692451Y-92889701D01*
X93694687Y-92840431D01*
X93696571Y-92776103D01*
X93698150Y-92695149D01*
X93699473Y-92596001D01*
X93700588Y-92477092D01*
X93701358Y-92367356D01*
X93704855Y-91805733D01*
X92852645Y-91805733D01*
X92000435Y-91805733D01*
X91996929Y-92017400D01*
X91995512Y-92092484D01*
X91993800Y-92148889D01*
X91991339Y-92190512D01*
X91987676Y-92221254D01*
X91982357Y-92245010D01*
X91974930Y-92265680D01*
X91965753Y-92285511D01*
X91932740Y-92337624D01*
X91885460Y-92392853D01*
X91830226Y-92445030D01*
X91773354Y-92487990D01*
X91737311Y-92508625D01*
X91673110Y-92539511D01*
X90994744Y-92539511D01*
X90316378Y-92539511D01*
X90246331Y-92504151D01*
X90185608Y-92465953D01*
X90125075Y-92414811D01*
X90071167Y-92357044D01*
X90030317Y-92298975D01*
X90022406Y-92284156D01*
X90012799Y-92263233D01*
X90005670Y-92242550D01*
X90000574Y-92218226D01*
X89997065Y-92186382D01*
X89994699Y-92143135D01*
X89993029Y-92084606D01*
X89991782Y-92017400D01*
X89990781Y-91956992D01*
X90148173Y-91956992D01*
X90148961Y-92021177D01*
X90149522Y-92040573D01*
X90151694Y-92101376D01*
X90154421Y-92144713D01*
X90158677Y-92175691D01*
X90165435Y-92199419D01*
X90175671Y-92221005D01*
X90187841Y-92241496D01*
X90229253Y-92293760D01*
X90280830Y-92336896D01*
X90335599Y-92365436D01*
X90352280Y-92370500D01*
X90370519Y-92372215D01*
X90409138Y-92373757D01*
X90465942Y-92375100D01*
X90538733Y-92376221D01*
X90625316Y-92377097D01*
X90723494Y-92377701D01*
X90831070Y-92378011D01*
X90945848Y-92378002D01*
X91016933Y-92377834D01*
X91152611Y-92377354D01*
X91267553Y-92376816D01*
X91363603Y-92376158D01*
X91442603Y-92375319D01*
X91506395Y-92374239D01*
X91556822Y-92372856D01*
X91595727Y-92371110D01*
X91624953Y-92368938D01*
X91646341Y-92366281D01*
X91661734Y-92363077D01*
X91672976Y-92359265D01*
X91679977Y-92355869D01*
X91724963Y-92324276D01*
X91769567Y-92281498D01*
X91805251Y-92236134D01*
X91814480Y-92220421D01*
X91823775Y-92191148D01*
X91831529Y-92145650D01*
X91837299Y-92090256D01*
X91840645Y-92031291D01*
X91841124Y-91975084D01*
X91838295Y-91927960D01*
X91835989Y-91912264D01*
X91828081Y-91870114D01*
X91780926Y-91921476D01*
X91748935Y-91952910D01*
X91720170Y-91970931D01*
X91685413Y-91980962D01*
X91677330Y-91982419D01*
X91655693Y-91984194D01*
X91613722Y-91985858D01*
X91553658Y-91987380D01*
X91477745Y-91988732D01*
X91388225Y-91989881D01*
X91287341Y-91990799D01*
X91177335Y-91991454D01*
X91060450Y-91991817D01*
X90977422Y-91991881D01*
X90832509Y-91991831D01*
X90708401Y-91991619D01*
X90603326Y-91991062D01*
X90515512Y-91989976D01*
X90443186Y-91988178D01*
X90384577Y-91985485D01*
X90337913Y-91981716D01*
X90301420Y-91976685D01*
X90273326Y-91970212D01*
X90251860Y-91962112D01*
X90235248Y-91952202D01*
X90221720Y-91940301D01*
X90209501Y-91926224D01*
X90198072Y-91911427D01*
X90178910Y-91889154D01*
X90164941Y-91880976D01*
X90155562Y-91888490D01*
X90150173Y-91913296D01*
X90148173Y-91956992D01*
X89990781Y-91956992D01*
X89988463Y-91817022D01*
X90339600Y-91817022D01*
X90994356Y-91817022D01*
X91649111Y-91817022D01*
X91649111Y-91636400D01*
X91829733Y-91636400D01*
X92766711Y-91636400D01*
X93703689Y-91636400D01*
X93703689Y-91534800D01*
X93703689Y-91433200D01*
X92766711Y-91433200D01*
X91829733Y-91433200D01*
X91829733Y-91534800D01*
X91829733Y-91636400D01*
X91649111Y-91636400D01*
X91649111Y-91625111D01*
X91649111Y-91534800D01*
X91649111Y-91433200D01*
X90994356Y-91433200D01*
X90339600Y-91433200D01*
X90339600Y-91625111D01*
X90339600Y-91817022D01*
X89988463Y-91817022D01*
X89988276Y-91805733D01*
X89136649Y-91805733D01*
X88285022Y-91805733D01*
X88121376Y-91805733D01*
X88121396Y-91747759D01*
X88121534Y-91636400D01*
X88285022Y-91636400D01*
X89222000Y-91636400D01*
X90158978Y-91636400D01*
X90158978Y-91625111D01*
X90158978Y-91534800D01*
X90158978Y-91433200D01*
X89222000Y-91433200D01*
X88285022Y-91433200D01*
X88285022Y-91534800D01*
X88285022Y-91636400D01*
X88121534Y-91636400D01*
X88121595Y-91586954D01*
X88121726Y-91534800D01*
X88121948Y-91446263D01*
X88122471Y-91324457D01*
X88122885Y-91263867D01*
X88285022Y-91263867D01*
X88476933Y-91263867D01*
X88668844Y-91263867D01*
X88668844Y-91071956D01*
X88668844Y-90880044D01*
X88501547Y-90880044D01*
X88436809Y-90880173D01*
X88390751Y-90880943D01*
X88359476Y-90882928D01*
X88339086Y-90886703D01*
X88325685Y-90892844D01*
X88315375Y-90901926D01*
X88309636Y-90908352D01*
X88299959Y-90921012D01*
X88293207Y-90935679D01*
X88288858Y-90956416D01*
X88286392Y-90987287D01*
X88285288Y-91032357D01*
X88285023Y-91095690D01*
X88285022Y-91100264D01*
X88285022Y-91263867D01*
X88122885Y-91263867D01*
X88123183Y-91220303D01*
X88124100Y-91132570D01*
X88124607Y-91100264D01*
X88125239Y-91060028D01*
X88126617Y-91001445D01*
X88128252Y-90955590D01*
X88130161Y-90921231D01*
X88132360Y-90897138D01*
X88134867Y-90882079D01*
X88135973Y-90878272D01*
X88157754Y-90839409D01*
X88193388Y-90798102D01*
X88236163Y-90760552D01*
X88279365Y-90732961D01*
X88303445Y-90723569D01*
X88330737Y-90718870D01*
X88375009Y-90713895D01*
X88430679Y-90709168D01*
X88492162Y-90705212D01*
X88507978Y-90704395D01*
X88668844Y-90696528D01*
X88668844Y-90315279D01*
X88668844Y-89934030D01*
X88609578Y-89920215D01*
X88518170Y-89890736D01*
X88433265Y-89845394D01*
X88350487Y-89781622D01*
X88312135Y-89745604D01*
X88243276Y-89669603D01*
X88191996Y-89593248D01*
X88154259Y-89509660D01*
X88132999Y-89440338D01*
X88124644Y-89392808D01*
X88119037Y-89328977D01*
X88116188Y-89254950D01*
X88116131Y-89200352D01*
X88286196Y-89200352D01*
X88286830Y-89242240D01*
X88288597Y-89309691D01*
X88290773Y-89359372D01*
X88294107Y-89396087D01*
X88299350Y-89424641D01*
X88307251Y-89449839D01*
X88318561Y-89476486D01*
X88325819Y-89492046D01*
X88379839Y-89583120D01*
X88447584Y-89656391D01*
X88529253Y-89711989D01*
X88625048Y-89750047D01*
X88735170Y-89770695D01*
X88753511Y-89772344D01*
X88843822Y-89779378D01*
X88846726Y-90521622D01*
X88849629Y-91263867D01*
X89041459Y-91263867D01*
X89233289Y-91263867D01*
X89402622Y-91263867D01*
X89690489Y-91263867D01*
X89978356Y-91263867D01*
X90147689Y-91263867D01*
X90435556Y-91263867D01*
X90723422Y-91263867D01*
X90892756Y-91263867D01*
X91084667Y-91263867D01*
X91276578Y-91263867D01*
X91276578Y-91071956D01*
X91276578Y-90880044D01*
X91084667Y-90880044D01*
X90892756Y-90880044D01*
X90892756Y-91071956D01*
X90892756Y-91263867D01*
X90723422Y-91263867D01*
X90723422Y-91071956D01*
X90723422Y-90987844D01*
X90723032Y-90885477D01*
X90721585Y-90802849D01*
X90718666Y-90737133D01*
X90713860Y-90685499D01*
X90706753Y-90645119D01*
X90696929Y-90613164D01*
X90683975Y-90586806D01*
X90667474Y-90563216D01*
X90659787Y-90553920D01*
X90620063Y-90507511D01*
X90435556Y-90507511D01*
X90251048Y-90507511D01*
X90211324Y-90553920D01*
X90193289Y-90577195D01*
X90178965Y-90602106D01*
X90167939Y-90631483D01*
X90159795Y-90668153D01*
X90154118Y-90714945D01*
X90150494Y-90774688D01*
X90148508Y-90850211D01*
X90147745Y-90944342D01*
X90147689Y-90987844D01*
X90147689Y-91263867D01*
X89978356Y-91263867D01*
X89978356Y-91071956D01*
X89978356Y-90987844D01*
X89978356Y-90880044D01*
X89690489Y-90880044D01*
X89402622Y-90880044D01*
X89402622Y-91071956D01*
X89402622Y-91263867D01*
X89233289Y-91263867D01*
X89233289Y-91071956D01*
X89233289Y-90525652D01*
X89233217Y-90376477D01*
X89233117Y-90248299D01*
X89233164Y-90139537D01*
X89233533Y-90048610D01*
X89234399Y-89973939D01*
X89235937Y-89913942D01*
X89238322Y-89867040D01*
X89241728Y-89831652D01*
X89246331Y-89806198D01*
X89252305Y-89789097D01*
X89259826Y-89778768D01*
X89269068Y-89773632D01*
X89280207Y-89772109D01*
X89293416Y-89772616D01*
X89308872Y-89773576D01*
X89316507Y-89773733D01*
X89377040Y-89767729D01*
X89446468Y-89751427D01*
X89515131Y-89727389D01*
X89548146Y-89712268D01*
X89617366Y-89666071D01*
X89680382Y-89602608D01*
X89732203Y-89527159D01*
X89743582Y-89505511D01*
X89780800Y-89429925D01*
X89780800Y-89209540D01*
X89780695Y-89133470D01*
X89780107Y-89076127D01*
X89778629Y-89033661D01*
X89775850Y-89002222D01*
X89771364Y-88977959D01*
X89764760Y-88957021D01*
X89755632Y-88935560D01*
X89750573Y-88924666D01*
X89709209Y-88849780D01*
X89659862Y-88788762D01*
X89596732Y-88733838D01*
X89529258Y-88688656D01*
X89471300Y-88662758D01*
X89431411Y-88656133D01*
X89403031Y-88656133D01*
X89400004Y-88924244D01*
X89396978Y-89192356D01*
X89035733Y-89192356D01*
X88674489Y-89192356D01*
X88671462Y-88924244D01*
X88668436Y-88656133D01*
X88639176Y-88656133D01*
X88607104Y-88663015D01*
X88564068Y-88681420D01*
X88516081Y-88707991D01*
X88469158Y-88739370D01*
X88429314Y-88772199D01*
X88426523Y-88774874D01*
X88378577Y-88827371D01*
X88341891Y-88882426D01*
X88315388Y-88943646D01*
X88297989Y-89014636D01*
X88288618Y-89099003D01*
X88286196Y-89200352D01*
X88116131Y-89200352D01*
X88116107Y-89176838D01*
X88118805Y-89100748D01*
X88124292Y-89032788D01*
X88132246Y-88980607D01*
X88166296Y-88872555D01*
X88219454Y-88773247D01*
X88289279Y-88684694D01*
X88373330Y-88608904D01*
X88469166Y-88547888D01*
X88574344Y-88503655D01*
X88686425Y-88478214D01*
X88748938Y-88472997D01*
X88843822Y-88469867D01*
X88846842Y-88749267D01*
X88849861Y-89028667D01*
X89041378Y-89028667D01*
X89232894Y-89028667D01*
X89235914Y-88749267D01*
X89238933Y-88469867D01*
X89275159Y-88466364D01*
X89302931Y-88466672D01*
X89345142Y-88470560D01*
X89394079Y-88477254D01*
X89410109Y-88479898D01*
X89526545Y-88511060D01*
X89633387Y-88561961D01*
X89728966Y-88631199D01*
X89811613Y-88717373D01*
X89879660Y-88819080D01*
X89922248Y-88910133D01*
X89932261Y-88938211D01*
X89939626Y-88966382D01*
X89944877Y-88999126D01*
X89948546Y-89040923D01*
X89951167Y-89096252D01*
X89953273Y-89169594D01*
X89953311Y-89171200D01*
X89954641Y-89262072D01*
X89953242Y-89335158D01*
X89948340Y-89395169D01*
X89939159Y-89446812D01*
X89924927Y-89494796D01*
X89904869Y-89543829D01*
X89885347Y-89584503D01*
X89824900Y-89681502D01*
X89747855Y-89766850D01*
X89657640Y-89837808D01*
X89557680Y-89891635D01*
X89461889Y-89923244D01*
X89402622Y-89937121D01*
X89402622Y-90318271D01*
X89402622Y-90699422D01*
X89690489Y-90699422D01*
X89781476Y-90699211D01*
X89852117Y-90698500D01*
X89904645Y-90697175D01*
X89941286Y-90695120D01*
X89964273Y-90692220D01*
X89975834Y-90688359D01*
X89978356Y-90684538D01*
X89984518Y-90646960D01*
X90001181Y-90597744D01*
X90025603Y-90543542D01*
X90055045Y-90491003D01*
X90063361Y-90478172D01*
X90113873Y-90402846D01*
X90069649Y-90354870D01*
X90019666Y-90291218D01*
X89990843Y-90230759D01*
X89983669Y-90180138D01*
X90147689Y-90180138D01*
X90154827Y-90196850D01*
X90173687Y-90224415D01*
X90200432Y-90257323D01*
X90205036Y-90262546D01*
X90262384Y-90326889D01*
X90435556Y-90326889D01*
X90608727Y-90326889D01*
X90666075Y-90262546D01*
X90693699Y-90229304D01*
X90714032Y-90200550D01*
X90723238Y-90181795D01*
X90723422Y-90180138D01*
X90722070Y-90166308D01*
X90716309Y-90155619D01*
X90703583Y-90147669D01*
X90681336Y-90142058D01*
X90647012Y-90138385D01*
X90598054Y-90136248D01*
X90531906Y-90135246D01*
X90446011Y-90134979D01*
X90435556Y-90134978D01*
X90347399Y-90135190D01*
X90279262Y-90136094D01*
X90228588Y-90138090D01*
X90192822Y-90141580D01*
X90169406Y-90146965D01*
X90155785Y-90154645D01*
X90149401Y-90165022D01*
X90147700Y-90178497D01*
X90147689Y-90180138D01*
X89983669Y-90180138D01*
X89982416Y-90171295D01*
X89989430Y-90124485D01*
X90014598Y-90069306D01*
X90055757Y-90020179D01*
X90106373Y-89984672D01*
X90112745Y-89981697D01*
X90155346Y-89962902D01*
X90155480Y-89954356D01*
X90339600Y-89954356D01*
X90435556Y-89954356D01*
X90531511Y-89954356D01*
X90531511Y-89163488D01*
X90531355Y-88986604D01*
X90530881Y-88831759D01*
X90530080Y-88698413D01*
X90528946Y-88586030D01*
X90527470Y-88494071D01*
X90525643Y-88422000D01*
X90523458Y-88369277D01*
X90520907Y-88335365D01*
X90518882Y-88322466D01*
X90506253Y-88272311D01*
X90435556Y-88272311D01*
X90364858Y-88272311D01*
X90352229Y-88322466D01*
X90349414Y-88343430D01*
X90346972Y-88382826D01*
X90344893Y-88441191D01*
X90343170Y-88519064D01*
X90341796Y-88616982D01*
X90340761Y-88735483D01*
X90340057Y-88875105D01*
X90339678Y-89036385D01*
X90339600Y-89163488D01*
X90339600Y-89954356D01*
X90155480Y-89954356D01*
X90162806Y-89488289D01*
X90164538Y-89368578D01*
X90166127Y-89240280D01*
X90166943Y-89163488D01*
X90167526Y-89108683D01*
X90168687Y-88979079D01*
X90169562Y-88856757D01*
X90170104Y-88747008D01*
X90170267Y-88664160D01*
X90170267Y-88314645D01*
X90199625Y-88249226D01*
X90228983Y-88183807D01*
X90200918Y-88112348D01*
X90188069Y-88075435D01*
X90178959Y-88037261D01*
X90172626Y-87991794D01*
X90168108Y-87933001D01*
X90166109Y-87894133D01*
X90165052Y-87856135D01*
X90163618Y-87804604D01*
X90166039Y-87734138D01*
X90170071Y-87707867D01*
X90339600Y-87707867D01*
X90339600Y-87856135D01*
X90340597Y-87916101D01*
X90343317Y-87971837D01*
X90347354Y-88017371D01*
X90352300Y-88046729D01*
X90352676Y-88048046D01*
X90365752Y-88091689D01*
X90435556Y-88091689D01*
X90505359Y-88091689D01*
X90518435Y-88048046D01*
X90523430Y-88020067D01*
X90527545Y-87975488D01*
X90530372Y-87920280D01*
X90531506Y-87860417D01*
X90531511Y-87856135D01*
X90531511Y-87707867D01*
X90435556Y-87707867D01*
X90339600Y-87707867D01*
X90170071Y-87707867D01*
X90174416Y-87679555D01*
X90189792Y-87637674D01*
X90213208Y-87605314D01*
X90245707Y-87579296D01*
X90274634Y-87563045D01*
X90303918Y-87550222D01*
X90334076Y-87542208D01*
X90371788Y-87537909D01*
X90423735Y-87536232D01*
X90439284Y-87536096D01*
X90493743Y-87536455D01*
G37*
G36*
X91630333Y-89232564D02*
G01*
X91691998Y-89259833D01*
X91745524Y-89303472D01*
X91787237Y-89363292D01*
X91791568Y-89372178D01*
X91814280Y-89443898D01*
X91816932Y-89513385D01*
X91801938Y-89578269D01*
X91771714Y-89636177D01*
X91728676Y-89684739D01*
X91675240Y-89721584D01*
X91613820Y-89744340D01*
X91546833Y-89750636D01*
X91476694Y-89738100D01*
X91435805Y-89721408D01*
X91373545Y-89678846D01*
X91327540Y-89623472D01*
X91298879Y-89559071D01*
X91288951Y-89491477D01*
X91454102Y-89491477D01*
X91465260Y-89532789D01*
X91480617Y-89554493D01*
X91515318Y-89576428D01*
X91557822Y-89582599D01*
X91599606Y-89572839D01*
X91622983Y-89557277D01*
X91643970Y-89523505D01*
X91649795Y-89481578D01*
X91640363Y-89440159D01*
X91624565Y-89416039D01*
X91590248Y-89394614D01*
X91548198Y-89389812D01*
X91505983Y-89401650D01*
X91484923Y-89415699D01*
X91460732Y-89450010D01*
X91454102Y-89491477D01*
X91288951Y-89491477D01*
X91288650Y-89489428D01*
X91297940Y-89418328D01*
X91327839Y-89349556D01*
X91328563Y-89348378D01*
X91375794Y-89290964D01*
X91433261Y-89250865D01*
X91497290Y-89227891D01*
X91564206Y-89221854D01*
X91630333Y-89232564D01*
G37*
%TO.C,U6*%
D14*
X76500000Y-72050000D02*
X87569000Y-72050000D01*
X76500000Y-72050000D02*
X105010000Y-72050000D01*
X76500000Y-123000000D02*
X76500000Y-72050000D01*
X76500000Y-123000000D02*
X76500000Y-72050000D01*
X76500000Y-123000000D02*
X81870000Y-123000000D01*
X81870000Y-123000000D02*
X99560000Y-123000000D01*
X87569000Y-72050000D02*
X94280000Y-72050000D01*
X94280000Y-72050000D02*
X105010000Y-72050000D01*
X99560000Y-123000000D02*
X105010000Y-123000000D01*
X105010000Y-72050000D02*
X105010000Y-123000000D01*
X105010000Y-72050000D02*
X105010000Y-123000000D01*
X105010000Y-123000000D02*
X76500000Y-123000000D01*
D15*
X76030000Y-82010000D02*
G75*
G02*
X75830000Y-82010000I-100000J0D01*
G01*
X75830000Y-82010000D02*
G75*
G02*
X76030000Y-82010000I100000J0D01*
G01*
%TO.C,J4*%
D16*
X99130000Y-61620000D02*
X99130000Y-63000000D01*
X97750000Y-61620000D02*
X99130000Y-61620000D01*
X96480000Y-61620000D02*
X93830000Y-61620000D01*
X96480000Y-61620000D02*
X96480000Y-64380000D01*
X93830000Y-61620000D02*
X93830000Y-64380000D01*
X96480000Y-64380000D02*
X93830000Y-64380000D01*
%TO.C,R1*%
X93570000Y-75250000D02*
X94520000Y-75250000D01*
X99310000Y-75250000D02*
X98360000Y-75250000D01*
X94520000Y-74330000D02*
X98360000Y-74330000D01*
X98360000Y-76170000D01*
X94520000Y-76170000D01*
X94520000Y-74330000D01*
%TO.C,J3*%
X102370000Y-66495000D02*
X102370000Y-61305000D01*
X105130000Y-61305000D02*
X102370000Y-61305000D01*
X105130000Y-66495000D02*
X102370000Y-66495000D01*
X105130000Y-66495000D02*
X105130000Y-61305000D01*
X105130000Y-67765000D02*
X105130000Y-69145000D01*
X105130000Y-69145000D02*
X103750000Y-69145000D01*
%TO.C,R2*%
X93570000Y-78250000D02*
X94520000Y-78250000D01*
X99310000Y-78250000D02*
X98360000Y-78250000D01*
X94520000Y-77330000D02*
X98360000Y-77330000D01*
X98360000Y-79170000D01*
X94520000Y-79170000D01*
X94520000Y-77330000D01*
%TO.C,J2*%
X78880000Y-67380000D02*
X77500000Y-67380000D01*
X78880000Y-66000000D02*
X78880000Y-67380000D01*
X78880000Y-64730000D02*
X78880000Y-62080000D01*
X78880000Y-64730000D02*
X76120000Y-64730000D01*
X78880000Y-62080000D02*
X76120000Y-62080000D01*
X76120000Y-64730000D02*
X76120000Y-62080000D01*
%TO.C,U4*%
X80845000Y-120449500D02*
X80845000Y-104860500D01*
X100845000Y-120449500D02*
X80845000Y-120449500D01*
X80845000Y-104860500D02*
X100845000Y-104860500D01*
X100845000Y-104860500D02*
X100845000Y-120449500D01*
X84995000Y-107399500D02*
G75*
G02*
X81695000Y-107399500I-1650000J0D01*
G01*
X81695000Y-107399500D02*
G75*
G02*
X84995000Y-107399500I1650000J0D01*
G01*
X99995000Y-107399500D02*
G75*
G02*
X96695000Y-107399500I-1650000J0D01*
G01*
X96695000Y-107399500D02*
G75*
G02*
X99995000Y-107399500I1650000J0D01*
G01*
%TO.C,C1*%
X99120000Y-67130000D02*
X99120000Y-67467000D01*
X93880000Y-67130000D02*
X99120000Y-67130000D01*
X93880000Y-67467000D02*
X93880000Y-67130000D01*
X99120000Y-69533000D02*
X99120000Y-69870000D01*
X99120000Y-69870000D02*
X93880000Y-69870000D01*
X93880000Y-69870000D02*
X93880000Y-69533000D01*
%TD*%
M02*
