%TF.GenerationSoftware,KiCad,Pcbnew,10.0.1*%
%TF.CreationDate,2026-05-29T15:49:22+03:00*%
%TF.ProjectId,RC_Receiver_PCB_ESP32-WROOM,52435f52-6563-4656-9976-65725f504342,rev?*%
%TF.SameCoordinates,Original*%
%TF.FileFunction,Copper,L1,Top*%
%TF.FilePolarity,Positive*%
%FSLAX46Y46*%
G04 Gerber Fmt 4.6, Leading zero omitted, Abs format (unit mm)*
G04 Created by KiCad (PCBNEW 10.0.1) date 2026-05-29 15:49:22*
%MOMM*%
%LPD*%
G01*
G04 APERTURE LIST*
G04 Aperture macros list*
%AMRoundRect*
0 Rectangle with rounded corners*
0 $1 Rounding radius*
0 $2 $3 $4 $5 $6 $7 $8 $9 X,Y pos of 4 corners*
0 Add a 4 corners polygon primitive as box body*
4,1,4,$2,$3,$4,$5,$6,$7,$8,$9,$2,$3,0*
0 Add four circle primitives for the rounded corners*
1,1,$1+$1,$2,$3*
1,1,$1+$1,$4,$5*
1,1,$1+$1,$6,$7*
1,1,$1+$1,$8,$9*
0 Add four rect primitives between the rounded corners*
20,1,$1+$1,$2,$3,$4,$5,0*
20,1,$1+$1,$4,$5,$6,$7,0*
20,1,$1+$1,$6,$7,$8,$9,0*
20,1,$1+$1,$8,$9,$2,$3,0*%
G04 Aperture macros list end*
%TA.AperFunction,ComponentPad*%
%ADD10R,2.000000X2.000000*%
%TD*%
%TA.AperFunction,ComponentPad*%
%ADD11C,2.000000*%
%TD*%
%TA.AperFunction,ComponentPad*%
%ADD12R,1.700000X1.700000*%
%TD*%
%TA.AperFunction,ComponentPad*%
%ADD13C,1.700000*%
%TD*%
%TA.AperFunction,ComponentPad*%
%ADD14C,1.400000*%
%TD*%
%TA.AperFunction,ComponentPad*%
%ADD15R,1.800000X1.800000*%
%TD*%
%TA.AperFunction,ComponentPad*%
%ADD16O,1.800000X1.800000*%
%TD*%
%TA.AperFunction,ComponentPad*%
%ADD17C,1.650000*%
%TD*%
%TA.AperFunction,ComponentPad*%
%ADD18C,1.600000*%
%TD*%
%TA.AperFunction,ComponentPad*%
%ADD19RoundRect,0.250000X0.950000X0.550000X-0.950000X0.550000X-0.950000X-0.550000X0.950000X-0.550000X0*%
%TD*%
%TA.AperFunction,ComponentPad*%
%ADD20O,2.400000X1.600000*%
%TD*%
%TA.AperFunction,ViaPad*%
%ADD21C,1.600000*%
%TD*%
%TA.AperFunction,Conductor*%
%ADD22C,1.000000*%
%TD*%
%TA.AperFunction,Conductor*%
%ADD23C,2.000000*%
%TD*%
%TA.AperFunction,Conductor*%
%ADD24C,1.200000*%
%TD*%
%TA.AperFunction,Conductor*%
%ADD25C,0.800000*%
%TD*%
G04 APERTURE END LIST*
D10*
%TO.P,U6,1,3V3_1*%
%TO.N,unconnected-(U6-3V3-Pad1)*%
X78080000Y-82010000D03*
D11*
%TO.P,U6,2,GND_2*%
%TO.N,GND*%
X78080000Y-84550000D03*
%TO.P,U6,3,D15_3*%
%TO.N,unconnected-(U6-D15-Pad3)*%
X78080000Y-87090000D03*
%TO.P,U6,4,D2_4*%
%TO.N,unconnected-(U6-D2-Pad4)*%
X78080000Y-89630000D03*
%TO.P,U6,5,D4_5*%
%TO.N,Servo*%
X78080000Y-92170000D03*
%TO.P,U6,6,RX2_6*%
%TO.N,unconnected-(U6-RX2-Pad6)*%
X78080000Y-94710000D03*
%TO.P,U6,7,TX2_7*%
%TO.N,unconnected-(U6-TX2-Pad7)*%
X78080000Y-97250000D03*
%TO.P,U6,8,D5_8*%
%TO.N,unconnected-(U6-D5-Pad8)*%
X78080000Y-99790000D03*
%TO.P,U6,9,D18_9*%
%TO.N,SDA*%
X78080000Y-102330000D03*
%TO.P,U6,10,D19_10*%
%TO.N,SCL*%
X78080000Y-104870000D03*
%TO.P,U6,11,D21_11*%
%TO.N,unconnected-(U6-D21-Pad11)*%
X78080000Y-107410000D03*
%TO.P,U6,12,RX0_12*%
%TO.N,unconnected-(U6-RX0-Pad12)*%
X78080000Y-109950000D03*
%TO.P,U6,13,TX0_13*%
%TO.N,unconnected-(U6-TX0-Pad13)*%
X78080000Y-112490000D03*
%TO.P,U6,14,D22_14*%
%TO.N,unconnected-(U6-D22-Pad14)*%
X78080000Y-115030000D03*
%TO.P,U6,15,D23_15*%
%TO.N,unconnected-(U6-D23-Pad15)*%
X78080000Y-117570000D03*
%TO.P,U6,16,EN_16*%
%TO.N,unconnected-(U6-EN-Pad16)*%
X103480000Y-117570000D03*
%TO.P,U6,17,VP_17*%
%TO.N,unconnected-(U6-VP-Pad17)*%
X103480000Y-115030000D03*
%TO.P,U6,18,VN_18*%
%TO.N,unconnected-(U6-VN-Pad18)*%
X103480000Y-112490000D03*
%TO.P,U6,19,D34_19*%
%TO.N,BTEST*%
X103480000Y-109950000D03*
%TO.P,U6,20,D35_20*%
%TO.N,unconnected-(U6-D35-Pad20)*%
X103480000Y-107410000D03*
%TO.P,U6,21,D32_21*%
%TO.N,unconnected-(U6-D32-Pad21)*%
X103480000Y-104870000D03*
%TO.P,U6,22,D33_22*%
%TO.N,unconnected-(U6-D33-Pad22)*%
X103480000Y-102330000D03*
%TO.P,U6,23,D25_23*%
%TO.N,M2*%
X103480000Y-99790000D03*
%TO.P,U6,24,D26_24*%
%TO.N,M1*%
X103480000Y-97250000D03*
%TO.P,U6,25,D27_25*%
%TO.N,unconnected-(U6-D27-Pad25)*%
X103480000Y-94710000D03*
%TO.P,U6,26,D14_26*%
%TO.N,unconnected-(U6-D14-Pad26)*%
X103480000Y-92170000D03*
%TO.P,U6,27,D12_27*%
%TO.N,unconnected-(U6-D12-Pad27)*%
X103480000Y-89630000D03*
%TO.P,U6,28,D13_28*%
%TO.N,unconnected-(U6-D13-Pad28)*%
X103480000Y-87090000D03*
%TO.P,U6,29,GND_29*%
%TO.N,GND*%
X103480000Y-84550000D03*
%TO.P,U6,30,VIN_30*%
%TO.N,+5V*%
X103480000Y-82010000D03*
%TD*%
D12*
%TO.P,J4,1,Pin_1_1*%
%TO.N,+BATT*%
X97750000Y-63000000D03*
D13*
%TO.P,J4,2,Pin_2_2*%
%TO.N,GND*%
X95210000Y-63000000D03*
%TD*%
D14*
%TO.P,R1,1*%
%TO.N,+BATT*%
X92630000Y-75250000D03*
%TO.P,R1,2*%
%TO.N,BTEST*%
X100250000Y-75250000D03*
%TD*%
D12*
%TO.P,J3,1,Pin_1_1*%
%TO.N,Servo*%
X103750000Y-67765000D03*
D13*
%TO.P,J3,2,Pin_2_2*%
%TO.N,+5V*%
X103750000Y-65225000D03*
%TO.P,J3,3,Pin_3_3*%
%TO.N,GND*%
X103750000Y-62685000D03*
%TD*%
D15*
%TO.P,U2,1,IN(+)_1*%
%TO.N,+BATT*%
X95140000Y-83000000D03*
X97680000Y-83000000D03*
D16*
%TO.P,U2,2,IN(-)_2*%
%TO.N,GND*%
X84460000Y-83000000D03*
X87000000Y-83000000D03*
D15*
%TO.P,U2,3,OUT(+)_3*%
%TO.N,+5V*%
X95140000Y-101550000D03*
X97680000Y-101550000D03*
D16*
%TO.P,U2,4,OUT(-)_4*%
%TO.N,GND*%
X84460000Y-101550000D03*
X87000000Y-101550000D03*
%TD*%
D14*
%TO.P,R2,1*%
%TO.N,BTEST*%
X100250000Y-78250000D03*
%TO.P,R2,2*%
%TO.N,GND*%
X92630000Y-78250000D03*
%TD*%
D12*
%TO.P,J2,1,Pin_1_1*%
%TO.N,Net-(J2-Pin_1)*%
X77500000Y-66000000D03*
D13*
%TO.P,J2,2,Pin_2_2*%
%TO.N,Net-(J2-Pin_2)*%
X77500000Y-63460000D03*
%TD*%
D17*
%TO.P,U4,1,VCC_1*%
%TO.N,+5V*%
X81969000Y-119560500D03*
%TO.P,U4,2,GND_2*%
%TO.N,GND*%
X84509000Y-119560500D03*
%TO.P,U4,3,SCL_3*%
%TO.N,SCL*%
X87049000Y-119560500D03*
%TO.P,U4,4,SDA_4*%
%TO.N,SDA*%
X89589000Y-119560500D03*
%TO.P,U4,5,XDA_5*%
%TO.N,unconnected-(U4-XDA-Pad5)*%
X92129000Y-119560500D03*
%TO.P,U4,6,XCL_6*%
%TO.N,unconnected-(U4-XCL-Pad6)*%
X94669000Y-119560500D03*
%TO.P,U4,7,ADD_7*%
%TO.N,unconnected-(U4-ADD-Pad7)*%
X97209000Y-119560500D03*
%TO.P,U4,8,INT_8*%
%TO.N,unconnected-(U4-INT-Pad8)*%
X99749000Y-119560500D03*
%TD*%
D18*
%TO.P,C1,1*%
%TO.N,+BATT*%
X99000000Y-68500000D03*
%TO.P,C1,2*%
%TO.N,GND*%
X94000000Y-68500000D03*
%TD*%
D19*
%TO.P,U1,1,BI_1*%
%TO.N,M1*%
X89000000Y-63000000D03*
D20*
%TO.P,U1,2,FI_2*%
%TO.N,M2*%
X89000000Y-65540000D03*
%TO.P,U1,3,GND_3*%
%TO.N,GND*%
X89000000Y-68080000D03*
%TO.P,U1,4,Vcc_4*%
%TO.N,+BATT*%
X89000000Y-70620000D03*
%TO.P,U1,5,FO_5*%
%TO.N,Net-(J2-Pin_1)*%
X81380000Y-70620000D03*
%TO.P,U1,6,FO_6*%
X81380000Y-68080000D03*
%TO.P,U1,7,BO_7*%
%TO.N,Net-(J2-Pin_2)*%
X81380000Y-65540000D03*
%TO.P,U1,8,BO_8*%
X81380000Y-63000000D03*
%TD*%
D21*
%TO.N,BTEST*%
X100250000Y-92500000D03*
%TD*%
%TO.N,GND*%
D22*
X97230000Y-73650000D02*
X92630000Y-78250000D01*
X100912742Y-73650000D02*
X97230000Y-73650000D01*
X101850000Y-74587258D02*
X100912742Y-73650000D01*
X101850000Y-78912742D02*
X101850000Y-74587258D01*
X101580000Y-84064213D02*
X101580000Y-79182742D01*
X101580000Y-79182742D02*
X101850000Y-78912742D01*
X102065787Y-84550000D02*
X101580000Y-84064213D01*
X103480000Y-84550000D02*
X102065787Y-84550000D01*
%TO.N,BTEST*%
X99500000Y-91750000D02*
X100250000Y-92500000D01*
X99500000Y-79000000D02*
X99500000Y-91750000D01*
X100250000Y-78250000D02*
X99500000Y-79000000D01*
%TO.N,GND*%
D23*
X84460000Y-101550000D02*
X87000000Y-101550000D01*
%TO.N,+5V*%
D24*
X97680000Y-101550000D02*
X95140000Y-101550000D01*
%TO.N,SDA*%
D25*
X89589000Y-112424787D02*
X89589000Y-119560500D01*
X79494213Y-102330000D02*
X89589000Y-112424787D01*
X78080000Y-102330000D02*
X79494213Y-102330000D01*
%TO.N,SCL*%
X79494213Y-104870000D02*
X87049000Y-112424787D01*
X78080000Y-104870000D02*
X79494213Y-104870000D01*
X87049000Y-112424787D02*
X87049000Y-119560500D01*
%TO.N,+5V*%
D24*
X101250000Y-66565000D02*
X102590000Y-65225000D01*
X101250000Y-71250000D02*
X101250000Y-66565000D01*
X103480000Y-73480000D02*
X101250000Y-71250000D01*
X102590000Y-65225000D02*
X103750000Y-65225000D01*
X103480000Y-82010000D02*
X103480000Y-73480000D01*
%TO.N,BTEST*%
D22*
X100250000Y-75250000D02*
X100250000Y-78250000D01*
%TO.N,M1*%
D25*
X102065787Y-97250000D02*
X103480000Y-97250000D01*
X91000000Y-82802944D02*
X91880000Y-83682944D01*
X91880000Y-83682944D02*
X91880000Y-87064213D01*
X91880000Y-87064213D02*
X102065787Y-97250000D01*
X91000000Y-64750000D02*
X91000000Y-82802944D01*
X89250000Y-63000000D02*
X91000000Y-64750000D01*
X89000000Y-63000000D02*
X89250000Y-63000000D01*
%TO.N,M2*%
X90680000Y-88404213D02*
X102065787Y-99790000D01*
X102065787Y-99790000D02*
X103480000Y-99790000D01*
X90680000Y-84180000D02*
X90680000Y-88404213D01*
X87000000Y-66340000D02*
X87000000Y-80500000D01*
X87000000Y-80500000D02*
X90680000Y-84180000D01*
X87800000Y-65540000D02*
X87000000Y-66340000D01*
X89000000Y-65540000D02*
X87800000Y-65540000D01*
%TD*%
%TA.AperFunction,Conductor*%
%TO.N,GND*%
G36*
X86534075Y-101357007D02*
G01*
X86500000Y-101484174D01*
X86500000Y-101615826D01*
X86534075Y-101742993D01*
X86566988Y-101800000D01*
X84893012Y-101800000D01*
X84925925Y-101742993D01*
X84960000Y-101615826D01*
X84960000Y-101484174D01*
X84925925Y-101357007D01*
X84893012Y-101300000D01*
X86566988Y-101300000D01*
X86534075Y-101357007D01*
G37*
%TD.AperFunction*%
%TA.AperFunction,Conductor*%
G36*
X87016811Y-61520185D02*
G01*
X87062566Y-61572989D01*
X87072510Y-61642147D01*
X87051700Y-61695116D01*
X86957997Y-61830367D01*
X86957991Y-61830377D01*
X86864903Y-62035318D01*
X86864902Y-62035321D01*
X86809905Y-62253579D01*
X86809904Y-62253586D01*
X86799500Y-62385777D01*
X86799500Y-63614208D01*
X86799501Y-63614223D01*
X86809904Y-63746413D01*
X86809905Y-63746420D01*
X86864902Y-63964678D01*
X86864903Y-63964681D01*
X86869622Y-63975071D01*
X86933303Y-64115270D01*
X86957995Y-64169630D01*
X87004620Y-64236929D01*
X87026617Y-64303245D01*
X87009269Y-64370927D01*
X86975578Y-64407863D01*
X86887636Y-64471756D01*
X85931752Y-65427640D01*
X85823698Y-65576367D01*
X85802187Y-65605974D01*
X85702104Y-65802393D01*
X85702103Y-65802396D01*
X85633985Y-66012047D01*
X85599499Y-66229779D01*
X85599499Y-66455332D01*
X85599500Y-66455357D01*
X85599500Y-80385362D01*
X85599499Y-80385377D01*
X85599499Y-80610220D01*
X85633985Y-80827952D01*
X85702103Y-81037603D01*
X85702104Y-81037606D01*
X85802187Y-81234025D01*
X85931751Y-81412357D01*
X85931755Y-81412361D01*
X85931758Y-81412365D01*
X86065983Y-81546590D01*
X86091965Y-81572572D01*
X86091976Y-81572582D01*
X86195878Y-81676484D01*
X86229363Y-81737807D01*
X86224379Y-81807499D01*
X86182507Y-81863432D01*
X86181083Y-81864483D01*
X86087959Y-81932142D01*
X86087958Y-81932142D01*
X85932142Y-82087958D01*
X85932142Y-82087959D01*
X85830318Y-82228107D01*
X85774988Y-82270772D01*
X85705374Y-82276751D01*
X85643579Y-82244145D01*
X85629682Y-82228107D01*
X85527857Y-82087959D01*
X85527857Y-82087958D01*
X85372041Y-81932142D01*
X85193760Y-81802613D01*
X84997410Y-81702567D01*
X84787836Y-81634473D01*
X84710000Y-81622144D01*
X84710000Y-82566988D01*
X84652993Y-82534075D01*
X84525826Y-82500000D01*
X84394174Y-82500000D01*
X84267007Y-82534075D01*
X84210000Y-82566988D01*
X84210000Y-81622144D01*
X84132164Y-81634473D01*
X84132161Y-81634473D01*
X83922589Y-81702567D01*
X83726239Y-81802613D01*
X83547958Y-81932142D01*
X83392142Y-82087958D01*
X83262613Y-82266239D01*
X83162567Y-82462589D01*
X83094473Y-82672161D01*
X83094473Y-82672164D01*
X83082145Y-82750000D01*
X84026988Y-82750000D01*
X83994075Y-82807007D01*
X83960000Y-82934174D01*
X83960000Y-83065826D01*
X83994075Y-83192993D01*
X84026988Y-83250000D01*
X83082145Y-83250000D01*
X83094473Y-83327835D01*
X83094473Y-83327838D01*
X83162567Y-83537410D01*
X83262613Y-83733760D01*
X83392142Y-83912041D01*
X83547958Y-84067857D01*
X83726239Y-84197386D01*
X83922589Y-84297432D01*
X84132163Y-84365526D01*
X84209999Y-84377854D01*
X84210000Y-84377854D01*
X84210000Y-83433012D01*
X84267007Y-83465925D01*
X84394174Y-83500000D01*
X84525826Y-83500000D01*
X84652993Y-83465925D01*
X84710000Y-83433012D01*
X84710000Y-84377854D01*
X84787834Y-84365526D01*
X84787837Y-84365526D01*
X84997410Y-84297432D01*
X85193760Y-84197386D01*
X85372041Y-84067857D01*
X85527857Y-83912041D01*
X85527862Y-83912035D01*
X85629682Y-83771893D01*
X85685012Y-83729227D01*
X85754625Y-83723248D01*
X85816420Y-83755854D01*
X85830318Y-83771893D01*
X85932137Y-83912035D01*
X85932142Y-83912041D01*
X86087958Y-84067857D01*
X86266239Y-84197386D01*
X86462589Y-84297432D01*
X86672163Y-84365526D01*
X86749999Y-84377854D01*
X86750000Y-84377854D01*
X86750000Y-83433012D01*
X86807007Y-83465925D01*
X86934174Y-83500000D01*
X87065826Y-83500000D01*
X87192993Y-83465925D01*
X87250000Y-83433012D01*
X87250000Y-84377854D01*
X87327834Y-84365526D01*
X87327837Y-84365526D01*
X87537410Y-84297432D01*
X87733760Y-84197386D01*
X87912041Y-84067857D01*
X88067856Y-83912042D01*
X88135515Y-83818917D01*
X88190845Y-83776251D01*
X88260458Y-83770272D01*
X88322254Y-83802877D01*
X88323515Y-83804121D01*
X89243181Y-84723787D01*
X89276666Y-84785110D01*
X89279500Y-84811468D01*
X89279500Y-88289575D01*
X89279499Y-88289590D01*
X89279499Y-88514433D01*
X89293131Y-88600500D01*
X89293131Y-88600501D01*
X89313985Y-88732165D01*
X89382103Y-88941816D01*
X89382104Y-88941819D01*
X89482187Y-89138238D01*
X89611751Y-89316570D01*
X89611755Y-89316574D01*
X89611758Y-89316578D01*
X89767635Y-89472455D01*
X89771965Y-89476785D01*
X89771976Y-89476795D01*
X100994419Y-100699238D01*
X100994433Y-100699253D01*
X100997544Y-100702364D01*
X100997545Y-100702365D01*
X101153422Y-100858242D01*
X101153425Y-100858244D01*
X101153429Y-100858248D01*
X101315159Y-100975750D01*
X101331765Y-100987815D01*
X101453187Y-101049683D01*
X101528180Y-101087895D01*
X101528183Y-101087896D01*
X101684815Y-101138788D01*
X101742490Y-101178225D01*
X101769689Y-101242583D01*
X101757775Y-101311430D01*
X101753885Y-101318718D01*
X101681956Y-101443304D01*
X101681953Y-101443309D01*
X101581605Y-101685571D01*
X101581602Y-101685581D01*
X101513730Y-101938884D01*
X101509926Y-101967772D01*
X101479500Y-102198872D01*
X101479500Y-102461127D01*
X101500135Y-102617857D01*
X101513730Y-102721116D01*
X101565822Y-102915526D01*
X101581602Y-102974418D01*
X101581605Y-102974428D01*
X101681953Y-103216690D01*
X101681958Y-103216700D01*
X101813075Y-103443802D01*
X101875007Y-103524514D01*
X101900201Y-103589683D01*
X101886162Y-103658128D01*
X101875007Y-103675486D01*
X101813075Y-103756197D01*
X101681958Y-103983299D01*
X101681953Y-103983309D01*
X101581605Y-104225571D01*
X101581602Y-104225581D01*
X101513730Y-104478885D01*
X101479500Y-104738872D01*
X101479500Y-105001127D01*
X101506123Y-105203339D01*
X101513730Y-105261116D01*
X101581602Y-105514418D01*
X101581605Y-105514428D01*
X101681953Y-105756690D01*
X101681958Y-105756700D01*
X101813075Y-105983802D01*
X101864265Y-106050514D01*
X101889459Y-106115683D01*
X101875421Y-106184128D01*
X101826607Y-106234117D01*
X101765889Y-106250000D01*
X85446181Y-106250000D01*
X85379142Y-106230315D01*
X85358500Y-106213681D01*
X80566795Y-101421976D01*
X80566786Y-101421966D01*
X80501827Y-101357007D01*
X80444820Y-101300000D01*
X83082145Y-101300000D01*
X84026988Y-101300000D01*
X83994075Y-101357007D01*
X83960000Y-101484174D01*
X83960000Y-101615826D01*
X83994075Y-101742993D01*
X84026988Y-101800000D01*
X83082145Y-101800000D01*
X83094473Y-101877835D01*
X83094473Y-101877838D01*
X83162567Y-102087410D01*
X83262613Y-102283760D01*
X83392142Y-102462041D01*
X83547958Y-102617857D01*
X83726239Y-102747386D01*
X83922589Y-102847432D01*
X84132163Y-102915526D01*
X84209999Y-102927854D01*
X84210000Y-102927854D01*
X84210000Y-101983012D01*
X84267007Y-102015925D01*
X84394174Y-102050000D01*
X84525826Y-102050000D01*
X84652993Y-102015925D01*
X84710000Y-101983012D01*
X84710000Y-102927854D01*
X84787834Y-102915526D01*
X84787837Y-102915526D01*
X84997410Y-102847432D01*
X85193760Y-102747386D01*
X85372041Y-102617857D01*
X85527857Y-102462041D01*
X85527862Y-102462035D01*
X85629682Y-102321893D01*
X85685012Y-102279227D01*
X85754625Y-102273248D01*
X85816420Y-102305854D01*
X85830318Y-102321893D01*
X85932137Y-102462035D01*
X85932142Y-102462041D01*
X86087958Y-102617857D01*
X86266239Y-102747386D01*
X86462589Y-102847432D01*
X86672163Y-102915526D01*
X86749999Y-102927854D01*
X86750000Y-102927854D01*
X86750000Y-101983012D01*
X86807007Y-102015925D01*
X86934174Y-102050000D01*
X87065826Y-102050000D01*
X87192993Y-102015925D01*
X87250000Y-101983012D01*
X87250000Y-102927854D01*
X87327834Y-102915526D01*
X87327837Y-102915526D01*
X87537410Y-102847432D01*
X87733760Y-102747386D01*
X87912041Y-102617857D01*
X88067857Y-102462041D01*
X88197386Y-102283760D01*
X88297432Y-102087410D01*
X88365526Y-101877838D01*
X88365526Y-101877835D01*
X88377855Y-101800000D01*
X87433012Y-101800000D01*
X87465925Y-101742993D01*
X87500000Y-101615826D01*
X87500000Y-101484174D01*
X87465925Y-101357007D01*
X87433012Y-101300000D01*
X88377855Y-101300000D01*
X88365526Y-101222164D01*
X88365526Y-101222161D01*
X88297432Y-101012589D01*
X88197386Y-100816239D01*
X88085397Y-100662100D01*
X88085396Y-100662099D01*
X88067856Y-100637957D01*
X88021865Y-100591966D01*
X93239500Y-100591966D01*
X93239500Y-102508028D01*
X93239501Y-102508034D01*
X93250113Y-102627415D01*
X93306089Y-102823045D01*
X93306090Y-102823048D01*
X93306091Y-102823049D01*
X93400302Y-103003407D01*
X93400304Y-103003409D01*
X93528890Y-103161109D01*
X93597064Y-103216697D01*
X93686593Y-103289698D01*
X93866951Y-103383909D01*
X93866953Y-103383909D01*
X93866954Y-103383910D01*
X93886355Y-103389461D01*
X94062582Y-103439886D01*
X94181963Y-103450500D01*
X96098036Y-103450499D01*
X96217418Y-103439886D01*
X96375891Y-103394541D01*
X96444109Y-103394541D01*
X96602582Y-103439886D01*
X96721963Y-103450500D01*
X98638036Y-103450499D01*
X98757418Y-103439886D01*
X98953049Y-103383909D01*
X99133407Y-103289698D01*
X99291109Y-103161109D01*
X99419698Y-103003407D01*
X99513909Y-102823049D01*
X99569886Y-102627418D01*
X99580500Y-102508037D01*
X99580499Y-100591964D01*
X99569886Y-100472582D01*
X99513909Y-100276951D01*
X99419698Y-100096593D01*
X99367684Y-100032803D01*
X99291109Y-99938890D01*
X99133409Y-99810304D01*
X99133410Y-99810304D01*
X99133407Y-99810302D01*
X98953049Y-99716091D01*
X98953048Y-99716090D01*
X98953045Y-99716089D01*
X98835829Y-99682550D01*
X98757418Y-99660114D01*
X98757415Y-99660113D01*
X98757413Y-99660113D01*
X98691102Y-99654217D01*
X98638037Y-99649500D01*
X98638032Y-99649500D01*
X96721971Y-99649500D01*
X96721965Y-99649500D01*
X96721964Y-99649501D01*
X96710316Y-99650536D01*
X96602584Y-99660113D01*
X96444111Y-99705457D01*
X96375889Y-99705457D01*
X96262092Y-99672896D01*
X96217418Y-99660114D01*
X96217416Y-99660113D01*
X96217413Y-99660113D01*
X96151102Y-99654217D01*
X96098037Y-99649500D01*
X96098032Y-99649500D01*
X94181971Y-99649500D01*
X94181965Y-99649500D01*
X94181964Y-99649501D01*
X94170316Y-99650536D01*
X94062584Y-99660113D01*
X93866954Y-99716089D01*
X93776772Y-99763196D01*
X93686593Y-99810302D01*
X93686591Y-99810303D01*
X93686590Y-99810304D01*
X93528890Y-99938890D01*
X93400304Y-100096590D01*
X93306089Y-100276954D01*
X93250114Y-100472583D01*
X93250113Y-100472586D01*
X93239500Y-100591966D01*
X88021865Y-100591966D01*
X87912041Y-100482142D01*
X87733760Y-100352613D01*
X87537410Y-100252567D01*
X87327836Y-100184473D01*
X87250000Y-100172144D01*
X87250000Y-101116988D01*
X87192993Y-101084075D01*
X87065826Y-101050000D01*
X86934174Y-101050000D01*
X86807007Y-101084075D01*
X86750000Y-101116988D01*
X86750000Y-100172144D01*
X86672164Y-100184473D01*
X86672161Y-100184473D01*
X86462589Y-100252567D01*
X86266239Y-100352613D01*
X86087958Y-100482142D01*
X85932142Y-100637958D01*
X85932142Y-100637959D01*
X85830318Y-100778107D01*
X85774988Y-100820772D01*
X85705374Y-100826751D01*
X85643579Y-100794145D01*
X85629682Y-100778107D01*
X85527857Y-100637959D01*
X85527857Y-100637958D01*
X85372041Y-100482142D01*
X85193760Y-100352613D01*
X84997410Y-100252567D01*
X84787836Y-100184473D01*
X84710000Y-100172144D01*
X84710000Y-101116988D01*
X84652993Y-101084075D01*
X84525826Y-101050000D01*
X84394174Y-101050000D01*
X84267007Y-101084075D01*
X84210000Y-101116988D01*
X84210000Y-100172144D01*
X84132164Y-100184473D01*
X84132161Y-100184473D01*
X83922589Y-100252567D01*
X83726239Y-100352613D01*
X83547958Y-100482142D01*
X83392142Y-100637958D01*
X83262613Y-100816239D01*
X83162567Y-101012589D01*
X83094473Y-101222161D01*
X83094473Y-101222164D01*
X83082145Y-101300000D01*
X80444820Y-101300000D01*
X80406578Y-101261758D01*
X80406574Y-101261755D01*
X80406570Y-101261751D01*
X80228238Y-101132187D01*
X80228237Y-101132186D01*
X80228235Y-101132185D01*
X80133815Y-101084075D01*
X80031819Y-101032104D01*
X80031816Y-101032103D01*
X79875183Y-100981211D01*
X79817508Y-100941774D01*
X79790309Y-100877415D01*
X79802223Y-100808569D01*
X79806090Y-100801323D01*
X79878043Y-100676697D01*
X79978398Y-100434419D01*
X80046270Y-100181116D01*
X80080500Y-99921120D01*
X80080500Y-99658880D01*
X80046270Y-99398884D01*
X79978398Y-99145581D01*
X79943473Y-99061265D01*
X79878046Y-98903309D01*
X79878041Y-98903299D01*
X79746927Y-98676203D01*
X79746924Y-98676197D01*
X79684991Y-98595485D01*
X79659797Y-98530319D01*
X79673835Y-98461874D01*
X79684991Y-98444514D01*
X79746924Y-98363803D01*
X79878043Y-98136697D01*
X79978398Y-97894419D01*
X80046270Y-97641116D01*
X80080500Y-97381120D01*
X80080500Y-97118880D01*
X80046270Y-96858884D01*
X79978398Y-96605581D01*
X79943473Y-96521265D01*
X79878046Y-96363309D01*
X79878041Y-96363299D01*
X79746927Y-96136203D01*
X79746924Y-96136197D01*
X79684991Y-96055485D01*
X79659797Y-95990319D01*
X79673835Y-95921874D01*
X79684991Y-95904514D01*
X79746924Y-95823803D01*
X79878043Y-95596697D01*
X79978398Y-95354419D01*
X80046270Y-95101116D01*
X80080500Y-94841120D01*
X80080500Y-94578880D01*
X80046270Y-94318884D01*
X79978398Y-94065581D01*
X79952613Y-94003330D01*
X79878046Y-93823309D01*
X79878041Y-93823299D01*
X79746927Y-93596203D01*
X79746924Y-93596197D01*
X79684991Y-93515485D01*
X79659797Y-93450319D01*
X79673835Y-93381874D01*
X79684991Y-93364514D01*
X79746924Y-93283803D01*
X79878043Y-93056697D01*
X79978398Y-92814419D01*
X80046270Y-92561116D01*
X80080500Y-92301120D01*
X80080500Y-92038880D01*
X80046270Y-91778884D01*
X79978398Y-91525581D01*
X79943473Y-91441265D01*
X79878046Y-91283309D01*
X79878041Y-91283299D01*
X79746927Y-91056203D01*
X79746924Y-91056197D01*
X79684991Y-90975485D01*
X79659797Y-90910319D01*
X79673835Y-90841874D01*
X79684991Y-90824514D01*
X79746924Y-90743803D01*
X79878043Y-90516697D01*
X79978398Y-90274419D01*
X80046270Y-90021116D01*
X80080500Y-89761120D01*
X80080500Y-89498880D01*
X80046270Y-89238884D01*
X79978398Y-88985581D01*
X79943473Y-88901265D01*
X79878046Y-88743309D01*
X79878041Y-88743299D01*
X79825595Y-88652460D01*
X79746924Y-88516197D01*
X79684991Y-88435485D01*
X79659797Y-88370319D01*
X79673835Y-88301874D01*
X79684991Y-88284514D01*
X79746924Y-88203803D01*
X79878043Y-87976697D01*
X79978398Y-87734419D01*
X80046270Y-87481116D01*
X80080500Y-87221120D01*
X80080500Y-86958880D01*
X80046270Y-86698884D01*
X79978398Y-86445581D01*
X79943473Y-86361265D01*
X79878046Y-86203309D01*
X79878041Y-86203299D01*
X79746924Y-85976196D01*
X79587281Y-85768148D01*
X79587274Y-85768140D01*
X79401856Y-85582722D01*
X79401849Y-85582716D01*
X79357676Y-85548821D01*
X79316473Y-85492393D01*
X79312318Y-85422647D01*
X79332845Y-85377558D01*
X79362914Y-85336172D01*
X79470102Y-85125802D01*
X79543065Y-84901247D01*
X79580000Y-84668052D01*
X79580000Y-84431947D01*
X79543065Y-84198754D01*
X79491607Y-84040382D01*
X79489612Y-83970540D01*
X79525692Y-83910707D01*
X79552121Y-83892158D01*
X79633407Y-83849698D01*
X79791109Y-83721109D01*
X79919698Y-83563407D01*
X80013909Y-83383049D01*
X80069886Y-83187418D01*
X80080500Y-83068037D01*
X80080499Y-81932142D01*
X80080499Y-80951971D01*
X80080499Y-80951964D01*
X80069886Y-80832582D01*
X80013909Y-80636951D01*
X79919698Y-80456593D01*
X79861617Y-80385362D01*
X79791109Y-80298890D01*
X79633409Y-80170304D01*
X79633410Y-80170304D01*
X79633407Y-80170302D01*
X79453049Y-80076091D01*
X79453048Y-80076090D01*
X79453045Y-80076089D01*
X79335829Y-80042550D01*
X79257418Y-80020114D01*
X79257415Y-80020113D01*
X79257413Y-80020113D01*
X79191102Y-80014217D01*
X79138037Y-80009500D01*
X79138032Y-80009500D01*
X77021971Y-80009500D01*
X77021965Y-80009500D01*
X77021964Y-80009501D01*
X77010316Y-80010536D01*
X76902584Y-80020113D01*
X76706954Y-80076089D01*
X76616772Y-80123196D01*
X76526593Y-80170302D01*
X76526591Y-80170303D01*
X76526590Y-80170304D01*
X76368890Y-80298890D01*
X76240302Y-80456593D01*
X76240300Y-80456595D01*
X76234408Y-80467876D01*
X76185921Y-80518183D01*
X76117933Y-80534290D01*
X76052030Y-80511083D01*
X76009136Y-80455930D01*
X76000500Y-80410464D01*
X76000500Y-67844173D01*
X76020185Y-67777134D01*
X76072989Y-67731379D01*
X76142147Y-67721435D01*
X76181907Y-67734262D01*
X76276951Y-67783909D01*
X76472582Y-67839886D01*
X76591963Y-67850500D01*
X78408036Y-67850499D01*
X78527418Y-67839886D01*
X78723049Y-67783909D01*
X78903407Y-67689698D01*
X79011752Y-67601353D01*
X79076148Y-67574244D01*
X79144978Y-67586253D01*
X79196388Y-67633568D01*
X79214057Y-67701167D01*
X79210716Y-67723928D01*
X79211099Y-67724005D01*
X79210307Y-67727986D01*
X79179501Y-67961979D01*
X79179500Y-67961995D01*
X79179500Y-68198004D01*
X79179501Y-68198020D01*
X79210306Y-68432010D01*
X79271394Y-68659993D01*
X79361714Y-68878045D01*
X79361719Y-68878056D01*
X79374389Y-68900000D01*
X79479727Y-69082450D01*
X79479729Y-69082453D01*
X79479730Y-69082454D01*
X79625879Y-69272920D01*
X79624720Y-69273808D01*
X79651537Y-69331662D01*
X79641983Y-69400876D01*
X79625385Y-69426701D01*
X79625879Y-69427080D01*
X79479730Y-69617545D01*
X79361719Y-69821943D01*
X79361714Y-69821954D01*
X79271394Y-70040006D01*
X79210306Y-70267989D01*
X79179501Y-70501979D01*
X79179500Y-70501995D01*
X79179500Y-70738004D01*
X79179501Y-70738020D01*
X79210306Y-70972010D01*
X79271394Y-71199993D01*
X79361714Y-71418045D01*
X79361719Y-71418056D01*
X79432677Y-71540957D01*
X79479727Y-71622450D01*
X79479729Y-71622453D01*
X79479730Y-71622454D01*
X79623406Y-71809697D01*
X79623412Y-71809704D01*
X79790295Y-71976587D01*
X79790301Y-71976592D01*
X79977550Y-72120273D01*
X80108918Y-72196118D01*
X80181943Y-72238280D01*
X80181948Y-72238282D01*
X80181951Y-72238284D01*
X80400007Y-72328606D01*
X80627986Y-72389693D01*
X80861989Y-72420500D01*
X80861996Y-72420500D01*
X81898004Y-72420500D01*
X81898011Y-72420500D01*
X82132014Y-72389693D01*
X82359993Y-72328606D01*
X82578049Y-72238284D01*
X82782450Y-72120273D01*
X82969699Y-71976592D01*
X83136592Y-71809699D01*
X83280273Y-71622450D01*
X83398284Y-71418049D01*
X83488606Y-71199993D01*
X83549693Y-70972014D01*
X83580500Y-70738011D01*
X83580500Y-70501989D01*
X83549693Y-70267986D01*
X83488606Y-70040007D01*
X83398284Y-69821951D01*
X83398282Y-69821948D01*
X83398280Y-69821943D01*
X83331222Y-69705797D01*
X83280273Y-69617550D01*
X83191954Y-69502450D01*
X83134121Y-69427080D01*
X83135286Y-69426185D01*
X83108469Y-69368381D01*
X83117998Y-69299165D01*
X83134619Y-69273302D01*
X83134121Y-69272920D01*
X83188814Y-69201641D01*
X83280273Y-69082450D01*
X83398284Y-68878049D01*
X83488606Y-68659993D01*
X83549693Y-68432014D01*
X83580500Y-68198011D01*
X83580500Y-67961989D01*
X83549693Y-67727986D01*
X83488606Y-67500007D01*
X83398284Y-67281951D01*
X83398282Y-67281948D01*
X83398280Y-67281943D01*
X83356118Y-67208918D01*
X83280273Y-67077550D01*
X83220560Y-66999730D01*
X83134121Y-66887080D01*
X83135286Y-66886185D01*
X83108469Y-66828381D01*
X83117998Y-66759165D01*
X83134619Y-66733302D01*
X83134121Y-66732920D01*
X83198961Y-66648418D01*
X83280273Y-66542450D01*
X83398284Y-66338049D01*
X83488606Y-66119993D01*
X83549693Y-65892014D01*
X83580500Y-65658011D01*
X83580500Y-65421989D01*
X83549693Y-65187986D01*
X83488606Y-64960007D01*
X83398284Y-64741951D01*
X83398282Y-64741948D01*
X83398280Y-64741943D01*
X83342014Y-64644489D01*
X83280273Y-64537550D01*
X83247105Y-64494325D01*
X83134121Y-64347080D01*
X83135286Y-64346185D01*
X83108469Y-64288381D01*
X83117998Y-64219165D01*
X83134619Y-64193302D01*
X83134121Y-64192920D01*
X83193704Y-64115269D01*
X83280273Y-64002450D01*
X83398284Y-63798049D01*
X83488606Y-63579993D01*
X83549693Y-63352014D01*
X83580500Y-63118011D01*
X83580500Y-62881989D01*
X83549693Y-62647986D01*
X83488606Y-62420007D01*
X83398284Y-62201951D01*
X83398282Y-62201948D01*
X83398280Y-62201943D01*
X83334787Y-62091971D01*
X83280273Y-61997550D01*
X83136592Y-61810301D01*
X83136587Y-61810295D01*
X83038473Y-61712181D01*
X83004988Y-61650858D01*
X83009972Y-61581166D01*
X83051844Y-61525233D01*
X83117308Y-61500816D01*
X83126154Y-61500500D01*
X86949772Y-61500500D01*
X87016811Y-61520185D01*
G37*
%TD.AperFunction*%
%TA.AperFunction,Conductor*%
G36*
X101844218Y-79198431D02*
G01*
X101876971Y-79260148D01*
X101879500Y-79285063D01*
X101879500Y-80767538D01*
X101859815Y-80834577D01*
X101853877Y-80843023D01*
X101813074Y-80896198D01*
X101681958Y-81123299D01*
X101681953Y-81123309D01*
X101581605Y-81365571D01*
X101581602Y-81365581D01*
X101527300Y-81568242D01*
X101513730Y-81618885D01*
X101479500Y-81878872D01*
X101479500Y-82141127D01*
X101506123Y-82343339D01*
X101513730Y-82401116D01*
X101570126Y-82611590D01*
X101581602Y-82654418D01*
X101581605Y-82654428D01*
X101681953Y-82896690D01*
X101681958Y-82896700D01*
X101813075Y-83123803D01*
X101972718Y-83331851D01*
X101972726Y-83331860D01*
X102158143Y-83517277D01*
X102158150Y-83517283D01*
X102202323Y-83551178D01*
X102243526Y-83607605D01*
X102247681Y-83677351D01*
X102227157Y-83722437D01*
X102197084Y-83763830D01*
X102089897Y-83974197D01*
X102016934Y-84198752D01*
X101980000Y-84431947D01*
X101980000Y-84668052D01*
X102016934Y-84901247D01*
X102089897Y-85125802D01*
X102197087Y-85336174D01*
X102227155Y-85377560D01*
X102250635Y-85443366D01*
X102234809Y-85511420D01*
X102202325Y-85548819D01*
X102158151Y-85582716D01*
X102158140Y-85582726D01*
X101972718Y-85768148D01*
X101813075Y-85976196D01*
X101681958Y-86203299D01*
X101681953Y-86203309D01*
X101581605Y-86445571D01*
X101581602Y-86445581D01*
X101561548Y-86520426D01*
X101513730Y-86698885D01*
X101479500Y-86958872D01*
X101479500Y-87221127D01*
X101506123Y-87423339D01*
X101513730Y-87481116D01*
X101581602Y-87734418D01*
X101581605Y-87734428D01*
X101681953Y-87976690D01*
X101681958Y-87976700D01*
X101813075Y-88203802D01*
X101875007Y-88284514D01*
X101900201Y-88349683D01*
X101886162Y-88418128D01*
X101875007Y-88435486D01*
X101813075Y-88516197D01*
X101681958Y-88743299D01*
X101681953Y-88743309D01*
X101581605Y-88985571D01*
X101581602Y-88985581D01*
X101513730Y-89238885D01*
X101479500Y-89498872D01*
X101479500Y-89761127D01*
X101506123Y-89963339D01*
X101513730Y-90021116D01*
X101581602Y-90274418D01*
X101581605Y-90274428D01*
X101681953Y-90516690D01*
X101681958Y-90516700D01*
X101813075Y-90743802D01*
X101875007Y-90824514D01*
X101900201Y-90889683D01*
X101886162Y-90958128D01*
X101875007Y-90975486D01*
X101813075Y-91056197D01*
X101725289Y-91208248D01*
X101674722Y-91256464D01*
X101606115Y-91269687D01*
X101541250Y-91243719D01*
X101530221Y-91233929D01*
X101439704Y-91143412D01*
X101439697Y-91143406D01*
X101252457Y-90999732D01*
X101252455Y-90999730D01*
X101252450Y-90999727D01*
X101143548Y-90936852D01*
X101062499Y-90890058D01*
X101014284Y-90839490D01*
X101000500Y-90782671D01*
X101000500Y-79851858D01*
X101020185Y-79784819D01*
X101062498Y-79744472D01*
X101196774Y-79666948D01*
X101373624Y-79531247D01*
X101531247Y-79373624D01*
X101657124Y-79209577D01*
X101713551Y-79168374D01*
X101783298Y-79164219D01*
X101844218Y-79198431D01*
G37*
%TD.AperFunction*%
%TA.AperFunction,Conductor*%
G36*
X86534075Y-82807007D02*
G01*
X86500000Y-82934174D01*
X86500000Y-83065826D01*
X86534075Y-83192993D01*
X86566988Y-83250000D01*
X84893012Y-83250000D01*
X84925925Y-83192993D01*
X84960000Y-83065826D01*
X84960000Y-82934174D01*
X84925925Y-82807007D01*
X84893012Y-82750000D01*
X86566988Y-82750000D01*
X86534075Y-82807007D01*
G37*
%TD.AperFunction*%
%TA.AperFunction,Conductor*%
G36*
X94740427Y-61520185D02*
G01*
X94786182Y-61572989D01*
X94796126Y-61642147D01*
X94767101Y-61705703D01*
X94711706Y-61742431D01*
X94691782Y-61748904D01*
X94502439Y-61845380D01*
X94448282Y-61884727D01*
X94448282Y-61884728D01*
X95080591Y-62517037D01*
X95017007Y-62534075D01*
X94902993Y-62599901D01*
X94809901Y-62692993D01*
X94744075Y-62807007D01*
X94727037Y-62870591D01*
X94094728Y-62238282D01*
X94094727Y-62238282D01*
X94055380Y-62292439D01*
X93958904Y-62481782D01*
X93893242Y-62683869D01*
X93893242Y-62683872D01*
X93860000Y-62893753D01*
X93860000Y-63106246D01*
X93893242Y-63316127D01*
X93893242Y-63316130D01*
X93958904Y-63518217D01*
X94055375Y-63707550D01*
X94094728Y-63761716D01*
X94727037Y-63129408D01*
X94744075Y-63192993D01*
X94809901Y-63307007D01*
X94902993Y-63400099D01*
X95017007Y-63465925D01*
X95080589Y-63482962D01*
X94448282Y-64115269D01*
X94448282Y-64115270D01*
X94502449Y-64154624D01*
X94691782Y-64251095D01*
X94893870Y-64316757D01*
X95103754Y-64350000D01*
X95316246Y-64350000D01*
X95526127Y-64316757D01*
X95526130Y-64316757D01*
X95728219Y-64251094D01*
X95818286Y-64205202D01*
X95886955Y-64192305D01*
X95951695Y-64218580D01*
X95984490Y-64258274D01*
X96060300Y-64403404D01*
X96060302Y-64403407D01*
X96116033Y-64471756D01*
X96188890Y-64561109D01*
X96270479Y-64627635D01*
X96346593Y-64689698D01*
X96526951Y-64783909D01*
X96722582Y-64839886D01*
X96841963Y-64850500D01*
X98658036Y-64850499D01*
X98777418Y-64839886D01*
X98973049Y-64783909D01*
X99153407Y-64689698D01*
X99311109Y-64561109D01*
X99439698Y-64403407D01*
X99533909Y-64223049D01*
X99589886Y-64027418D01*
X99600500Y-63908037D01*
X99600499Y-62091964D01*
X99589886Y-61972582D01*
X99533909Y-61776951D01*
X99484263Y-61681909D01*
X99470673Y-61613377D01*
X99496292Y-61548373D01*
X99552987Y-61507540D01*
X99594173Y-61500500D01*
X102867692Y-61500500D01*
X102934731Y-61520185D01*
X102955373Y-61536819D01*
X103620591Y-62202037D01*
X103557007Y-62219075D01*
X103442993Y-62284901D01*
X103349901Y-62377993D01*
X103284075Y-62492007D01*
X103267037Y-62555591D01*
X102634728Y-61923282D01*
X102634727Y-61923282D01*
X102595380Y-61977439D01*
X102498904Y-62166782D01*
X102433242Y-62368869D01*
X102433242Y-62368872D01*
X102400000Y-62578753D01*
X102400000Y-62791246D01*
X102433242Y-63001127D01*
X102433242Y-63001130D01*
X102498904Y-63203217D01*
X102595378Y-63392556D01*
X102620850Y-63427616D01*
X102644329Y-63493422D01*
X102628503Y-63561476D01*
X102578397Y-63610170D01*
X102520531Y-63624500D01*
X102464038Y-63624500D01*
X102339626Y-63644205D01*
X102215214Y-63663910D01*
X101975616Y-63741760D01*
X101751151Y-63856132D01*
X101550020Y-64002261D01*
X101550021Y-64002262D01*
X101547344Y-64004206D01*
X100029205Y-65522345D01*
X100029201Y-65522350D01*
X99881132Y-65726151D01*
X99766760Y-65950616D01*
X99688910Y-66190214D01*
X99649500Y-66439038D01*
X99649500Y-66648418D01*
X99629815Y-66715457D01*
X99577011Y-66761212D01*
X99507853Y-66771156D01*
X99493407Y-66768193D01*
X99352012Y-66730306D01*
X99118020Y-66699501D01*
X99118017Y-66699500D01*
X99118011Y-66699500D01*
X98881989Y-66699500D01*
X98881983Y-66699500D01*
X98881979Y-66699501D01*
X98647989Y-66730306D01*
X98420006Y-66791394D01*
X98201954Y-66881714D01*
X98201943Y-66881719D01*
X97997545Y-66999730D01*
X97810302Y-67143406D01*
X97810295Y-67143412D01*
X97643412Y-67310295D01*
X97643406Y-67310302D01*
X97499730Y-67497545D01*
X97499727Y-67497549D01*
X97499727Y-67497550D01*
X97492014Y-67510909D01*
X97381719Y-67701943D01*
X97381714Y-67701954D01*
X97291394Y-67920006D01*
X97230306Y-68147989D01*
X97199501Y-68381979D01*
X97199500Y-68381995D01*
X97199500Y-68618004D01*
X97199501Y-68618020D01*
X97230306Y-68852010D01*
X97291394Y-69079993D01*
X97381714Y-69298045D01*
X97381719Y-69298056D01*
X97422322Y-69368381D01*
X97499727Y-69502450D01*
X97499729Y-69502453D01*
X97499730Y-69502454D01*
X97643406Y-69689697D01*
X97643412Y-69689704D01*
X97810295Y-69856587D01*
X97810301Y-69856592D01*
X97997550Y-70000273D01*
X98128918Y-70076118D01*
X98201943Y-70118280D01*
X98201948Y-70118282D01*
X98201951Y-70118284D01*
X98420007Y-70208606D01*
X98647986Y-70269693D01*
X98881989Y-70300500D01*
X98881996Y-70300500D01*
X99118004Y-70300500D01*
X99118011Y-70300500D01*
X99352014Y-70269693D01*
X99493409Y-70231806D01*
X99563256Y-70233469D01*
X99621119Y-70272631D01*
X99648623Y-70336859D01*
X99649500Y-70351581D01*
X99649500Y-71375961D01*
X99688910Y-71624785D01*
X99766760Y-71864383D01*
X99881130Y-72088845D01*
X99903964Y-72120273D01*
X100004905Y-72259207D01*
X100029207Y-72292656D01*
X101461388Y-73724837D01*
X101494873Y-73786160D01*
X101489889Y-73855852D01*
X101448017Y-73911785D01*
X101382553Y-73936202D01*
X101314280Y-73921350D01*
X101298221Y-73910894D01*
X101196783Y-73833058D01*
X101196777Y-73833054D01*
X101196774Y-73833052D01*
X101003726Y-73721595D01*
X101003722Y-73721593D01*
X100797790Y-73636293D01*
X100797783Y-73636291D01*
X100797781Y-73636290D01*
X100582463Y-73578596D01*
X100582457Y-73578595D01*
X100582452Y-73578594D01*
X100361466Y-73549501D01*
X100361463Y-73549500D01*
X100361457Y-73549500D01*
X100138543Y-73549500D01*
X100138537Y-73549500D01*
X100138533Y-73549501D01*
X99917547Y-73578594D01*
X99917540Y-73578595D01*
X99917537Y-73578596D01*
X99702219Y-73636290D01*
X99702209Y-73636293D01*
X99496277Y-73721593D01*
X99496273Y-73721595D01*
X99303226Y-73833052D01*
X99303217Y-73833058D01*
X99126377Y-73968751D01*
X99126370Y-73968757D01*
X98968757Y-74126370D01*
X98968751Y-74126377D01*
X98833058Y-74303217D01*
X98833052Y-74303226D01*
X98721595Y-74496273D01*
X98721593Y-74496277D01*
X98636293Y-74702209D01*
X98636290Y-74702219D01*
X98578597Y-74917534D01*
X98578594Y-74917547D01*
X98549501Y-75138533D01*
X98549500Y-75138549D01*
X98549500Y-75361450D01*
X98549501Y-75361466D01*
X98578594Y-75582452D01*
X98578595Y-75582457D01*
X98578596Y-75582463D01*
X98578597Y-75582465D01*
X98636290Y-75797780D01*
X98636293Y-75797790D01*
X98721590Y-76003716D01*
X98721592Y-76003720D01*
X98721595Y-76003726D01*
X98732888Y-76023285D01*
X98749500Y-76085284D01*
X98749500Y-77414715D01*
X98732888Y-77476714D01*
X98721594Y-77496275D01*
X98721589Y-77496285D01*
X98636291Y-77702216D01*
X98630443Y-77724038D01*
X98598351Y-77779621D01*
X98355482Y-78022491D01*
X98216657Y-78213565D01*
X98109433Y-78424003D01*
X98036446Y-78648631D01*
X97999500Y-78881902D01*
X97999500Y-80975500D01*
X97979815Y-81042539D01*
X97927011Y-81088294D01*
X97875500Y-81099500D01*
X96721971Y-81099500D01*
X96721965Y-81099500D01*
X96721964Y-81099501D01*
X96710316Y-81100536D01*
X96602584Y-81110113D01*
X96444111Y-81155457D01*
X96375889Y-81155457D01*
X96248103Y-81118894D01*
X96217418Y-81110114D01*
X96217416Y-81110113D01*
X96217413Y-81110113D01*
X96151102Y-81104217D01*
X96098037Y-81099500D01*
X96098032Y-81099500D01*
X94181971Y-81099500D01*
X94181965Y-81099500D01*
X94181964Y-81099501D01*
X94170316Y-81100536D01*
X94062584Y-81110113D01*
X93866954Y-81166089D01*
X93776772Y-81213196D01*
X93686593Y-81260302D01*
X93686591Y-81260303D01*
X93686590Y-81260304D01*
X93528890Y-81388890D01*
X93400304Y-81546590D01*
X93400302Y-81546593D01*
X93386732Y-81572572D01*
X93306089Y-81726954D01*
X93250114Y-81922583D01*
X93250113Y-81922586D01*
X93239500Y-82041966D01*
X93239500Y-82789828D01*
X93219815Y-82856867D01*
X93167011Y-82902622D01*
X93097853Y-82912566D01*
X93034297Y-82883541D01*
X93015182Y-82862713D01*
X92948248Y-82770586D01*
X92948244Y-82770582D01*
X92948242Y-82770579D01*
X92792365Y-82614702D01*
X92792364Y-82614701D01*
X92789253Y-82611590D01*
X92789238Y-82611576D01*
X92436819Y-82259157D01*
X92403334Y-82197834D01*
X92400500Y-82171476D01*
X92400500Y-79573512D01*
X92420185Y-79506473D01*
X92472989Y-79460718D01*
X92530686Y-79450525D01*
X92530686Y-79450000D01*
X92533663Y-79450000D01*
X92534252Y-79449896D01*
X92535570Y-79450000D01*
X92724447Y-79450000D01*
X92911002Y-79420451D01*
X93090637Y-79362085D01*
X93258937Y-79276331D01*
X93284328Y-79257883D01*
X93284328Y-79257882D01*
X92626446Y-78600000D01*
X92676078Y-78600000D01*
X92765095Y-78576148D01*
X92844905Y-78530070D01*
X92910070Y-78464905D01*
X92956148Y-78385095D01*
X92980000Y-78296078D01*
X92980000Y-78249999D01*
X92983554Y-78249999D01*
X92983554Y-78250000D01*
X93637882Y-78904328D01*
X93637883Y-78904328D01*
X93656331Y-78878937D01*
X93742085Y-78710637D01*
X93800451Y-78531002D01*
X93830000Y-78344447D01*
X93830000Y-78155552D01*
X93800451Y-77968997D01*
X93742085Y-77789362D01*
X93656329Y-77621059D01*
X93637883Y-77595670D01*
X93637882Y-77595669D01*
X92983554Y-78249999D01*
X92980000Y-78249999D01*
X92980000Y-78203922D01*
X92956148Y-78114905D01*
X92910070Y-78035095D01*
X92844905Y-77969930D01*
X92765095Y-77923852D01*
X92676078Y-77900000D01*
X92626444Y-77900000D01*
X93284328Y-77242116D01*
X93258933Y-77223666D01*
X93090637Y-77137914D01*
X93065645Y-77129794D01*
X93007970Y-77090357D01*
X92980771Y-77025998D01*
X92992686Y-76957152D01*
X93039930Y-76905676D01*
X93071866Y-76892089D01*
X93177781Y-76863710D01*
X93383726Y-76778405D01*
X93576774Y-76666948D01*
X93753624Y-76531247D01*
X93911247Y-76373624D01*
X94046948Y-76196774D01*
X94158405Y-76003726D01*
X94243710Y-75797781D01*
X94301404Y-75582463D01*
X94330500Y-75361457D01*
X94330500Y-75138543D01*
X94301404Y-74917537D01*
X94243710Y-74702219D01*
X94158405Y-74496274D01*
X94046948Y-74303226D01*
X93911247Y-74126376D01*
X93911242Y-74126370D01*
X93753629Y-73968757D01*
X93753622Y-73968751D01*
X93576782Y-73833058D01*
X93576780Y-73833057D01*
X93576774Y-73833052D01*
X93383726Y-73721595D01*
X93383722Y-73721593D01*
X93177790Y-73636293D01*
X93177783Y-73636291D01*
X93177781Y-73636290D01*
X92962463Y-73578596D01*
X92962457Y-73578595D01*
X92962452Y-73578594D01*
X92741466Y-73549501D01*
X92741463Y-73549500D01*
X92741457Y-73549500D01*
X92524500Y-73549500D01*
X92457461Y-73529815D01*
X92411706Y-73477011D01*
X92400500Y-73425500D01*
X92400500Y-68397682D01*
X92700000Y-68397682D01*
X92700000Y-68602317D01*
X92732009Y-68804417D01*
X92795244Y-68999031D01*
X92888141Y-69181350D01*
X92888147Y-69181359D01*
X92920523Y-69225921D01*
X92920524Y-69225922D01*
X93600000Y-68546446D01*
X93600000Y-68552661D01*
X93627259Y-68654394D01*
X93679920Y-68745606D01*
X93754394Y-68820080D01*
X93845606Y-68872741D01*
X93947339Y-68900000D01*
X93953553Y-68900000D01*
X93274076Y-69579474D01*
X93318650Y-69611859D01*
X93500968Y-69704755D01*
X93695582Y-69767990D01*
X93897683Y-69800000D01*
X94102317Y-69800000D01*
X94304417Y-69767990D01*
X94499031Y-69704755D01*
X94681349Y-69611859D01*
X94725921Y-69579474D01*
X94046447Y-68900000D01*
X94052661Y-68900000D01*
X94154394Y-68872741D01*
X94245606Y-68820080D01*
X94320080Y-68745606D01*
X94372741Y-68654394D01*
X94400000Y-68552661D01*
X94400000Y-68546447D01*
X95079474Y-69225921D01*
X95111859Y-69181349D01*
X95204755Y-68999031D01*
X95267990Y-68804417D01*
X95300000Y-68602317D01*
X95300000Y-68397682D01*
X95267990Y-68195582D01*
X95204755Y-68000968D01*
X95111859Y-67818650D01*
X95079474Y-67774077D01*
X95079474Y-67774076D01*
X94400000Y-68453551D01*
X94400000Y-68447339D01*
X94372741Y-68345606D01*
X94320080Y-68254394D01*
X94245606Y-68179920D01*
X94154394Y-68127259D01*
X94052661Y-68100000D01*
X94046446Y-68100000D01*
X94725922Y-67420524D01*
X94725921Y-67420523D01*
X94681359Y-67388147D01*
X94681350Y-67388141D01*
X94499031Y-67295244D01*
X94304417Y-67232009D01*
X94102317Y-67200000D01*
X93897683Y-67200000D01*
X93695582Y-67232009D01*
X93500968Y-67295244D01*
X93318644Y-67388143D01*
X93274077Y-67420523D01*
X93274077Y-67420524D01*
X93953554Y-68100000D01*
X93947339Y-68100000D01*
X93845606Y-68127259D01*
X93754394Y-68179920D01*
X93679920Y-68254394D01*
X93627259Y-68345606D01*
X93600000Y-68447339D01*
X93600000Y-68453553D01*
X92920524Y-67774077D01*
X92920523Y-67774077D01*
X92888143Y-67818644D01*
X92795244Y-68000968D01*
X92732009Y-68195582D01*
X92700000Y-68397682D01*
X92400500Y-68397682D01*
X92400500Y-64865357D01*
X92400501Y-64865332D01*
X92400501Y-64639780D01*
X92398578Y-64627635D01*
X92366015Y-64422049D01*
X92354353Y-64386156D01*
X92350078Y-64372999D01*
X92297897Y-64212399D01*
X92297895Y-64212393D01*
X92218258Y-64056100D01*
X92197815Y-64015978D01*
X92174221Y-63983504D01*
X92068248Y-63837642D01*
X92068244Y-63837638D01*
X92068242Y-63837635D01*
X91912365Y-63681758D01*
X91912364Y-63681757D01*
X91909253Y-63678646D01*
X91909238Y-63678632D01*
X91236818Y-63006212D01*
X91222114Y-62979284D01*
X91205522Y-62953466D01*
X91204630Y-62947265D01*
X91203333Y-62944889D01*
X91200499Y-62918531D01*
X91200499Y-62385791D01*
X91200498Y-62385783D01*
X91190096Y-62253588D01*
X91185982Y-62237263D01*
X91135097Y-62035321D01*
X91135096Y-62035318D01*
X91117941Y-61997550D01*
X91042007Y-61830374D01*
X90948300Y-61695116D01*
X90926303Y-61628800D01*
X90943651Y-61561118D01*
X90994836Y-61513560D01*
X91050228Y-61500500D01*
X94673388Y-61500500D01*
X94740427Y-61520185D01*
G37*
%TD.AperFunction*%
%TA.AperFunction,Conductor*%
G36*
X104942539Y-61520185D02*
G01*
X104988294Y-61572989D01*
X104999500Y-61624500D01*
X104999500Y-61799703D01*
X104979815Y-61866742D01*
X104927011Y-61912497D01*
X104865772Y-61923321D01*
X104865270Y-61923281D01*
X104232962Y-62555589D01*
X104215925Y-62492007D01*
X104150099Y-62377993D01*
X104057007Y-62284901D01*
X103942993Y-62219075D01*
X103879409Y-62202037D01*
X104544626Y-61536819D01*
X104571553Y-61522115D01*
X104597372Y-61505523D01*
X104603572Y-61504631D01*
X104605949Y-61503334D01*
X104632307Y-61500500D01*
X104875500Y-61500500D01*
X104942539Y-61520185D01*
G37*
%TD.AperFunction*%
%TD*%
M02*
